<svg width="155" height="155" viewBox="0 0 155 155" fill="none" xmlns="http://www.w3.org/2000/svg">
<rect x="25.8613" y="31.0078" width="109.941" height="88.738" rx="9" fill="url(#paint0_linear_794_646)"/>
<g filter="url(#filter0_f_794_646)">
<circle cx="77.5009" cy="77.1571" r="27.0673" fill="url(#paint1_radial_794_646)"/>
</g>
<path d="M105.514 73.8019H77.9902C77.625 73.8016 77.2718 73.6711 76.994 73.434C74.2666 71.1135 74.1404 71.0903 73.9434 70.6721C73.717 70.2193 73.7849 70.4734 73.7849 63.4501C73.7849 63.3736 73.7999 63.2977 73.8292 63.227C73.8584 63.1562 73.9014 63.0919 73.9555 63.0378C74.0097 62.9836 74.074 62.9407 74.1447 62.9114C74.2155 62.8821 74.2913 62.8671 74.3679 62.8672H75.5621C75.6888 62.8681 75.8118 62.9099 75.9128 62.9864C76.0137 63.0629 76.0873 63.17 76.1224 63.2917L77.2091 67.1403C77.2489 67.2823 77.334 67.4073 77.4516 67.4962C77.5691 67.5852 77.7126 67.6331 77.86 67.6327H101.144C101.642 67.6332 102.13 67.7724 102.554 68.0346L106.114 70.2419C106.731 70.6313 107.145 70.8351 107.348 71.4701C107.433 71.7488 107.45 72.044 107.396 72.3306C107.343 72.6172 107.221 72.8866 107.041 73.1157C106.861 73.3449 106.627 73.527 106.362 73.6465C106.096 73.766 105.805 73.8193 105.514 73.8019Z" fill="#D0D4FD"/>
<path d="M77.8882 71.4342C77.8872 71.7071 77.7783 71.9685 77.5854 72.1615C77.3924 72.3544 77.131 72.4633 76.8582 72.4643H75.8564C74.4346 71.2594 74.1369 71.0816 73.9434 70.6702C76.9221 70.3872 76.8016 70.3985 76.8582 70.3985C76.9939 70.3986 77.1282 70.4256 77.2535 70.4778C77.3788 70.5299 77.4925 70.6063 77.5882 70.7025C77.6839 70.7988 77.7597 70.9129 77.8112 71.0385C77.8626 71.164 77.8888 71.2985 77.8882 71.4342Z" fill="#9E9DE4"/>
<path d="M106.715 70.6371C106.851 70.738 106.951 70.879 107.002 71.0401C107.053 71.2012 107.053 71.3742 107 71.5348C106.947 71.6953 106.845 71.8352 106.709 71.9348C106.572 72.0343 106.408 72.0884 106.239 72.0894C100.944 72.1058 79.8286 72.0985 79.6877 72.0985C79.3232 72.0992 78.9704 71.9709 78.6915 71.7362L76.0314 69.478C75.8604 69.3342 75.7227 69.155 75.6279 68.9526C75.5331 68.7503 75.4835 68.5298 75.4824 68.3064V62.8673C75.622 62.8509 75.7629 62.8846 75.88 62.9623C75.9971 63.0401 76.0829 63.1568 76.122 63.2918L77.2087 67.1405C77.2484 67.2824 77.3336 67.4075 77.4511 67.4964C77.5687 67.5853 77.7121 67.6333 77.8595 67.6329H101.144C101.642 67.6327 102.129 67.7717 102.552 68.0342C106.04 70.1968 106.475 70.456 106.715 70.6371Z" fill="#DFE8FD"/>
<path d="M90.0949 68.2422H79.9316C79.4171 68.2422 79 68.6593 79 69.1738C79 69.6883 79.4171 70.1054 79.9316 70.1054H90.0949C90.6094 70.1054 91.0265 69.6883 91.0265 69.1738C91.0265 68.6593 90.6094 68.2422 90.0949 68.2422Z" fill="white"/>
<path d="M96.9029 68.2422H96.4609C95.9464 68.2422 95.5293 68.6593 95.5293 69.1738C95.5293 69.6883 95.9464 70.1054 96.4609 70.1054H96.9029C97.4174 70.1054 97.8345 69.6883 97.8345 69.1738C97.8345 68.6593 97.4174 68.2422 96.9029 68.2422Z" fill="white"/>
<path d="M104.835 69.4479H99.652C99.4788 69.4478 99.3087 69.4027 99.1583 69.3169C99.0078 69.2312 98.8823 69.1078 98.794 68.9589L98.0078 67.6328H101.148C101.645 67.6332 102.132 67.772 102.555 68.0335L104.835 69.4479Z" fill="#53C5FD"/>
<path d="M93.2796 71.1389L84.4701 71.967C84.2426 71.9883 84.0313 72.0937 83.8775 72.2627C83.7237 72.4317 83.6385 72.652 83.6387 72.8805C83.6387 73.0009 83.6624 73.1202 83.7085 73.2315C83.7546 73.3428 83.8222 73.4439 83.9074 73.529C83.9926 73.6141 84.0938 73.6817 84.2051 73.7277C84.3164 73.7738 84.4357 73.7974 84.5561 73.7974H93.4041C93.5829 73.7952 93.7595 73.7571 93.9233 73.6852C94.0871 73.6134 94.2348 73.5093 94.3575 73.3792C94.4802 73.249 94.5755 73.0955 94.6376 72.9278C94.6997 72.76 94.7274 72.5815 94.719 72.4028C94.7107 72.2242 94.6664 72.049 94.5889 71.8878C94.5114 71.7266 94.4022 71.5827 94.2679 71.4646C94.1336 71.3464 93.9768 71.2566 93.807 71.2004C93.6372 71.1441 93.4579 71.1227 93.2796 71.1372V71.1389Z" fill="#1C8EFD"/>
<path d="M88.4378 71.5949L84.4708 71.9679C84.2434 71.9892 84.032 72.0947 83.8782 72.2636C83.7244 72.4326 83.6393 72.6529 83.6394 72.8814C83.6394 73.0019 83.6632 73.1211 83.7093 73.2324C83.7554 73.3437 83.823 73.4448 83.9082 73.5299C83.9934 73.6151 84.0945 73.6826 84.2058 73.7287C84.3171 73.7747 84.4364 73.7984 84.5569 73.7983H88.5414C88.8341 73.7983 89.1148 73.682 89.3218 73.475C89.5288 73.2681 89.645 72.9873 89.645 72.6946C89.6451 72.5409 89.613 72.3889 89.5509 72.2483C89.4888 72.1076 89.398 71.9815 89.2844 71.878C89.1708 71.7745 89.0368 71.6959 88.891 71.6471C88.7452 71.5984 88.5908 71.5806 88.4378 71.5949ZM72.5938 70.8201C72.5938 71.0519 72.6858 71.2741 72.8497 71.438C73.0136 71.6019 73.2359 71.694 73.4676 71.694H76.8567C77.1306 71.6938 77.3931 71.5849 77.5867 71.3912C77.7803 71.1976 77.8891 70.9349 77.8891 70.6611C77.889 70.5175 77.8591 70.3756 77.8011 70.2443C77.7431 70.113 77.6584 69.9952 77.5524 69.8985C77.4464 69.8018 77.3213 69.7283 77.1853 69.6826C77.0492 69.6369 76.9051 69.6201 76.7622 69.6332L73.3878 69.9502C73.1708 69.97 72.969 70.0702 72.8221 70.2311C72.6751 70.3921 72.5937 70.6022 72.5938 70.8201Z" fill="#4066DA"/>
<path d="M91.5139 73.7969H87.4145C86.7919 73.7969 86.2871 74.3016 86.2871 74.9243V75.6103C86.2871 76.2329 86.7919 76.7377 87.4145 76.7377H91.5139C92.1366 76.7377 92.6414 76.2329 92.6414 75.6103V74.9243C92.6414 74.3016 92.1366 73.7969 91.5139 73.7969Z" fill="#878EB7"/>
<path d="M92.621 74.7299H86.3047C86.3509 74.4694 86.4874 74.2335 86.6903 74.0638C86.8932 73.894 87.1495 73.8012 87.414 73.8017C91.6232 73.8017 91.7845 73.7349 92.1003 73.9715C92.2365 74.053 92.3535 74.163 92.4434 74.2939C92.5332 74.4248 92.5938 74.5735 92.621 74.7299Z" fill="#6E70B7"/>
<path d="M90.6133 73.7958H91.5143C91.8133 73.7958 92.1001 73.9146 92.3115 74.126C92.523 74.3375 92.6418 74.6242 92.6418 74.9232V75.6086C92.6418 75.9076 92.523 76.1944 92.3115 76.4058C92.1001 76.6173 91.8133 76.7361 91.5143 76.7361H90.6133V73.793V73.7958Z" fill="#646B99"/>
<path d="M92.6206 74.7275H90.6113V73.7993C91.226 73.7993 91.7999 73.7427 92.0999 73.9691C92.2369 74.0496 92.3546 74.1592 92.4446 74.2903C92.5346 74.4214 92.5947 74.5706 92.6206 74.7275Z" fill="#4B527B"/>
<path d="M93.9242 69.8351H93.0588C92.9087 69.8351 92.7648 69.7755 92.6586 69.6693C92.5525 69.5632 92.4928 69.4192 92.4928 69.2691C92.4928 69.119 92.5525 68.975 92.6586 68.8689C92.7648 68.7628 92.9087 68.7031 93.0588 68.7031H93.9242C94.0743 68.7031 94.2183 68.7628 94.3244 68.8689C94.4306 68.975 94.4902 69.119 94.4902 69.2691C94.4902 69.4192 94.4306 69.5632 94.3244 69.6693C94.2183 69.7755 94.0743 69.8351 93.9242 69.8351ZM90.9036 69.8351H90.0382C89.8881 69.8351 89.7441 69.7755 89.638 69.6693C89.5318 69.5632 89.4722 69.4192 89.4722 69.2691C89.4722 69.119 89.5318 68.975 89.638 68.8689C89.7441 68.7628 89.8881 68.7031 90.0382 68.7031H90.9036C91.0537 68.7031 91.1976 68.7628 91.3038 68.8689C91.4099 68.975 91.4695 69.119 91.4695 69.2691C91.4695 69.4192 91.4099 69.5632 91.3038 69.6693C91.1976 69.7755 91.0537 69.8351 90.9036 69.8351ZM87.8829 69.8351H87.0175C86.8674 69.8351 86.7235 69.7755 86.6173 69.6693C86.5112 69.5632 86.4516 69.4192 86.4516 69.2691C86.4516 69.119 86.5112 68.975 86.6173 68.8689C86.7235 68.7628 86.8674 68.7031 87.0175 68.7031H87.8829C88.033 68.7031 88.177 68.7628 88.2831 68.8689C88.3893 68.975 88.4489 69.119 88.4489 69.2691C88.4489 69.4192 88.3893 69.5632 88.2831 69.6693C88.177 69.7755 88.033 69.8351 87.8829 69.8351ZM84.8623 69.8351H83.9969C83.8468 69.8351 83.7028 69.7755 83.5967 69.6693C83.4906 69.5632 83.4309 69.4192 83.4309 69.2691C83.4309 69.119 83.4906 68.975 83.5967 68.8689C83.7028 68.7628 83.8468 68.7031 83.9969 68.7031H84.8623C85.0124 68.7031 85.1564 68.7628 85.2625 68.8689C85.3686 68.975 85.4283 69.119 85.4283 69.2691C85.4283 69.4192 85.3686 69.5632 85.2625 69.6693C85.1564 69.7755 85.0124 69.8351 84.8623 69.8351ZM81.8417 69.8351H80.9768C80.8267 69.8351 80.6828 69.7755 80.5766 69.6693C80.4705 69.5632 80.4109 69.4192 80.4109 69.2691C80.4109 69.119 80.4705 68.975 80.5766 68.8689C80.6828 68.7628 80.8267 68.7031 80.9768 68.7031H81.8417C81.9918 68.7031 82.1357 68.7628 82.2419 68.8689C82.348 68.975 82.4076 69.119 82.4076 69.2691C82.4076 69.4192 82.348 69.5632 82.2419 69.6693C82.1357 69.7755 81.9918 69.8351 81.8417 69.8351ZM102.956 82.2663V101.374H64.1406V86.4036L102.956 82.2663Z" fill="#53C5FD"/>
<path d="M102.956 82.2891V85.3906L86.9782 101.374H83.8767L102.956 82.2891ZM102.956 87.9828V89.5336L91.1212 101.374H89.5704L102.956 87.9828ZM85.1162 84.1681L67.916 101.374H66.3652L83.3843 84.3492L85.1162 84.1681ZM95.8415 83.0248L77.4981 101.374H72.7665L90.5609 83.5852C95.9043 83.0158 95.1595 83.0928 95.8415 83.0248Z" fill="#9AE3FD"/>
<path d="M102.956 82.2656V83.3014L64.1406 87.4443V86.4029C72.7514 85.4838 64.3517 86.3792 102.956 82.2656Z" fill="#4993EE"/>
<path d="M96.4751 92.4098V84.0898L95.3431 84.2087V92.4098L89.0324 92.3928V84.8822L87.9005 85.0067V92.3928L81.7992 92.3758V85.652L80.6672 85.7765V92.3758L74.3509 92.3588V86.45L73.2189 86.5688V92.3588L71.9342 92.3554V85.5727L64.1406 86.4047V101.375H74.4754C74.2977 100.964 74.3509 101.934 74.3509 93.4908L80.6672 93.5078V101.375H81.7992V93.5078L87.9005 93.5247V101.375H89.0324V93.5247L95.3431 93.5417V101.375H96.4751V93.5417L102.956 93.5587V92.4267L96.4751 92.4098ZM71.9342 95.5057V93.4874L73.2189 93.4908V98.4714L71.9342 95.5057Z" fill="#4993EE"/>
<path d="M102.956 91.2939V92.4259L96.4751 92.4089V101.374H95.3431V92.4089L89.0324 92.3919V101.374H87.9005V92.3919L81.7992 92.3749V101.374H80.6672V92.3749L74.3509 92.358V101.374H73.2189V92.358L64.1406 92.3353V91.2034L73.2189 91.226V85.436L74.3509 85.3172V91.226L80.6672 91.243V84.6437L81.7992 84.5191V91.243L87.9005 91.26V83.8739L89.0324 83.7494V91.26L95.3431 91.2769V83.0759L96.4751 82.957V91.2769L102.956 91.2939Z" fill="#DFE8FD"/>
<path d="M81.799 87.0361V84.5191L80.667 84.6437V87.0361H81.799ZM74.3507 87.0361V85.3172L73.2188 85.436V87.0361H74.3507ZM89.0322 87.0361V83.7494L87.9003 83.8739V87.0361H89.0322ZM96.4749 87.0361V82.957L95.3429 83.0759V87.0361H96.4749ZM73.2188 99.2516H74.3507V101.374H73.2188V99.2516ZM87.9003 99.2516H89.0322V101.374H87.9003V99.2516ZM95.3429 99.2516H96.4749V101.374H95.3429V99.2516ZM80.667 99.2516H81.799V101.374H80.667V99.2516Z" fill="#B7CFFD"/>
<path d="M104.591 79.1562V82.0937C67.1335 86.0889 74.485 85.3028 64.1406 86.4065V83.4747C74.5473 82.3671 66.5591 83.2194 104.591 79.1562Z" fill="#FFA366"/>
<path d="M104.591 79.1562V80.5033C67.1335 84.4985 74.485 83.7147 64.1406 84.816V83.4747C74.5473 82.3671 66.5591 83.2194 104.591 79.1562Z" fill="#FFC670"/>
<path d="M71.9568 82.6406V85.5724L64.1406 86.4044V83.4726L71.9568 82.6406Z" fill="#FF6C66"/>
<path d="M58.4185 95.5039H68.3973L70.9408 101.374H55.875L58.4185 95.5039Z" fill="#ADB6E4"/>
<path d="M60.9595 95.5039L58.4182 101.373H55.877L58.4182 95.5039H60.9595Z" fill="#8A8ECB"/>
<path d="M68.7867 101.376H66.8539L64.307 95.5071H66.2455L68.7867 101.376ZM58.418 65.7422H68.3968V95.5065H58.418V65.7422Z" fill="#C6DEFD"/>
<path d="M64.3047 65.7422H66.246V95.5071H64.3047V65.7422Z" fill="#E4FCFD"/>
<path d="M58.418 65.7422H68.3968V67.1815H58.418V65.7422Z" fill="#E4FCFD"/>
<path d="M58.418 65.7422H60.9598V95.5065H58.418V65.7422Z" fill="#B2C5F3"/>
<path d="M57.293 58.6992H69.5215L68.3964 65.7428H58.4176L57.293 58.6992Z" fill="#53C5FD"/>
<path d="M62.2676 58.6992H68.2839L67.7304 65.7428H62.8211L62.2676 58.6992Z" fill="#9AE3FD"/>
<path d="M66.2741 64.4937L66.4518 58.6992H64.0996L64.2773 64.4937H66.2741Z" fill="white"/>
<path d="M60.9605 65.74H58.4193L57.293 58.6992H59.8342L60.9605 65.74Z" fill="#539DFD"/>
<path d="M56.6582 56.3477H70.1585V58.6953H56.6582V56.3477Z" fill="#C6DEFD"/>
<path d="M56.6582 56.3477H60.5572V58.6953H56.6582V56.3477Z" fill="#B2C5F3"/>
<path d="M56.6582 56.3477H70.1585V57.3681H56.6582V56.3477Z" fill="#B2C5F3"/>
<path d="M58.4175 54.5684C58.2674 54.5684 58.1235 54.5088 58.0173 54.4027C57.9112 54.2965 57.8516 54.1526 57.8516 54.0025V52.1421C57.8516 51.992 57.9112 51.848 58.0173 51.7419C58.1235 51.6357 58.2674 51.5761 58.4175 51.5761C58.5676 51.5761 58.7116 51.6357 58.8178 51.7419C58.9239 51.848 58.9835 51.992 58.9835 52.1421V54.0025C58.9835 54.1526 58.9239 54.2965 58.8178 54.4027C58.7116 54.5088 58.5676 54.5684 58.4175 54.5684ZM62.0619 54.5684C61.9118 54.5684 61.7678 54.5088 61.6617 54.4027C61.5555 54.2965 61.4959 54.1526 61.4959 54.0025V49.941C61.4959 49.7909 61.5555 49.6469 61.6617 49.5408C61.7678 49.4346 61.9118 49.375 62.0619 49.375C62.212 49.375 62.356 49.4346 62.4621 49.5408C62.5682 49.6469 62.6279 49.7909 62.6279 49.941V54.0025C62.6279 54.1526 62.5682 54.2965 62.4621 54.4027C62.356 54.5088 62.212 54.5684 62.0619 54.5684ZM66.146 54.5684C65.9959 54.5684 65.8519 54.5088 65.7458 54.4027C65.6397 54.2965 65.58 54.1526 65.58 54.0025V52.1421C65.58 51.992 65.6397 51.848 65.7458 51.7419C65.8519 51.6357 65.9959 51.5761 66.146 51.5761C66.2961 51.5761 66.4401 51.6357 66.5462 51.7419C66.6524 51.848 66.712 51.992 66.712 52.1421V54.0025C66.712 54.1526 66.6524 54.2965 66.5462 54.4027C66.4401 54.5088 66.2961 54.5684 66.146 54.5684Z" fill="#3F3C5B"/>
<path d="M67.2226 52.7062H65.0718C64.9217 52.7062 64.7778 52.6465 64.6716 52.5404C64.5655 52.4343 64.5059 52.2903 64.5059 52.1402C64.5059 51.9901 64.5655 51.8461 64.6716 51.74C64.7778 51.6338 64.9217 51.5742 65.0718 51.5742H67.2226C67.3727 51.5742 67.5166 51.6338 67.6228 51.74C67.7289 51.8461 67.7885 51.9901 67.7885 52.1402C67.7885 52.2903 67.7289 52.4343 67.6228 52.5404C67.5166 52.6465 67.3727 52.7062 67.2226 52.7062Z" fill="#3F3C5B"/>
<path d="M63.4082 71.625H68.3973V81.5653H63.4082V71.625Z" fill="#9EB6E4"/>
<path d="M64.3047 71.6211H66.246V81.5654H64.3047V71.6211Z" fill="#C6DEFD"/>
<path d="M54.2363 54H72.5797V56.3477H54.2363V54Z" fill="#8F93D5"/>
<path d="M54.2363 54H59.9431V56.3477H54.2363V54Z" fill="#767AAD"/>
<path d="M64.7832 54H66.9775V56.3477H64.7832V54ZM68.2849 54H69.1718V56.3477H68.2849V54Z" fill="#9EB6E4"/>
<path d="M98.8358 91.2852H73.3016C73.0056 91.2852 72.7656 91.5251 72.7656 91.8211V91.8217C72.7656 92.1177 73.0056 92.3577 73.3016 92.3577H98.8358C99.1318 92.3577 99.3718 92.1177 99.3718 91.8217V91.8211C99.3718 91.5251 99.1318 91.2852 98.8358 91.2852Z" fill="white"/>
<path d="M89.4151 75.9133H87.9826C87.9236 75.9103 87.8679 75.8848 87.8272 75.842C87.7864 75.7992 87.7637 75.7423 87.7637 75.6832C87.7637 75.6241 87.7864 75.5672 87.8272 75.5244C87.8679 75.4816 87.9236 75.4561 87.9826 75.4531H89.4151C89.4742 75.4561 89.5298 75.4816 89.5706 75.5244C89.6113 75.5672 89.634 75.6241 89.634 75.6832C89.634 75.7423 89.6113 75.7992 89.5706 75.842C89.5298 75.8848 89.4742 75.9103 89.4151 75.9133Z" fill="#6E70B7"/>
<defs>
<filter id="filter0_f_794_646" x="0.433594" y="0.0898438" width="154.135" height="154.133" filterUnits="userSpaceOnUse" color-interpolation-filters="sRGB">
<feFlood flood-opacity="0" result="BackgroundImageFix"/>
<feBlend mode="normal" in="SourceGraphic" in2="BackgroundImageFix" result="shape"/>
<feGaussianBlur stdDeviation="25" result="effect1_foregroundBlur_794_646"/>
</filter>
<linearGradient id="paint0_linear_794_646" x1="80.832" y1="31.0078" x2="80.832" y2="119.746" gradientUnits="userSpaceOnUse">
<stop stop-color="white" stop-opacity="0.2"/>
<stop offset="1" stop-color="white" stop-opacity="0.05"/>
</linearGradient>
<radialGradient id="paint1_radial_794_646" cx="0" cy="0" r="1" gradientUnits="userSpaceOnUse" gradientTransform="translate(77.5009 77.1571) rotate(90) scale(27.0673)">
<stop stop-color="#EBDBDC"/>
<stop offset="1" stop-color="#53C5FD"/>
</radialGradient>
</defs>
</svg>
