<svg width="155" height="155" viewBox="0 0 155 155" fill="none" xmlns="http://www.w3.org/2000/svg">
<rect x="25.6357" y="31.1748" width="109.941" height="88.738" rx="9" fill="url(#paint0_linear_88_3723)"/>
<g filter="url(#filter0_f_88_3723)">
<circle cx="77.2167" cy="77.3895" r="27.0673" fill="url(#paint1_radial_88_3723)"/>
</g>
<path d="M103.329 95.6561V89.1774C103.329 89.0387 103.274 88.9056 103.176 88.8075C103.078 88.7094 102.945 88.6543 102.806 88.6543H87.3117C83.6088 88.6544 80.6069 91.6563 80.6069 95.3593C80.6069 91.6563 77.605 88.6544 73.902 88.6544H58.4079C58.2692 88.6544 58.1361 88.7095 58.038 88.8076C57.9399 88.9057 57.8848 89.0388 57.8848 89.1775V95.6562H103.329V95.6561Z" fill="#FFF3DE"/>
<path d="M87.3115 89.1543H102.806C102.812 89.1543 102.818 89.1568 102.822 89.1611C102.827 89.1655 102.829 89.1716 102.829 89.1777V95.1562H81.1123C81.2161 91.9297 83.7809 89.3251 86.9922 89.1621L87.3115 89.1543ZM58.4082 89.1543H73.9023C77.2611 89.1545 79.9944 91.8235 80.1016 95.1562H58.3848V89.1777C58.3848 89.1716 58.3873 89.1655 58.3916 89.1611C58.3959 89.1568 58.4021 89.1543 58.4082 89.1543Z" stroke="black" stroke-opacity="0.01"/>
<path d="M102.806 88.6543H99.2662V91.3423C99.2662 91.9201 98.7978 92.3886 98.2199 92.3886H81.3006C80.8431 93.3119 80.6057 94.3287 80.6068 95.3592C80.6079 94.3287 80.3704 93.3119 79.913 92.3886H57.8848V95.656H103.329V89.1773C103.329 89.1086 103.315 89.0406 103.289 88.9772C103.263 88.9137 103.224 88.856 103.176 88.8075C103.127 88.7589 103.069 88.7204 103.006 88.6941C102.942 88.6678 102.874 88.6543 102.806 88.6543Z" fill="#FFE5C2"/>
<path d="M102.806 89.1543C102.809 89.1543 102.812 89.1551 102.814 89.1562C102.817 89.1574 102.82 89.159 102.822 89.1611C102.824 89.1632 102.826 89.1662 102.827 89.1689C102.828 89.1716 102.829 89.1749 102.829 89.1777V95.1562H81.1123C81.1371 94.3744 81.3093 93.6053 81.6211 92.8887H98.2197C99.0736 92.8887 99.7663 92.1966 99.7666 91.3428V89.1543H102.806ZM79.5928 92.8887C79.9046 93.6053 80.0758 94.3745 80.1006 95.1562H58.3848V92.8887H79.5928Z" stroke="black" stroke-opacity="0.01"/>
<path d="M105.802 95.4951H55.4112C55.1978 95.4951 54.9931 95.5799 54.8422 95.7308C54.6912 95.8818 54.6064 96.0865 54.6064 96.2999V100.52C54.6064 100.733 54.6912 100.938 54.8422 101.089C54.9931 101.24 55.1978 101.325 55.4112 101.325H105.802C106.015 101.325 106.22 101.24 106.371 101.089C106.522 100.938 106.606 100.733 106.606 100.52V96.2999C106.606 96.0865 106.522 95.8818 106.371 95.7308C106.22 95.5799 106.015 95.4951 105.802 95.4951Z" fill="#FE646F"/>
<path d="M55.4111 95.9951H105.802C105.883 95.9951 105.96 96.0268 106.018 96.084C106.075 96.1411 106.106 96.219 106.106 96.2998V100.52C106.106 100.6 106.075 100.678 106.018 100.735C105.96 100.792 105.883 100.824 105.802 100.824H55.4111C55.3303 100.824 55.2525 100.792 55.1953 100.735C55.1383 100.678 55.1064 100.6 55.1064 100.52V96.2998L55.1123 96.2402C55.124 96.1816 55.1524 96.1269 55.1953 96.084C55.2382 96.0411 55.2929 96.0127 55.3516 96.001L55.4111 95.9951Z" stroke="black" stroke-opacity="0.01"/>
<path d="M105.802 95.4951H99.2659V97.2373C99.2659 97.8151 98.7974 98.2836 98.2196 98.2836H54.6064V100.52C54.6064 100.733 54.6912 100.938 54.8422 101.089C54.9931 101.24 55.1978 101.325 55.4112 101.325H105.802C106.015 101.325 106.22 101.24 106.371 101.089C106.522 100.938 106.606 100.733 106.606 100.52V96.2999C106.606 96.0865 106.522 95.8818 106.371 95.7308C106.22 95.5799 106.015 95.4951 105.802 95.4951Z" fill="#FD4755"/>
<path d="M105.802 95.9951C105.883 95.9951 105.96 96.0268 106.018 96.084C106.075 96.1411 106.106 96.219 106.106 96.2998V100.52C106.106 100.6 106.075 100.678 106.018 100.735C105.96 100.792 105.883 100.824 105.802 100.824H55.4111C55.3303 100.824 55.2524 100.792 55.1953 100.735C55.1383 100.678 55.1064 100.6 55.1064 100.52V98.7832H98.2197C99.0737 98.7831 99.7656 98.0912 99.7656 97.2373V95.9951H105.802Z" stroke="black" stroke-opacity="0.01"/>
<path d="M75.0067 68.4209L70.8948 70.9505C70.7929 71.0131 70.7088 71.1008 70.6505 71.2052C70.5922 71.3096 70.5615 71.4272 70.5615 71.5468V78.4461C70.5615 78.6318 70.6353 78.8099 70.7666 78.9411C70.8979 79.0724 71.0759 79.1462 71.2616 79.1462H75.0067V68.4209Z" fill="#62DBFB"/>
<path d="M74.5068 78.6465H71.2617L71.2227 78.6426C71.1841 78.6349 71.1483 78.616 71.1201 78.5879C71.0826 78.5504 71.0616 78.4993 71.0615 78.4463V71.5469L71.0684 71.4961C71.0726 71.4798 71.0786 71.464 71.0869 71.4492C71.0953 71.4343 71.1054 71.4204 71.1172 71.4082L71.1572 71.376L74.5068 69.3145V78.6465Z" stroke="black" stroke-opacity="0.01"/>
<path d="M90.2976 70.9505L86.1855 68.4209V79.1463H89.9308C90.1165 79.1463 90.2945 79.0725 90.4258 78.9412C90.5571 78.81 90.6309 78.6319 90.6309 78.4462V71.5469C90.6309 71.4273 90.6003 71.3097 90.5419 71.2053C90.4836 71.1009 90.3995 71.0132 90.2976 70.9505Z" fill="#01D0FB"/>
<path d="M90.0352 71.375V71.376C90.0643 71.3939 90.0888 71.4194 90.1055 71.4492C90.1221 71.479 90.1309 71.5127 90.1309 71.5469V78.4463L90.127 78.4854C90.1193 78.5238 90.1004 78.5597 90.0723 78.5879C90.0348 78.6253 89.9837 78.6465 89.9307 78.6465H86.6855V69.3145L90.0352 71.375Z" stroke="black" stroke-opacity="0.01"/>
<path d="M84.8839 60.876H76.3083L76.2413 60.9806C75.3523 62.371 74.8799 63.9869 74.8799 65.6373V80.7469C74.8799 81.4484 75.4486 82.0172 76.1502 82.0172H85.042C85.7435 82.0172 86.3122 81.4484 86.3122 80.7469V65.6373C86.3123 63.9869 85.8398 62.371 84.9508 60.9806L84.8839 60.876Z" fill="#F3F0F3"/>
<path d="M84.6064 61.376C85.3934 62.6574 85.8125 64.132 85.8125 65.6377V80.7471C85.8124 81.1724 85.4673 81.5176 85.042 81.5176H76.1504C75.7251 81.5176 75.38 81.1724 75.3799 80.7471V65.6377L75.3848 65.3457C75.435 63.9418 75.849 62.5745 76.585 61.376H84.6064Z" stroke="black" stroke-opacity="0.01"/>
<path d="M84.8838 60.876H81.3254L81.6792 61.4294C82.5682 62.8198 83.0406 64.4357 83.0406 66.086V77.8763C83.0406 78.5778 82.4719 79.1466 81.7704 79.1466H74.8799V80.747C74.8799 81.4485 75.4486 82.0173 76.1502 82.0173H85.042C85.7435 82.0173 86.3122 81.4485 86.3122 80.747V65.6373C86.3123 63.9869 85.8398 62.371 84.9508 60.9806L84.8838 60.876Z" fill="#E2DEE2"/>
<path d="M84.6064 61.376C85.3934 62.6574 85.8125 64.132 85.8125 65.6377V80.7471C85.8125 81.1724 85.4673 81.5176 85.042 81.5176H76.1504C75.725 81.5176 75.3799 81.1724 75.3799 80.7471V79.6465H81.7705C82.7481 79.6464 83.541 78.8536 83.541 77.876V66.0859L83.5352 65.7588C83.4798 64.2116 83.0313 62.7037 82.2334 61.376H84.6064Z" stroke="black" stroke-opacity="0.01"/>
<path d="M81.1311 55.0059C80.8813 54.6152 80.3107 54.6152 80.0609 55.0059L76.2412 60.9803H84.9507L81.1311 55.0059Z" fill="#62DBFB"/>
<path d="M80.4824 55.2754C80.529 55.2027 80.627 55.1938 80.6865 55.248L80.71 55.2754L84.0371 60.4805H77.1543L80.4824 55.2754Z" stroke="black" stroke-opacity="0.01"/>
<path d="M81.392 60.9803H84.9504L81.1308 55.0059C80.881 54.6152 80.3104 54.6152 80.0605 55.0059L78.8164 56.9518L81.392 60.9803Z" fill="#01D0FB"/>
<path d="M80.4814 55.2754C80.528 55.2026 80.627 55.1936 80.6865 55.248L80.71 55.2754L84.0371 60.4805H81.666L79.4092 56.9512L80.4814 55.2754Z" stroke="black" stroke-opacity="0.01"/>
<path d="M80.5963 70.0188C81.8965 70.0188 82.9504 68.9648 82.9504 67.6647C82.9504 66.3645 81.8965 65.3105 80.5963 65.3105C79.2962 65.3105 78.2422 66.3645 78.2422 67.6647C78.2422 68.9648 79.2962 70.0188 80.5963 70.0188Z" fill="#62DBFB"/>
<path d="M80.5967 65.8105C81.6205 65.8107 82.4502 66.6412 82.4502 67.665C82.45 68.6888 81.6204 69.5184 80.5967 69.5186C79.5728 69.5186 78.7424 68.6889 78.7422 67.665C78.7422 66.641 79.5727 65.8105 80.5967 65.8105Z" stroke="black" stroke-opacity="0.01"/>
<path d="M66.5407 53.5835L67.7669 55.8254C67.8059 55.8967 67.8645 55.9553 67.9358 55.9943L70.1777 57.2205C70.4725 57.3817 70.4725 57.8052 70.1777 57.9666L67.9358 59.1927C67.8645 59.2317 67.8059 59.2904 67.7669 59.3617L66.5407 61.6035C66.3795 61.8984 65.956 61.8984 65.7946 61.6035L64.5685 59.3617C64.5295 59.2904 64.4708 59.2317 64.3995 59.1927L62.1577 57.9666C61.8628 57.8053 61.8628 57.3818 62.1577 57.2205L64.3995 55.9943C64.4708 55.9553 64.5295 55.8967 64.5685 55.8254L65.7946 53.5835C65.956 53.2886 66.3795 53.2886 66.5407 53.5835ZM99.7508 75.6439L100.888 77.7227C100.924 77.7888 100.978 77.8432 101.045 77.8794L103.123 79.0164C103.397 79.1659 103.397 79.5587 103.123 79.7082L101.045 80.8452C100.978 80.8814 100.924 80.9358 100.888 81.002L99.7508 83.0808C99.6013 83.3543 99.2085 83.3543 99.059 83.0808L97.922 81.002C97.8858 80.9358 97.8314 80.8814 97.7653 80.8452L95.6865 79.7082C95.413 79.5587 95.413 79.1659 95.6865 79.0164L97.7653 77.8794C97.8314 77.8432 97.8858 77.7888 97.922 77.7227L99.059 75.6439C99.2085 75.3705 99.6012 75.3705 99.7508 75.6439Z" fill="#FFE177"/>
<path d="M100.449 77.9629C100.511 78.0753 100.596 78.1727 100.697 78.249L100.805 78.3184L102.714 79.3623L100.805 80.4062C100.692 80.4677 100.595 80.5527 100.519 80.6543L100.449 80.7617L99.4043 82.6709L98.3604 80.7617L98.292 80.6543C98.2411 80.5864 98.1802 80.5265 98.1123 80.4756L98.0059 80.4062H98.0049L96.0957 79.3623L98.0049 78.3184H98.0059C98.1182 78.2568 98.2157 78.172 98.292 78.0703L98.3604 77.9629L99.4043 76.0527L100.449 77.9629ZM67.3281 56.0654C67.3918 56.1818 67.4797 56.2824 67.585 56.3613L67.6963 56.4326L69.8174 57.5928L67.6963 58.7539C67.5798 58.8176 67.4784 58.9053 67.3994 59.0107L67.3281 59.1221L66.167 61.2422L65.0068 59.1221L64.9355 59.0107C64.8828 58.9404 64.8204 58.8779 64.75 58.8252L64.6396 58.7539L62.5166 57.5928L64.6396 56.4326C64.7558 56.369 64.8567 56.2818 64.9355 56.1768L65.0068 56.0654L66.167 53.9434L67.3281 56.0654Z" stroke="black" stroke-opacity="0.01"/>
<path d="M99.3953 63.2896C102.371 63.2896 104.784 60.8771 104.784 57.9011C104.784 54.9252 102.371 52.5127 99.3953 52.5127C96.4193 52.5127 94.0068 54.9252 94.0068 57.9011C94.0068 60.8771 96.4193 63.2896 99.3953 63.2896Z" fill="#A2E62E"/>
<path d="M99.3955 53.0127C102.095 53.0128 104.284 55.2016 104.284 57.9014C104.284 60.601 102.095 62.7899 99.3955 62.79C96.6958 62.79 94.507 60.6011 94.5068 57.9014C94.5068 55.2016 96.6957 53.0127 99.3955 53.0127Z" stroke="black" stroke-opacity="0.01"/>
<path d="M100.568 52.6426C101.197 53.5444 101.534 54.6177 101.533 55.7173C101.533 58.6932 99.1202 61.1057 96.1442 61.1057C95.7413 61.1057 95.3493 61.0601 94.9717 60.9763C95.9451 62.3743 97.5631 63.29 99.3958 63.29C102.372 63.29 104.784 60.8775 104.784 57.9016C104.784 55.3285 102.98 53.1781 100.568 52.6426Z" fill="#97D729"/>
<path d="M101.618 53.5488C103.2 54.3579 104.284 56.0028 104.284 57.9014C104.284 60.6012 102.095 62.79 99.3955 62.79C98.1767 62.79 97.0633 62.3424 96.207 61.6035C99.3287 61.5709 101.869 59.111 102.025 56.0205L102.032 55.7168C102.033 54.9702 101.891 54.2352 101.618 53.5488Z" stroke="black" stroke-opacity="0.01"/>
<path d="M62.9155 80.0992L60.6708 77.8545C60.5727 77.7564 60.5176 77.6234 60.5176 77.4846C60.5176 77.3459 60.5727 77.2128 60.6708 77.1147L62.9155 74.87C63.0136 74.7719 63.1467 74.7168 63.2854 74.7168C63.4241 74.7168 63.5572 74.7719 63.6553 74.87L65.9 77.1147C65.9981 77.2128 66.0532 77.3459 66.0532 77.4846C66.0532 77.6234 65.9981 77.7564 65.9 77.8545L63.6553 80.0992C63.5572 80.1973 63.4241 80.2524 63.2854 80.2524C63.1467 80.2524 63.0136 80.1973 62.9155 80.0992Z" fill="#FFE177"/>
<path d="M63.2852 75.2168L63.3018 75.2236L65.5469 77.4678C65.5512 77.4721 65.5527 77.4783 65.5527 77.4844L65.5469 77.501L63.3018 79.7451C63.2974 79.7495 63.2913 79.752 63.2852 79.752C63.2791 79.7519 63.2729 79.7494 63.2686 79.7451H63.2676L61.0244 77.501C61.0201 77.4966 61.0176 77.4905 61.0176 77.4844L61.0244 77.4678L63.2686 75.2236C63.2728 75.2193 63.2791 75.2169 63.2852 75.2168Z" stroke="black" stroke-opacity="0.01"/>
<path d="M105.802 95.4955H55.4112C55.1978 95.4955 54.9931 95.5803 54.8422 95.7312C54.6912 95.8821 54.6064 96.0869 54.6064 96.3003V100.52C54.6064 100.734 54.6912 100.938 54.8422 101.089C54.9931 101.24 55.1978 101.325 55.4112 101.325H105.802C106.015 101.325 106.22 101.24 106.371 101.089C106.522 100.938 106.606 100.734 106.606 100.52V96.3003C106.606 96.0869 106.522 95.8821 106.371 95.7312C106.22 95.5803 106.015 95.4955 105.802 95.4955ZM90.2973 70.9505L86.3123 68.499V79.1462H89.9306C90.1162 79.1462 90.2943 79.0724 90.4256 78.9411C90.5569 78.8098 90.6306 78.6318 90.6306 78.4461V71.5467C90.6306 71.4271 90.5999 71.3096 90.5416 71.2052C90.4832 71.1008 90.3991 71.0131 90.2973 70.9505Z" stroke="black" stroke-opacity="0.01" stroke-width="15" stroke-miterlimit="10" stroke-linecap="round" stroke-linejoin="round"/>
<path d="M80.5963 70.0188C81.8965 70.0188 82.9504 68.9648 82.9504 67.6647C82.9504 66.3645 81.8965 65.3105 80.5963 65.3105C79.2962 65.3105 78.2422 66.3645 78.2422 67.6647C78.2422 68.9648 79.2962 70.0188 80.5963 70.0188Z" stroke="black" stroke-opacity="0.01" stroke-width="15" stroke-miterlimit="10" stroke-linecap="round" stroke-linejoin="round"/>
<path d="M91.5227 62.4832C91.2043 63.2798 91.1615 63.872 91.4537 64.1642C92.3796 65.0901 96.31 62.6606 100.233 58.738C104.155 54.8154 106.585 50.885 105.659 49.9591C105.332 49.6322 104.63 49.7246 103.685 50.153M74.8803 75.5439V80.7466C74.8803 81.4481 75.449 82.0169 76.1506 82.0169H85.0424C85.7439 82.0169 86.3127 81.4481 86.3127 80.7466V65.6369C86.3127 63.9865 85.8403 62.3706 84.9512 60.9802L81.1316 55.0059C80.8818 54.6152 80.3112 54.6152 80.0614 55.0059L76.2417 60.9802C75.3527 62.3707 74.8803 63.9865 74.8803 65.6369V71.8819M61.3553 88.6547H58.4079C58.2692 88.6547 58.1361 88.7098 58.038 88.8079C57.9399 88.906 57.8848 89.0391 57.8848 89.1778V95.4954H103.329V89.1778C103.329 89.0391 103.274 88.906 103.176 88.8079C103.077 88.7098 102.944 88.6547 102.806 88.6547H87.3116C83.6087 88.6547 80.6068 91.6565 80.6068 95.3595C80.6068 91.6565 77.6049 88.6547 73.9019 88.6547H65.0172M66.5411 53.584L67.7673 55.8258C67.8063 55.8972 67.8649 55.9558 67.9363 55.9948L70.1781 57.2209C70.473 57.3822 70.473 57.8057 70.1781 57.967L67.9363 59.1932C67.8649 59.2322 67.8063 59.2908 67.7673 59.3621L66.5411 61.604C66.3799 61.8988 65.9564 61.8988 65.795 61.604L64.5689 59.3621C64.5299 59.2908 64.4713 59.2322 64.3999 59.1932L62.1581 57.967C61.8632 57.8058 61.8632 57.3823 62.1581 57.2209L64.3999 55.9948C64.4713 55.9558 64.5299 55.8972 64.5689 55.8258L65.795 53.584C65.9564 53.289 66.3799 53.289 66.5411 53.584ZM99.7512 75.6443L100.888 77.7232C100.924 77.7893 100.979 77.8437 101.045 77.8799L103.124 79.0169C103.397 79.1664 103.397 79.5592 103.124 79.7087L101.045 80.8457C100.979 80.8819 100.924 80.9363 100.888 81.0024L99.7512 83.0813C99.6017 83.3548 99.209 83.3548 99.0595 83.0813L97.9225 81.0024C97.8862 80.9363 97.8319 80.8819 97.7657 80.8457L95.6869 79.7087C95.4134 79.5592 95.4134 79.1664 95.6869 79.0169L97.7657 77.8799C97.8319 77.8437 97.8862 77.7893 97.9225 77.7232L99.0595 75.6443C99.209 75.3709 99.6016 75.3709 99.7512 75.6443ZM62.9162 80.0989L60.6715 77.8543C60.5734 77.7562 60.5183 77.6231 60.5183 77.4843C60.5183 77.3456 60.5734 77.2125 60.6715 77.1144L62.9162 74.8698C63.0143 74.7716 63.1474 74.7165 63.2861 74.7165C63.4249 74.7165 63.5579 74.7716 63.656 74.8698L65.9007 77.1144C65.9988 77.2125 66.0539 77.3456 66.0539 77.4843C66.0539 77.6231 65.9988 77.7562 65.9007 77.8543L63.656 80.0989C63.5579 80.197 63.4249 80.2521 63.2861 80.2521C63.1474 80.2521 63.0143 80.197 62.9162 80.0989Z" stroke="black" stroke-opacity="0.01" stroke-width="15" stroke-miterlimit="10" stroke-linecap="round" stroke-linejoin="round"/>
<path d="M94.0555 57.1863C94.0235 57.4233 94.0073 57.662 94.0068 57.9011C94.0068 60.8771 96.4193 63.2896 99.3953 63.2896C102.371 63.2896 104.784 60.8771 104.784 57.9011C104.784 54.9252 102.371 52.5127 99.3953 52.5127C97.9884 52.5127 96.708 53.0523 95.7484 53.9352" stroke="black" stroke-opacity="0.01" stroke-width="15" stroke-miterlimit="10" stroke-linecap="round" stroke-linejoin="round"/>
<path d="M74.8798 68.4992L70.8948 70.9507C70.7929 71.0133 70.7088 71.101 70.6505 71.2054C70.5922 71.3098 70.5615 71.4274 70.5615 71.5469V78.4463C70.5615 78.632 70.6353 78.81 70.7666 78.9413C70.8979 79.0726 71.0759 79.1464 71.2616 79.1464H74.8798M76.2412 60.9805H84.9508" stroke="black" stroke-opacity="0.01" stroke-width="15" stroke-miterlimit="10" stroke-linejoin="round"/>
<defs>
<filter id="filter0_f_88_3723" x="0.149414" y="0.322266" width="154.135" height="154.135" filterUnits="userSpaceOnUse" color-interpolation-filters="sRGB">
<feFlood flood-opacity="0" result="BackgroundImageFix"/>
<feBlend mode="normal" in="SourceGraphic" in2="BackgroundImageFix" result="shape"/>
<feGaussianBlur stdDeviation="25" result="effect1_foregroundBlur_88_3723"/>
</filter>
<linearGradient id="paint0_linear_88_3723" x1="80.6064" y1="31.1748" x2="80.6064" y2="119.913" gradientUnits="userSpaceOnUse">
<stop stop-color="white" stop-opacity="0.2"/>
<stop offset="1" stop-color="white" stop-opacity="0.05"/>
</linearGradient>
<radialGradient id="paint1_radial_88_3723" cx="0" cy="0" r="1" gradientUnits="userSpaceOnUse" gradientTransform="translate(77.2167 77.3895) rotate(90) scale(27.0673)">
<stop stop-color="#EBDBDC"/>
<stop offset="1" stop-color="#F84452"/>
</radialGradient>
</defs>
</svg>
