<svg width="17" height="13" viewBox="0 0 17 13" fill="none" xmlns="http://www.w3.org/2000/svg">
<path d="M16.2711 6.26108L11.4713 0.928034C11.3689 0.814973 11.226 0.750977 11.0746 0.750977H7.87472C7.7717 0.751088 7.67091 0.780939 7.58444 0.836944C7.49797 0.892949 7.42951 0.972726 7.38728 1.06669C7.30196 1.25975 7.33715 1.4848 7.47795 1.64053L11.9566 6.61733L7.47795 11.5931C7.33715 11.7498 7.30089 11.9749 7.38728 12.1669C7.47368 12.3599 7.6646 12.4837 7.87472 12.4837H11.0746C11.226 12.4837 11.3689 12.4186 11.4713 12.3077L16.2711 6.97464C16.4535 6.77198 16.4535 6.46267 16.2711 6.26108Z" fill="url(#paint0_linear_80_3576)"/>
<path d="M9.33845 6.26108L4.53871 0.928034C4.43632 0.814973 4.29339 0.750977 4.14193 0.750977H0.942107C0.839088 0.751088 0.73829 0.780939 0.651823 0.836944C0.565356 0.892949 0.496897 0.972726 0.454667 1.06669C0.369338 1.25975 0.404536 1.4848 0.545329 1.64053L5.02402 6.61733L0.545329 11.5931C0.404536 11.7498 0.368272 11.9749 0.454667 12.1669C0.541062 12.3599 0.731985 12.4837 0.942107 12.4837H4.14193C4.29339 12.4837 4.43632 12.4186 4.53871 12.3077L9.33845 6.97464C9.52084 6.77198 9.52084 6.46267 9.33845 6.26108Z" fill="url(#paint1_linear_80_3576)"/>
<defs>
<linearGradient id="paint0_linear_80_3576" x1="11.8743" y1="0.750977" x2="11.8743" y2="12.4837" gradientUnits="userSpaceOnUse">
<stop stop-color="#1824E4"/>
<stop offset="1" stop-color="#33EAFF"/>
</linearGradient>
<linearGradient id="paint1_linear_80_3576" x1="4.94172" y1="0.750977" x2="4.94172" y2="12.4837" gradientUnits="userSpaceOnUse">
<stop stop-color="#1824E4"/>
<stop offset="1" stop-color="#33EAFF"/>
</linearGradient>
</defs>
</svg>
