<svg width="155" height="155" viewBox="0 0 155 155" fill="none" xmlns="http://www.w3.org/2000/svg">
<g filter="url(#filter0_f_794_644)">
<circle cx="77.5223" cy="77.411" r="27.0673" fill="url(#paint0_radial_794_644)"/>
</g>
<rect x="25.8828" y="31.668" width="109.941" height="88.738" rx="9" fill="url(#paint1_linear_794_644)"/>
<path d="M59.8535 75.54H55.8535V69.3865C55.8536 69.2848 55.8846 69.1854 55.9426 69.1018C56.0006 69.0182 56.0827 68.9542 56.178 68.9185L59.178 67.7935C59.2536 67.7652 59.335 67.7556 59.4152 67.7655C59.4953 67.7755 59.5719 67.8047 59.6383 67.8507C59.7047 67.8967 59.7589 67.9581 59.7964 68.0297C59.8339 68.1012 59.8535 68.1808 59.8535 68.2615V75.54Z" fill="#C5C2FF"/>
<path d="M66.8535 71.0391V102.039H53.8535V75.0391L66.8535 71.0391Z" fill="#5A7AED"/>
<path d="M66.8535 71.0391V76.0391L66.3635 76.1891L53.8535 80.0391V75.0391L66.8535 71.0391Z" fill="#ECEAFD"/>
<path d="M65.1425 80.7956L58.206 82.9306C58.1039 82.9621 58.0145 83.0255 57.9511 83.1116C57.8877 83.1976 57.8535 83.3017 57.8535 83.4086V86.1321C57.8535 86.2103 57.8719 86.2875 57.9071 86.3573C57.9423 86.4272 57.9935 86.4878 58.0564 86.5343C58.1193 86.5808 58.1923 86.6119 58.2694 86.625C58.3466 86.6382 58.4257 86.6331 58.5005 86.6101L64.175 84.8636C64.541 84.7511 64.896 85.0741 64.813 85.4476C64.6351 86.2513 64.4425 87.0518 64.2355 87.8486C64.192 88.0139 64.107 88.1655 63.9885 88.2888C63.8701 88.4121 63.722 88.503 63.5585 88.5531L58.2065 90.2006C58.1044 90.232 58.015 90.2953 57.9515 90.3812C57.8879 90.4672 57.8536 90.5712 57.8535 90.6781V93.3616C57.8535 93.4398 57.8719 93.517 57.9071 93.5868C57.9423 93.6567 57.9935 93.7173 58.0564 93.7638C58.1193 93.8103 58.1923 93.8414 58.2694 93.8545C58.3466 93.8677 58.4257 93.8626 58.5005 93.8396L60.787 93.1361C61.605 92.8846 62.3435 93.7126 61.999 94.4956C60.089 98.8391 57.4595 102.039 53.8535 102.039H66.8535V71.0391C66.8535 71.0391 66.629 74.9516 65.837 79.9956C65.8077 80.1805 65.727 80.3535 65.6043 80.495C65.4815 80.6364 65.3215 80.7405 65.1425 80.7956Z" fill="#3762DB"/>
<path d="M66.8533 71.0391V76.0391L66.3633 76.1891C66.7333 73.1141 66.8533 71.0391 66.8533 71.0391ZM90.8533 50.0391V102.039H66.8533V58.5391L90.8533 50.0391Z" fill="#C5C2FF"/>
<path d="M90.8535 55.0391V59.0391L72.3535 65.5891V61.5891L90.8535 55.0391ZM90.8535 63.4891V67.4891L72.3535 74.0391V70.0391L90.8535 63.4891ZM90.8535 71.9391V75.9391L72.3535 82.4891V78.4891L90.8535 71.9391ZM90.8535 80.5391V84.5391L72.3535 91.0891V87.0891L90.8535 80.5391ZM83.3535 91.3541V102.039H74.3535V94.5391L78.3535 93.1241L79.3535 92.7691L83.3535 91.3541Z" fill="#789AF9"/>
<path d="M79.3535 92.7695V102.04H78.3535V93.1245L79.3535 92.7695Z" fill="#5A7AED"/>
<path d="M90.8535 50.0391L98.3535 57.5391V102.039H90.8535V50.0391Z" fill="#ECEAFD"/>
<path d="M103.854 74.5391V102.039H90.8535V78.5391L103.854 74.5391Z" fill="#5A7AED"/>
<path d="M94.353 83.2139C94.1739 83.2128 94.0011 83.1478 93.8658 83.0306C93.7304 82.9133 93.6414 82.7516 93.6148 82.5745C93.5882 82.3974 93.6257 82.2167 93.7206 82.0648C93.8156 81.913 93.9616 81.8 94.1325 81.7464L100.132 79.9004C100.323 79.8419 100.528 79.8612 100.704 79.9543C100.88 80.0474 101.012 80.2065 101.07 80.3967C101.129 80.5868 101.109 80.7924 101.016 80.9683C100.923 81.1442 100.764 81.2759 100.574 81.3344L94.574 83.1804C94.5024 83.2025 94.4279 83.2138 94.353 83.2139ZM94.353 87.7904C94.1739 87.7893 94.0011 87.7243 93.8658 87.6071C93.7304 87.4898 93.6414 87.3281 93.6148 87.151C93.5882 86.9739 93.6257 86.7932 93.7206 86.6413C93.8156 86.4895 93.9616 86.3765 94.1325 86.3229L100.132 84.4769C100.323 84.4184 100.528 84.4377 100.704 84.5308C100.88 84.6239 101.012 84.783 101.07 84.9732C101.129 85.1633 101.109 85.3689 101.016 85.5448C100.923 85.7207 100.764 85.8524 100.574 85.9109L94.574 87.7569C94.5024 87.7792 94.4279 87.7905 94.353 87.7904ZM94.353 92.3674C94.1739 92.3663 94.0011 92.3013 93.8658 92.1841C93.7304 92.0668 93.6414 91.9051 93.6148 91.728C93.5882 91.5509 93.6257 91.3702 93.7206 91.2183C93.8156 91.0665 93.9616 90.9535 94.1325 90.8999L100.132 89.0539C100.323 88.9954 100.528 89.0147 100.704 89.1078C100.88 89.2009 101.012 89.36 101.07 89.5502C101.129 89.7403 101.109 89.9459 101.016 90.1218C100.923 90.2977 100.764 90.4294 100.574 90.4879L94.574 92.3339C94.5024 92.3562 94.4279 92.3675 94.353 92.3674Z" fill="#ECEAFD"/>
<path d="M108.854 79.0391V102.039H103.854V74.5391L108.854 79.0391Z" fill="#789AF9"/>
<path d="M59.8535 100.039V102.039H50.8535V99.0391C50.8535 97.3841 52.1985 96.0391 53.8535 96.0391C55.2735 96.0391 56.4685 97.0291 56.7735 98.3591C57.0947 98.1496 57.47 98.0383 57.8535 98.0391C58.9585 98.0391 59.8535 98.9341 59.8535 100.039ZM101.854 100.039V102.039H110.854V99.0391C110.854 97.3841 109.509 96.0391 107.854 96.0391C106.434 96.0391 105.239 97.0291 104.934 98.3591C104.612 98.1496 104.237 98.0383 103.854 98.0391C102.749 98.0391 101.854 98.9341 101.854 100.039Z" fill="#A3BF91"/>
<defs>
<filter id="filter0_f_794_644" x="0.455078" y="0.34375" width="154.135" height="154.133" filterUnits="userSpaceOnUse" color-interpolation-filters="sRGB">
<feFlood flood-opacity="0" result="BackgroundImageFix"/>
<feBlend mode="normal" in="SourceGraphic" in2="BackgroundImageFix" result="shape"/>
<feGaussianBlur stdDeviation="25" result="effect1_foregroundBlur_794_644"/>
</filter>
<radialGradient id="paint0_radial_794_644" cx="0" cy="0" r="1" gradientUnits="userSpaceOnUse" gradientTransform="translate(77.5223 77.411) rotate(90) scale(27.0673)">
<stop stop-color="#EBDBDC"/>
<stop offset="1" stop-color="#5A7AED"/>
</radialGradient>
<linearGradient id="paint1_linear_794_644" x1="80.8535" y1="31.668" x2="80.8535" y2="120.406" gradientUnits="userSpaceOnUse">
<stop stop-color="white" stop-opacity="0.2"/>
<stop offset="1" stop-color="white" stop-opacity="0.05"/>
</linearGradient>
</defs>
</svg>
