<svg width="134" height="134" viewBox="0 0 134 134" fill="none" xmlns="http://www.w3.org/2000/svg">
<g filter="url(#filter0_f_103_3727)">
<circle cx="66.93" cy="67.0442" r="16.345" fill="url(#paint0_radial_103_3727)"/>
</g>
<path d="M91.7382 75.7074V89.1867C91.7382 89.8235 91.0571 90.2589 90.429 90.0248C87.4082 88.9006 84.3236 88.3391 81.2382 88.3391C77.9586 88.3391 74.6799 88.974 71.4788 90.2448C71.243 90.3384 70.9921 90.389 70.7383 90.389C70.4843 90.389 70.2334 90.3384 69.9974 90.2448C63.7854 87.7797 57.2782 87.7063 51.0474 90.0249C50.4193 90.2588 49.7383 89.8234 49.7383 89.1867V75.7074C49.7383 75.2489 50.0263 74.8317 50.4752 74.6535C53.6781 73.3819 56.9572 72.7471 60.2373 72.7471C63.7697 72.7471 67.3031 73.484 70.7382 74.9579C77.3648 72.1152 84.3507 72.014 91.0013 74.6535C91.4502 74.8317 91.7382 75.2489 91.7382 75.7074Z" fill="url(#paint1_linear_103_3727)"/>
<path d="M90.429 88.1779C87.4082 87.0538 84.3236 86.4922 81.2382 86.4922C77.9586 86.4922 74.6799 87.1271 71.4788 88.3979C71.243 88.4915 70.9921 88.5421 70.7383 88.5421C70.4843 88.5421 70.2334 88.4915 69.9974 88.3979C63.7854 85.9328 57.2782 85.8595 51.0474 88.178C50.4193 88.4121 49.7383 87.9766 49.7383 87.3399V89.186C49.7383 89.8228 50.4193 90.2582 51.0474 90.0241C57.2783 87.7056 63.7854 87.7789 69.9975 90.2441C70.2335 90.3377 70.4845 90.3883 70.7384 90.3883C70.9922 90.3883 71.2431 90.3377 71.4789 90.2441C74.6799 88.9733 77.9587 88.3384 81.2383 88.3384C84.3237 88.3384 87.4083 88.8999 90.4291 90.0241C91.0572 90.2582 91.7383 89.8228 91.7383 89.186V87.3399C91.7382 87.9766 91.0571 88.4121 90.429 88.1779Z" fill="url(#paint2_linear_103_3727)"/>
<path d="M90.5331 75.226V86.3873C90.5331 87.0241 89.8915 87.4595 89.2991 87.2254C86.4516 86.1012 83.5444 85.5396 80.6361 85.5396C77.8314 85.5396 75.0274 86.062 72.2774 87.1083C71.7854 87.2955 71.2647 87.3969 70.7383 87.3969C70.2111 87.3969 69.6901 87.2951 69.1973 87.1077C63.5974 84.9783 57.7697 85.0178 52.1773 87.2253C51.5849 87.4594 50.9434 87.024 50.9434 86.3872V75.226C50.9434 74.7674 51.215 74.3503 51.6379 74.1721C54.6569 72.9005 57.7491 72.2657 60.8404 72.2657C64.1705 72.2657 67.4996 73.0026 70.7383 74.4765C76.9843 71.6337 83.5694 71.5326 89.8386 74.1721C90.2614 74.3504 90.5331 74.7675 90.5331 75.226Z" fill="url(#paint3_linear_103_3727)"/>
<path d="M90.5331 75.226V86.3873C90.5331 87.0241 89.8915 87.4595 89.2991 87.2254C86.4516 86.1012 83.5444 85.5396 80.6361 85.5396C77.8314 85.5396 75.0274 86.062 72.2774 87.1083C71.7854 87.2955 71.2647 87.3969 70.7383 87.3969C70.2111 87.3969 69.6901 87.2951 69.1973 87.1077C63.5974 84.9783 57.7697 85.0178 52.1773 87.2253C51.5849 87.4594 50.9434 87.024 50.9434 86.3872V75.226C50.9434 74.7674 51.215 74.3503 51.6379 74.1721C54.6569 72.9005 57.7491 72.2657 60.8404 72.2657C64.1705 72.2657 67.4996 73.0026 70.7383 74.4765C76.9843 71.6337 83.5694 71.5326 89.8386 74.1721C90.2614 74.3504 90.5331 74.7675 90.5331 75.226Z" fill="url(#paint4_linear_103_3727)"/>
<path d="M90.5331 74.4741V85.6354C90.5331 86.2721 89.8915 86.7075 89.2991 86.4735C86.4516 85.3493 83.5444 84.7877 80.6361 84.7877C77.8314 84.7877 75.0274 85.3101 72.2774 86.3564C71.7854 86.5435 71.2647 86.6449 70.7383 86.6449C70.2111 86.6449 69.6901 86.5431 69.1973 86.3558C63.5974 84.2264 57.7697 84.2658 52.1773 86.4734C51.5849 86.7074 50.9434 86.272 50.9434 85.6353V74.474C50.9434 74.0155 51.215 73.5983 51.6379 73.4201C54.6569 72.1485 57.7491 71.5137 60.8404 71.5137C64.1705 71.5137 67.4996 72.2506 70.7383 73.7245C76.9843 70.8818 83.5694 70.7806 89.8386 73.4201C90.2614 73.5984 90.5331 74.0155 90.5331 74.4741Z" fill="url(#paint5_linear_103_3727)"/>
<path d="M50.9434 73.8969V85.0582C50.9434 85.695 51.5849 86.1304 52.1773 85.8962C55.0248 84.772 57.9321 84.2105 60.8403 84.2105C63.645 84.2105 66.449 84.7328 69.199 85.7791C69.6911 85.9663 70.2117 86.0677 70.7382 86.0677C71.2653 86.0677 71.7864 85.9659 72.2791 85.7785C77.8791 83.6492 83.7068 83.6886 89.2991 85.8961C89.8915 86.1302 90.5331 85.6948 90.5331 85.0581V73.8969C90.5331 73.4383 90.2614 73.0212 89.8385 72.843C86.8195 71.5714 83.7273 70.9366 80.6361 70.9366C77.306 70.9366 73.9768 71.6735 70.7382 73.1474C64.4921 70.3046 57.907 70.2035 51.6378 72.843C51.215 73.0213 50.9434 73.4384 50.9434 73.8969Z" fill="url(#paint6_linear_103_3727)"/>
<path d="M51.6375 71.8951C51.215 72.073 50.9434 72.4905 50.9434 72.9489V84.1099C50.9434 84.7469 51.5853 85.1823 52.1777 84.9483C58.285 82.5364 64.6722 82.7116 70.7382 85.4729V72.1993C64.4928 69.3567 57.9078 69.2548 51.6375 71.8951Z" fill="url(#paint7_linear_103_3727)"/>
<path d="M89.8389 71.8952C83.5693 69.2553 76.9844 69.3561 70.7383 72.1993V85.4729C76.805 82.7112 83.1922 82.5368 89.2987 84.9484C89.8912 85.1824 90.5331 84.747 90.5331 84.11V72.949C90.5332 72.4904 90.2614 72.0731 89.8389 71.8952Z" fill="url(#paint8_linear_103_3727)"/>
<path d="M52.8871 73.6767C52.4922 73.843 52.2383 74.2331 52.2383 74.6615V84.1984C52.2383 84.7937 52.8382 85.2007 53.392 84.9819C59.0998 82.7278 65.0693 82.8915 70.7387 85.4722V73.9609C64.9017 71.3043 58.7474 71.2089 52.8871 73.6767Z" fill="url(#paint9_linear_103_3727)"/>
<path d="M53.9197 74.0274C55.6639 73.4094 57.4268 73.0247 59.1967 72.8737C59.3612 72.8596 59.502 72.9911 59.502 73.1561V73.829C59.5018 73.8998 59.4751 73.9681 59.427 74.0202C59.379 74.0723 59.3131 74.1045 59.2425 74.1104C57.5212 74.2622 55.8069 74.6497 54.1106 75.2721C53.9265 75.3396 53.7315 75.2026 53.7315 75.0064V74.2949C53.7315 74.2363 53.7495 74.1792 53.7832 74.1313C53.8169 74.0834 53.8646 74.0471 53.9197 74.0274ZM63.8822 73.2683V73.9433C63.8822 74.1144 63.7313 74.2474 63.5619 74.2235C62.566 74.083 61.5605 74.0218 60.5549 74.0404C60.3958 74.0434 60.2646 73.9168 60.2646 73.7577V73.0885C60.2646 72.9348 60.3873 72.8079 60.5409 72.8051C61.5766 72.7863 62.6121 72.8473 63.6384 72.9874C63.7061 72.9969 63.7681 73.0306 63.8129 73.0822C63.8577 73.1338 63.8824 73.1999 63.8822 73.2683ZM67.3617 74.051V74.7539C67.3617 74.9454 67.1749 75.0826 66.9928 75.0231C66.2958 74.795 65.587 74.6048 64.8694 74.4533C64.8058 74.4401 64.7487 74.4055 64.7076 74.3552C64.6666 74.3048 64.6441 74.2419 64.644 74.177V73.4924C64.644 73.3143 64.8067 73.1791 64.9812 73.2147C65.7183 73.3651 66.447 73.554 67.1643 73.7806C67.2217 73.7989 67.2717 73.835 67.3072 73.8836C67.3426 73.9322 67.3617 73.9908 67.3617 74.051ZM53.9196 76.6291C54.3869 76.4636 54.8597 76.3138 55.3371 76.18C55.5182 76.1292 55.698 76.264 55.698 76.4521V77.1488C55.698 77.2102 55.6779 77.2698 55.6409 77.3188C55.6039 77.3677 55.552 77.4033 55.4931 77.4201C55.027 77.5549 54.5658 77.706 54.1103 77.873C53.9263 77.9405 53.7315 77.8032 53.7315 77.6073V76.8964C53.7314 76.8379 53.7495 76.7808 53.7831 76.7329C53.8168 76.685 53.8645 76.6488 53.9196 76.6291ZM61.998 75.7034V76.3729C61.998 76.5331 61.8652 76.6623 61.7052 76.6555C61.3361 76.6401 60.9666 76.6354 60.5972 76.6414C59.3313 76.6625 58.0632 76.8117 56.8039 77.0869C56.6272 77.1255 56.4606 76.9889 56.4606 76.8081V76.1264C56.4605 76.0616 56.4827 75.9987 56.5234 75.9482C56.5641 75.8978 56.6209 75.8628 56.6843 75.8491C57.9762 75.5762 59.2763 75.4278 60.5766 75.406C60.9602 75.3993 61.3444 75.404 61.7282 75.42C61.8793 75.4264 61.998 75.5522 61.998 75.7034ZM67.3617 76.6525V77.3548C67.3617 77.5464 67.1748 77.6834 66.9926 77.6239C65.6783 77.195 64.3478 76.9048 63.0134 76.7559C62.9441 76.7485 62.8799 76.7157 62.8333 76.6639C62.7866 76.6121 62.7607 76.5448 62.7606 76.4751V75.8018C62.7606 75.6344 62.9053 75.5023 63.0717 75.5201C64.4439 75.6675 65.812 75.956 67.1643 76.3821C67.2217 76.4004 67.2717 76.4365 67.3071 76.4851C67.3426 76.5337 67.3617 76.5923 67.3617 76.6525ZM53.9197 79.2305C55.6571 78.6152 57.4246 78.2294 59.197 78.0783C59.3613 78.0643 59.5019 78.1955 59.5019 78.3605V79.0327C59.5018 79.1036 59.475 79.1719 59.4269 79.224C59.3789 79.2762 59.313 79.3083 59.2423 79.3142C57.5195 79.4661 55.8006 79.8545 54.1104 80.4743C53.9264 80.5419 53.7314 80.4047 53.7314 80.2087V79.4979C53.7314 79.3781 53.8068 79.2705 53.9197 79.2305ZM67.3617 79.2533V79.9563C67.3617 80.1479 67.1749 80.285 66.9928 80.2256C64.8848 79.5376 62.737 79.208 60.5972 79.243L60.5535 79.2437C60.5158 79.2445 60.4784 79.2378 60.4434 79.224C60.4084 79.2101 60.3765 79.1894 60.3496 79.1631C60.3227 79.1368 60.3013 79.1054 60.2867 79.0707C60.2721 79.036 60.2645 78.9987 60.2645 78.9611V78.2913C60.2644 78.2172 60.2934 78.1461 60.3453 78.0932C60.3971 78.0403 60.4676 78.0098 60.5417 78.0084L60.5766 78.0078C62.7826 77.971 64.9941 78.2988 67.1643 78.983C67.2216 79.0012 67.2716 79.0373 67.3071 79.0859C67.3426 79.1345 67.3617 79.1931 67.3617 79.2533ZM53.9196 81.8313C54.387 81.666 54.8597 81.5163 55.337 81.3825C55.5181 81.3317 55.698 81.4666 55.698 81.6547V82.3513C55.698 82.4126 55.678 82.4722 55.641 82.5212C55.6041 82.5701 55.5522 82.6057 55.4933 82.6225C55.0272 82.7576 54.5659 82.9089 54.1103 83.0761C53.9263 83.1435 53.7315 83.0063 53.7315 82.8103V82.0987C53.7314 82.0402 53.7494 81.983 53.7831 81.9352C53.8168 81.8873 53.8645 81.851 53.9196 81.8313ZM63.8822 81.0726V81.7477C63.8822 81.9206 63.7288 82.0515 63.5577 82.0276C62.5771 81.8896 61.5873 81.8284 60.5972 81.8445C59.3313 81.8657 58.0632 82.0141 56.8039 82.2899C56.6272 82.3286 56.4606 82.192 56.4606 82.0111V81.3295C56.4606 81.1961 56.5537 81.0798 56.6842 81.0522C57.9762 80.7786 59.2763 80.631 60.5766 80.6091C61.6004 80.5925 62.624 80.6536 63.6386 80.7919C63.7062 80.8014 63.7682 80.835 63.813 80.8866C63.8577 80.9382 63.8824 81.0043 63.8822 81.0726Z" fill="#BEC3D2"/>
<path d="M89.2989 84.9484C89.8914 85.1823 90.5333 84.7469 90.5333 84.1099V72.9489C90.5333 72.4904 90.2616 72.0731 89.8391 71.8952C83.5695 69.2553 76.9846 69.3561 70.7384 72.1993C69.5755 71.67 68.4008 71.236 67.2186 70.8968L66.2672 73.5582C66.1776 73.8086 66.362 74.0512 66.5995 74.0672L76.2281 83.6958C80.5847 82.8386 85.0109 83.255 89.2989 84.9484Z" fill="url(#paint10_linear_103_3727)"/>
<path d="M90.1295 54.2691L86.043 50.1826L87.4673 48.7583C87.5687 48.6569 87.7017 48.5932 87.8444 48.5778C87.987 48.5625 88.1306 48.5963 88.2513 48.6738C89.6106 49.5463 90.7659 50.7015 91.6383 52.0609C91.7158 52.1816 91.7497 52.3252 91.7343 52.4678C91.7189 52.6104 91.6553 52.7435 91.5539 52.8449L90.1295 54.2691Z" fill="url(#paint11_linear_103_3727)"/>
<path d="M90.1296 54.2693L91.5539 52.845C91.587 52.8116 91.6163 52.7747 91.6412 52.7348C91.6245 52.6733 91.5986 52.6146 91.5643 52.5609C90.6919 51.2015 89.5366 50.0462 88.1771 49.1738C88.0564 49.0963 87.9129 49.0625 87.7703 49.0778C87.6277 49.0932 87.4946 49.1569 87.3932 49.2583L86.2559 50.3956L90.1296 54.2693Z" fill="url(#paint12_linear_103_3727)"/>
<path d="M91.639 52.0609C91.4912 51.8312 91.3352 51.607 91.1711 51.3887C91.1326 51.4883 91.0738 51.5788 90.9983 51.6544L89.2568 53.3959L90.1302 54.2692L91.5545 52.8449C91.6559 52.7435 91.7196 52.6104 91.7349 52.4678C91.7503 52.3252 91.7164 52.1816 91.639 52.0609Z" fill="url(#paint13_linear_103_3727)"/>
<path d="M88.0611 56.7635L90.4667 54.3579C90.489 54.3357 90.5067 54.3092 90.5187 54.2801C90.5308 54.251 90.537 54.2198 90.537 54.1883C90.537 54.1568 90.5308 54.1256 90.5187 54.0965C90.5067 54.0674 90.489 54.041 90.4667 54.0187L86.2936 49.8457C86.2714 49.8234 86.2449 49.8057 86.2158 49.7937C86.1867 49.7816 86.1555 49.7754 86.124 49.7754C86.0925 49.7754 86.0613 49.7816 86.0322 49.7937C86.0031 49.8057 85.9767 49.8234 85.9544 49.8457L83.5488 52.2513L88.0611 56.7635Z" fill="url(#paint14_linear_103_3727)"/>
<path d="M84.7607 51.037V60.0646L89.2799 55.5485L84.7646 51.0332L84.7607 51.037Z" fill="url(#paint15_linear_103_3727)"/>
<path d="M89.1352 55.4467L84.8664 51.1779C84.7667 51.0746 84.7116 50.9363 84.7129 50.7927C84.7142 50.6492 84.7718 50.5119 84.8733 50.4104C84.9748 50.3089 85.1121 50.2513 85.2556 50.25C85.3991 50.2487 85.5374 50.3038 85.6408 50.4035L89.9096 54.6723C90.0092 54.7756 90.0644 54.9139 90.0631 55.0575C90.0618 55.201 90.0042 55.3383 89.9027 55.4398C89.8012 55.5413 89.6639 55.5989 89.5204 55.6002C89.3768 55.6015 89.2385 55.5464 89.1352 55.4467Z" fill="url(#paint16_linear_103_3727)"/>
<path d="M68.5065 67.2937L66.2672 73.5579C66.1588 73.861 66.4516 74.1537 66.7546 74.0454L73.0188 71.806C74.2686 70.5563 69.7563 66.044 68.5065 67.2937Z" fill="url(#paint17_linear_103_3727)"/>
<path d="M69.5983 68.3313L66.3028 73.8381C66.2975 73.847 66.2936 73.8558 66.2891 73.8646C66.3727 74.0202 66.5611 74.1143 66.7542 74.0452L73.0184 71.8059C73.028 71.7963 73.0363 71.7858 73.0453 71.7758C73.4171 70.3152 70.8194 67.355 69.5983 68.3313Z" fill="url(#paint18_linear_103_3727)"/>
<path d="M88.442 56.3824L73.0182 71.8062C72.9569 71.7002 72.882 71.6028 72.7953 71.5164C72.2432 70.9643 71.3479 70.9643 70.7958 71.5164C70.771 71.5412 70.8672 71.4391 70.8672 71.4391C71.3468 70.8837 71.323 70.0441 70.7954 69.5166C70.2679 68.989 69.4283 68.9652 68.8729 69.4449C68.8729 69.4449 68.7708 69.541 68.7957 69.5162C69.3478 68.9641 69.3478 68.0688 68.7957 67.5167C68.7092 67.4301 68.6118 67.3551 68.5059 67.2938L83.9297 51.8701L88.442 56.3824Z" fill="url(#paint19_linear_103_3727)"/>
<path d="M87.183 55.1232L70.8673 71.4389C71.3469 70.8835 71.3231 70.0439 70.7956 69.5164C70.268 68.9888 69.4284 68.965 68.873 69.4446L85.1888 53.1289L87.183 55.1232Z" fill="url(#paint20_linear_103_3727)"/>
<path d="M68.7959 69.5157C68.771 69.5406 68.8731 69.4444 68.8731 69.4444C69.4285 68.9648 70.2681 68.9886 70.7957 69.5161C71.3232 70.0437 71.3469 70.8832 70.8674 71.4386C70.8674 71.4386 70.7712 71.5408 70.7961 71.5159C71.3482 70.9638 72.2434 70.9638 72.7955 71.5159C72.8822 71.6023 72.9571 71.6998 73.0185 71.8057L88.4421 56.3818L84.4666 52.4062L69.0361 67.8367C69.3304 68.3735 69.2506 69.0609 68.7959 69.5157Z" fill="url(#paint21_linear_103_3727)"/>
<path d="M67.5316 72.7808C67.302 72.5509 67.0381 72.358 66.7493 72.209L66.2672 73.5578C66.1588 73.8608 66.4516 74.1536 66.7546 74.0452L68.1034 73.563C67.9544 73.2743 67.7615 73.0104 67.5316 72.7808Z" fill="url(#paint22_linear_103_3727)"/>
<path d="M83.2178 52.579L83.2284 61.599L87.7369 57.0905L83.2216 52.5752L83.2178 52.579Z" fill="url(#paint23_linear_103_3727)"/>
<path d="M87.5914 56.9897L83.3225 52.7209C83.2717 52.6701 83.2313 52.6097 83.2038 52.5433C83.1763 52.4768 83.1621 52.4056 83.1621 52.3337C83.1621 52.2618 83.1763 52.1906 83.2038 52.1242C83.2313 52.0577 83.2717 51.9974 83.3225 51.9465C83.3734 51.8957 83.4337 51.8553 83.5002 51.8278C83.5666 51.8003 83.6378 51.7861 83.7097 51.7861C83.7816 51.7861 83.8528 51.8003 83.9192 51.8278C83.9857 51.8553 84.046 51.8957 84.0969 51.9465L88.3657 56.2154C88.4654 56.3187 88.5205 56.457 88.5192 56.6005C88.5179 56.7441 88.4603 56.8813 88.3588 56.9828C88.2573 57.0843 88.12 57.1419 87.9765 57.1432C87.833 57.1445 87.6947 57.0894 87.5914 56.9897Z" fill="url(#paint24_linear_103_3727)"/>
<path d="M52.2902 66.9548H50.5663C50.109 66.9548 49.7383 66.5841 49.7383 66.1268C49.7383 65.6695 50.109 65.2988 50.5663 65.2988H52.2902C52.7475 65.2988 53.1182 65.6696 53.1182 66.1268C53.1183 66.5841 52.7475 66.9548 52.2902 66.9548Z" fill="url(#paint25_linear_103_3727)"/>
<path d="M67.9333 51.3117V49.5877C67.9333 49.1304 67.5625 48.7598 67.1053 48.7598C66.648 48.7598 66.2773 49.1305 66.2773 49.5877V51.3117C66.2773 51.769 66.648 52.1397 67.1053 52.1397C67.5625 52.1398 67.9333 51.769 67.9333 51.3117Z" fill="url(#paint26_linear_103_3727)"/>
<path d="M56.0435 56.236L54.8245 55.017C54.5012 54.6937 54.5012 54.1694 54.8245 53.846C55.1478 53.5227 55.6721 53.5227 55.9955 53.846L57.2146 55.0651C57.5379 55.3884 57.5379 55.9126 57.2146 56.236C56.8912 56.5594 56.3669 56.5594 56.0435 56.236Z" fill="url(#paint27_linear_103_3727)"/>
<path d="M78.1664 56.236L79.3855 55.017C79.7088 54.6937 79.7088 54.1694 79.3855 53.846C79.0621 53.5227 78.5378 53.5227 78.2145 53.846L76.9954 55.0651C76.6721 55.3884 76.6721 55.9126 76.9954 56.236C77.3187 56.5594 77.843 56.5594 78.1664 56.236Z" fill="url(#paint28_linear_103_3727)"/>
<defs>
<filter id="filter0_f_103_3727" x="0.584961" y="0.699219" width="132.69" height="132.69" filterUnits="userSpaceOnUse" color-interpolation-filters="sRGB">
<feFlood flood-opacity="0" result="BackgroundImageFix"/>
<feBlend mode="normal" in="SourceGraphic" in2="BackgroundImageFix" result="shape"/>
<feGaussianBlur stdDeviation="25" result="effect1_foregroundBlur_103_3727"/>
</filter>
<radialGradient id="paint0_radial_103_3727" cx="0" cy="0" r="1" gradientUnits="userSpaceOnUse" gradientTransform="translate(66.93 67.0442) rotate(90) scale(16.345)">
<stop stop-color="#EBDBDC"/>
<stop offset="1" stop-color="#FEBC33"/>
</radialGradient>
<linearGradient id="paint1_linear_103_3727" x1="49.7383" y1="72.7471" x2="91.7382" y2="72.7471" gradientUnits="userSpaceOnUse">
<stop stop-color="#FF7044"/>
<stop offset="1" stop-color="#F92814"/>
</linearGradient>
<linearGradient id="paint2_linear_103_3727" x1="49.7383" y1="86.4922" x2="91.7383" y2="86.4922" gradientUnits="userSpaceOnUse">
<stop stop-color="#F92814" stop-opacity="0"/>
<stop offset="1" stop-color="#C1272D"/>
</linearGradient>
<linearGradient id="paint3_linear_103_3727" x1="50.9434" y1="72.2656" x2="90.5331" y2="72.2656" gradientUnits="userSpaceOnUse">
<stop stop-color="#F9F7FC"/>
<stop offset="1" stop-color="#F0DDFC"/>
</linearGradient>
<linearGradient id="paint4_linear_103_3727" x1="50.9434" y1="72.2656" x2="90.5331" y2="72.2656" gradientUnits="userSpaceOnUse">
<stop stop-color="#F9F7FC"/>
<stop offset="1" stop-color="#F0DDFC"/>
</linearGradient>
<linearGradient id="paint5_linear_103_3727" x1="50.9434" y1="71.5137" x2="90.5331" y2="71.5137" gradientUnits="userSpaceOnUse">
<stop stop-color="#F0DDFC" stop-opacity="0"/>
<stop offset="0.289" stop-color="#C8B7E0" stop-opacity="0.289"/>
<stop offset="0.592" stop-color="#A595C8" stop-opacity="0.592"/>
<stop offset="0.84" stop-color="#8F81B8" stop-opacity="0.84"/>
<stop offset="1" stop-color="#8779B3"/>
</linearGradient>
<linearGradient id="paint6_linear_103_3727" x1="50.9434" y1="70.9365" x2="90.5331" y2="70.9365" gradientUnits="userSpaceOnUse">
<stop stop-color="#F0DDFC" stop-opacity="0"/>
<stop offset="0.289" stop-color="#C8B7E0" stop-opacity="0.289"/>
<stop offset="0.592" stop-color="#A595C8" stop-opacity="0.592"/>
<stop offset="0.84" stop-color="#8F81B8" stop-opacity="0.84"/>
<stop offset="1" stop-color="#8779B3"/>
</linearGradient>
<linearGradient id="paint7_linear_103_3727" x1="50.9434" y1="69.9883" x2="70.7382" y2="69.9883" gradientUnits="userSpaceOnUse">
<stop stop-color="#F9F7FC"/>
<stop offset="1" stop-color="#F0DDFC"/>
</linearGradient>
<linearGradient id="paint8_linear_103_3727" x1="70.7383" y1="69.9883" x2="90.5331" y2="69.9883" gradientUnits="userSpaceOnUse">
<stop stop-color="#F9F7FC"/>
<stop offset="1" stop-color="#F0DDFC"/>
</linearGradient>
<linearGradient id="paint9_linear_103_3727" x1="60.9279" y1="78.7454" x2="54.3626" y2="72.6714" gradientUnits="userSpaceOnUse">
<stop stop-color="#E9EDF5" stop-opacity="0"/>
<stop offset="1" stop-color="white"/>
</linearGradient>
<linearGradient id="paint10_linear_103_3727" x1="82.7728" y1="77.6707" x2="71.2983" y2="65.8668" gradientUnits="userSpaceOnUse">
<stop stop-color="#F0DDFC" stop-opacity="0"/>
<stop offset="0.161" stop-color="#E8D5F6" stop-opacity="0.161"/>
<stop offset="0.417" stop-color="#D1BFE6" stop-opacity="0.417"/>
<stop offset="0.733" stop-color="#AC9CCD" stop-opacity="0.733"/>
<stop offset="1" stop-color="#8779B3"/>
</linearGradient>
<linearGradient id="paint11_linear_103_3727" x1="86.043" y1="48.5742" x2="91.7379" y2="48.5742" gradientUnits="userSpaceOnUse">
<stop stop-color="#FF7044"/>
<stop offset="1" stop-color="#F92814"/>
</linearGradient>
<linearGradient id="paint12_linear_103_3727" x1="88.8994" y1="52.053" x2="89.2895" y2="47.6506" gradientUnits="userSpaceOnUse">
<stop stop-color="#FF7044" stop-opacity="0"/>
<stop offset="1" stop-color="#FFA425"/>
</linearGradient>
<linearGradient id="paint13_linear_103_3727" x1="89.2568" y1="51.3887" x2="91.7385" y2="51.3887" gradientUnits="userSpaceOnUse">
<stop stop-color="#F92814" stop-opacity="0"/>
<stop offset="1" stop-color="#C1272D"/>
</linearGradient>
<linearGradient id="paint14_linear_103_3727" x1="83.5488" y1="49.7754" x2="90.537" y2="49.7754" gradientUnits="userSpaceOnUse">
<stop stop-color="#F9F7FC"/>
<stop offset="1" stop-color="#F0DDFC"/>
</linearGradient>
<linearGradient id="paint15_linear_103_3727" x1="84.7607" y1="51.0332" x2="89.2799" y2="51.0332" gradientUnits="userSpaceOnUse">
<stop stop-color="#F0DDFC" stop-opacity="0"/>
<stop offset="0.289" stop-color="#C8B7E0" stop-opacity="0.289"/>
<stop offset="0.592" stop-color="#A595C8" stop-opacity="0.592"/>
<stop offset="0.84" stop-color="#8F81B8" stop-opacity="0.84"/>
<stop offset="1" stop-color="#8779B3"/>
</linearGradient>
<linearGradient id="paint16_linear_103_3727" x1="84.7129" y1="50.25" x2="90.0631" y2="50.25" gradientUnits="userSpaceOnUse">
<stop stop-color="#F9F7FC"/>
<stop offset="1" stop-color="#F0DDFC"/>
</linearGradient>
<linearGradient id="paint17_linear_103_3727" x1="66.7677" y1="69.0093" x2="71.2801" y2="73.5217" gradientUnits="userSpaceOnUse">
<stop stop-color="#FFDAAA"/>
<stop offset="0.421" stop-color="#FFD8A8"/>
<stop offset="0.652" stop-color="#FED1A0"/>
<stop offset="0.836" stop-color="#FDC592"/>
<stop offset="0.995" stop-color="#FCB47F"/>
<stop offset="1" stop-color="#FCB37E"/>
</linearGradient>
<linearGradient id="paint18_linear_103_3727" x1="69.722" y1="72.3055" x2="66.7499" y2="68.219" gradientUnits="userSpaceOnUse">
<stop stop-color="#FFDAAA" stop-opacity="0"/>
<stop offset="0.251" stop-color="#FFE7C8" stop-opacity="0.251"/>
<stop offset="0.554" stop-color="#FFF4E6" stop-opacity="0.554"/>
<stop offset="0.815" stop-color="#FFFCF8" stop-opacity="0.815"/>
<stop offset="1" stop-color="white"/>
</linearGradient>
<linearGradient id="paint19_linear_103_3727" x1="68.5059" y1="51.8701" x2="88.442" y2="51.8701" gradientUnits="userSpaceOnUse">
<stop stop-color="#FFDA45"/>
<stop offset="1" stop-color="#FFA425"/>
</linearGradient>
<linearGradient id="paint20_linear_103_3727" x1="68.873" y1="53.1289" x2="87.183" y2="53.1289" gradientUnits="userSpaceOnUse">
<stop stop-color="#FFDA45"/>
<stop offset="1" stop-color="#FFA425"/>
</linearGradient>
<linearGradient id="paint21_linear_103_3727" x1="79.0547" y1="63.6901" x2="75.3555" y2="57.4415" gradientUnits="userSpaceOnUse">
<stop stop-color="#FFDA45" stop-opacity="0"/>
<stop offset="1" stop-color="#FCEE21"/>
</linearGradient>
<linearGradient id="paint22_linear_103_3727" x1="66.8034" y1="73.2133" x2="67.9548" y2="74.3647" gradientUnits="userSpaceOnUse">
<stop stop-color="#7E8595"/>
<stop offset="1" stop-color="#555A66"/>
</linearGradient>
<linearGradient id="paint23_linear_103_3727" x1="83.8137" y1="59.3863" x2="87.1387" y2="50.2286" gradientUnits="userSpaceOnUse">
<stop stop-color="#FFDA45" stop-opacity="0"/>
<stop offset="1" stop-color="#B53759"/>
</linearGradient>
<linearGradient id="paint24_linear_103_3727" x1="83.1621" y1="51.7861" x2="88.5192" y2="51.7861" gradientUnits="userSpaceOnUse">
<stop stop-color="#F9F7FC"/>
<stop offset="1" stop-color="#F0DDFC"/>
</linearGradient>
<linearGradient id="paint25_linear_103_3727" x1="49.7383" y1="65.2988" x2="53.1182" y2="65.2988" gradientUnits="userSpaceOnUse">
<stop stop-color="#92F37F"/>
<stop offset="1" stop-color="#4AB272"/>
</linearGradient>
<linearGradient id="paint26_linear_103_3727" x1="66.2773" y1="48.7598" x2="67.9333" y2="48.7598" gradientUnits="userSpaceOnUse">
<stop stop-color="#92F37F"/>
<stop offset="1" stop-color="#4AB272"/>
</linearGradient>
<linearGradient id="paint27_linear_103_3727" x1="54.582" y1="53.6035" x2="57.457" y2="53.6035" gradientUnits="userSpaceOnUse">
<stop stop-color="#92F37F"/>
<stop offset="1" stop-color="#4AB272"/>
</linearGradient>
<linearGradient id="paint28_linear_103_3727" x1="76.7529" y1="53.6035" x2="79.6279" y2="53.6035" gradientUnits="userSpaceOnUse">
<stop stop-color="#92F37F"/>
<stop offset="1" stop-color="#4AB272"/>
</linearGradient>
</defs>
</svg>
