<svg width="155" height="155" viewBox="0 0 155 155" fill="none" xmlns="http://www.w3.org/2000/svg">
<rect x="25.5771" y="31.5127" width="109.941" height="88.738" rx="9" fill="url(#paint0_linear_88_3726)"/>
<g filter="url(#filter0_f_88_3726)">
<circle cx="77.2167" cy="77.663" r="27.0673" fill="url(#paint1_radial_88_3726)"/>
</g>
<path d="M105.681 92.8661V94.5995C105.679 95.0588 105.496 95.4988 105.172 95.8236C104.847 96.1484 104.407 96.3314 103.947 96.3328H84.0141C84.0141 97.0224 83.7401 97.6837 83.2525 98.1713C82.7649 98.6589 82.1036 98.9328 81.4141 98.9328H79.6807C78.9912 98.9328 78.3298 98.6589 77.8423 98.1713C77.3547 97.6837 77.0807 97.0224 77.0807 96.3328H57.1474C56.6881 96.3314 56.248 96.1484 55.9233 95.8236C55.5985 95.4988 55.4154 95.0588 55.4141 94.5995V92.8661C55.4154 92.4069 55.5985 91.9668 55.9233 91.642C56.248 91.3172 56.6881 91.1342 57.1474 91.1328H76.2141C77.3633 91.1328 78.4655 91.5894 79.2782 92.402C80.0909 93.2147 80.5474 94.3169 80.5474 95.4661C80.5474 94.3169 81.0039 93.2147 81.8166 92.402C82.6293 91.5894 83.7315 91.1328 84.8807 91.1328H103.947C104.407 91.1342 104.847 91.3172 105.172 91.642C105.496 91.9668 105.679 92.4069 105.681 92.8661Z" fill="#F44335"/>
<path d="M103.948 91.1328H101.348C101.807 91.1342 102.247 91.3172 102.572 91.642C102.897 91.9668 103.08 92.4069 103.081 92.8661V94.5995C103.08 95.0588 102.897 95.4988 102.572 95.8236C102.247 96.1484 101.807 96.3314 101.348 96.3328H103.948C104.407 96.3314 104.847 96.1484 105.172 95.8236C105.497 95.4988 105.68 95.0588 105.681 94.5995V92.8661C105.68 92.4069 105.497 91.9668 105.172 91.642C104.847 91.3172 104.407 91.1342 103.948 91.1328Z" fill="#C81E1E"/>
<path d="M80.548 90.0321V95.4661C80.548 94.3168 80.0914 93.2146 79.2788 92.402C78.4661 91.5893 77.3639 91.1328 76.2146 91.1328H58.0146V88.3421C58.0146 87.9175 58.171 87.5077 58.454 87.1912C58.7369 86.8746 59.1267 86.6734 59.5486 86.6261L74.75 84.8668C75.4783 84.7834 76.2159 84.8548 76.9147 85.0763C77.6135 85.2977 78.2576 85.6642 78.805 86.1519C79.3523 86.6395 79.7905 87.2372 80.0909 87.9058C80.3912 88.5745 80.547 89.2991 80.548 90.0321Z" fill="#F5F5F5"/>
<path d="M74.7499 84.8668L73.9023 84.9647C75.0503 85.2275 76.0753 85.8716 76.81 86.792C77.5448 87.7123 77.9459 88.8545 77.9479 90.0321V91.4994C78.72 91.8363 79.377 92.3909 79.8388 93.0954C80.3006 93.7999 80.547 94.6238 80.5479 95.4661V90.0321C80.547 89.2991 80.3912 88.5745 80.0908 87.9058C79.7905 87.2372 79.3523 86.6395 78.8049 86.1519C78.2576 85.6642 77.6135 85.2977 76.9147 85.0763C76.2159 84.8548 75.4782 84.7834 74.7499 84.8668Z" fill="#CFD8DC"/>
<path d="M103.081 88.3421V91.1328H84.8812C83.7319 91.1328 82.6297 91.5893 81.8171 92.402C81.0044 93.2146 80.5479 94.3168 80.5479 95.4661V90.0321C80.5488 89.2991 80.7046 88.5745 81.005 87.9058C81.3053 87.2372 81.7435 86.6395 82.2909 86.1519C82.8382 85.6642 83.4823 85.2977 84.1811 85.0763C84.8799 84.8548 85.6176 84.7834 86.3459 84.8668L101.547 86.6261C101.969 86.6734 102.359 86.8746 102.642 87.1912C102.925 87.5077 103.081 87.9175 103.081 88.3421Z" fill="#F5F5F5"/>
<path d="M101.547 86.626L86.3461 84.8667C85.7607 84.7997 85.1681 84.8328 84.5938 84.9646L98.9475 86.626C99.3695 86.6733 99.7592 86.8745 100.042 87.1911C100.325 87.5076 100.482 87.9174 100.481 88.342V91.1327H103.081V88.342C103.082 87.9174 102.925 87.5076 102.642 87.1911C102.359 86.8745 101.969 86.6733 101.547 86.626Z" fill="#CFD8DC"/>
<path d="M83.1475 70.333H91.8141V75.533H83.1475V70.333Z" fill="#E91E63"/>
<path d="M89.2148 70.333H91.8148V75.533H89.2148V70.333Z" fill="#AD1457"/>
<path d="M69.2812 70.333H77.9479V75.533H69.2812V70.333Z" fill="#E91E63"/>
<path d="M83.1482 70.3329V75.5329H77.9482V70.3329C77.9496 69.8737 78.1327 69.4336 78.4574 69.1088C78.7822 68.784 79.2223 68.601 79.6816 68.5996H81.4149C81.8742 68.601 82.3143 68.784 82.639 69.1088C82.9638 69.4336 83.1469 69.8737 83.1482 70.3329Z" fill="#FFDF00"/>
<path d="M89.4919 56.3273C90.9317 60.8607 91.7139 65.5772 91.8146 70.3327H83.1479C83.1465 69.8734 82.9635 69.4333 82.6387 69.1085C82.314 68.7838 81.8739 68.6007 81.4146 68.5994H79.6813C79.222 68.6007 78.7819 68.7838 78.4571 69.1085C78.1323 69.4333 77.9493 69.8734 77.9479 70.3327H69.2812C69.2812 62.5327 71.8813 57.3327 78.8146 52.1327C81.6012 50.0999 84.9065 48.898 88.3479 48.666C94.4146 48.666 97.8813 52.1327 97.8813 53.866C97.8813 55.192 94.8219 56.0153 89.4919 56.3273Z" fill="#3F51B5"/>
<path d="M97.8809 53.866C97.8809 52.1327 94.4143 48.666 88.3476 48.666C87.98 48.6711 87.613 48.6986 87.2487 48.7483C92.3785 49.2579 95.2809 52.2817 95.2809 53.866C95.2809 55.192 92.2216 56.0153 86.8916 56.3273C88.3314 60.8607 89.1136 65.5772 89.2143 70.3327H91.8143C91.7136 65.5772 90.9314 60.8607 89.4916 56.3273C94.8216 56.0153 97.8809 55.192 97.8809 53.866Z" fill="#283593"/>
<defs>
<filter id="filter0_f_88_3726" x="0.149414" y="0.595703" width="154.135" height="154.135" filterUnits="userSpaceOnUse" color-interpolation-filters="sRGB">
<feFlood flood-opacity="0" result="BackgroundImageFix"/>
<feBlend mode="normal" in="SourceGraphic" in2="BackgroundImageFix" result="shape"/>
<feGaussianBlur stdDeviation="25" result="effect1_foregroundBlur_88_3726"/>
</filter>
<linearGradient id="paint0_linear_88_3726" x1="80.5479" y1="31.5127" x2="80.5479" y2="120.251" gradientUnits="userSpaceOnUse">
<stop stop-color="white" stop-opacity="0.2"/>
<stop offset="1" stop-color="white" stop-opacity="0.05"/>
</linearGradient>
<radialGradient id="paint1_radial_88_3726" cx="0" cy="0" r="1" gradientUnits="userSpaceOnUse" gradientTransform="translate(77.2167 77.663) rotate(90) scale(27.0673)">
<stop stop-color="#EBDBDC"/>
<stop offset="1" stop-color="#53C5FD"/>
</radialGradient>
</defs>
</svg>
