<svg width="155" height="155" viewBox="0 0 155 155" fill="none" xmlns="http://www.w3.org/2000/svg">
<rect x="25.5771" y="31.1748" width="109.941" height="88.738" rx="9" fill="url(#paint0_linear_88_3724)"/>
<g filter="url(#filter0_f_88_3724)">
<circle cx="77.2167" cy="77.3895" r="27.0673" fill="url(#paint1_radial_88_3724)"/>
</g>
<path d="M55.5703 66.0562V95.8925C55.5703 96.8964 56.3841 97.7103 57.3881 97.7103H74.3477C75.3049 97.7103 76.225 98.1524 76.7703 98.9392C77.4413 99.9075 78.8808 100.577 80.5482 100.577C82.2156 100.577 83.6551 99.9075 84.3261 98.9392C84.8714 98.1525 85.7914 97.7103 86.7487 97.7103H103.708C104.712 97.7103 105.526 96.8965 105.526 95.8925V66.0562C105.526 65.0522 104.712 64.2383 103.708 64.2383H57.3881C56.3841 64.2383 55.5703 65.0521 55.5703 66.0562Z" fill="#78EAC4"/>
<path d="M78.9418 94.8677C68.9015 89.0026 59.6442 94.8818 59.7192 91.3161V62.6545C59.7192 61.9927 60.1835 61.4208 60.8313 61.2861C67.4987 59.9007 74.0776 60.7332 80.548 64.2896V93.9127C80.548 94.7372 79.6673 95.2594 78.9418 94.8677ZM99.7133 92.7024C92.8422 91.393 87.1581 92.5365 82.1124 94.9989C81.3898 95.3516 80.548 94.8268 80.548 94.0227V64.2896C87.1412 60.5546 93.7344 59.5391 100.327 61.2433C100.628 61.3208 100.894 61.4958 101.083 61.7408C101.273 61.9859 101.376 62.287 101.377 62.5971V91.3317C101.377 92.2101 100.576 92.8667 99.7133 92.7024Z" fill="white"/>
<path d="M77.7799 63.7782C78.0603 63.6198 78.3432 63.4659 78.6285 63.3164C74.8036 61.5349 70.9417 60.6807 67.0469 60.6523C70.6591 60.827 74.2383 61.8316 77.7799 63.7782Z" fill="#AF30FA"/>
<path d="M100.328 61.2425C97.4736 60.5047 94.6192 60.2776 91.7649 60.5593C92.8205 60.6714 93.8759 60.8632 94.9315 61.1361C95.1917 61.2033 95.4223 61.3551 95.587 61.5675C95.7516 61.78 95.841 62.0411 95.8412 62.3099V87.226C95.8412 87.9876 95.147 88.557 94.3989 88.4144C88.4409 87.2791 83.5123 88.2706 79.137 90.4058C78.5105 90.7116 77.0169 90.6317 76.3878 90.292C71.6373 87.727 66.5291 87.3159 61.1729 88.3981C60.422 88.55 59.7197 87.9782 59.7197 87.212V91.3148C59.7197 92.1984 60.5297 92.8578 61.3957 92.6827C67.5728 91.4346 73.4639 91.9087 78.9423 94.8668C79.6678 95.2585 81.3903 95.3506 82.1129 94.9981C87.1587 92.5356 92.8427 91.3922 99.7138 92.7015C100.577 92.8659 101.377 92.2092 101.377 91.331V62.5962C101.377 62.2862 101.274 61.9851 101.084 61.7401C100.894 61.495 100.628 61.32 100.328 61.2425Z" fill="#FFBFFC"/>
<path d="M74.1474 75.5149C74.6607 74.7133 74.9331 73.7813 74.9324 72.8295C74.9324 70.0701 72.6875 67.8252 69.9281 67.8252H65.8688C64.8809 67.8252 64.0801 68.6261 64.0801 69.614V83.5884C64.08 83.8233 64.1263 84.056 64.2162 84.273C64.306 84.4901 64.4378 84.6873 64.6039 84.8534C64.77 85.0195 64.9672 85.1513 65.1843 85.2412C65.4013 85.3311 65.6339 85.3773 65.8688 85.3773H65.8768C65.9141 85.3771 69.6224 85.3606 70.6369 85.3606C73.6973 85.3606 76.1872 82.8708 76.1872 79.8103C76.1871 78.0807 75.3915 76.5336 74.1474 75.5149ZM67.6576 71.4028H69.9281C70.7148 71.4028 71.3547 72.0428 71.3547 72.8295C71.3547 73.6161 70.7147 74.2562 69.9281 74.2562C69.4983 74.2561 68.2912 74.2613 67.6576 74.26V71.4028ZM70.6369 81.783C70.0897 81.783 68.771 81.7876 67.6576 81.7921V77.8406C68.2141 77.8365 70.0518 77.8376 70.6369 77.8375C71.7247 77.8375 72.6096 78.7225 72.6096 79.8102C72.6096 80.8979 71.7246 81.783 70.6369 81.783ZM85.3105 82.4563C85.1433 82.2892 85.6423 81.4628 85.5108 81.2758C84.4066 79.7071 84.5559 77.5254 85.9588 76.1225L87.9961 74.0852C89.566 72.5153 91.3614 73.2654 92.9314 74.8353C94.5013 76.4053 95.2514 78.2006 93.6815 79.7706L91.6442 81.8079C90.253 83.1991 88.0956 83.3576 86.53 82.2831C86.3289 82.1451 85.4892 82.6351 85.3105 82.4563Z" fill="#FFE266"/>
<path d="M93.6562 77.0233C95.265 77.0233 96.5692 75.7191 96.5692 74.1103C96.5692 72.5015 95.265 71.1973 93.6562 71.1973C92.0474 71.1973 90.7432 72.5015 90.7432 74.1103C90.7432 75.7191 92.0474 77.0233 93.6562 77.0233Z" fill="#FFE266"/>
<path d="M87.2255 77.2438C85.5675 77.1577 84.2845 75.9146 84.3596 74.4673C84.4347 73.02 85.8397 71.9167 87.4976 72.0028C89.1556 72.0889 92.7946 74.1888 92.7576 74.9035C92.7204 75.6182 88.8835 77.3299 87.2255 77.2438Z" fill="#B2E7F1"/>
<path d="M90.5165 80.5412C90.5985 82.1994 91.8384 83.4856 93.2858 83.4139C94.7332 83.3424 95.8401 81.9402 95.7581 80.282C95.6761 78.6238 93.5851 74.9796 92.8704 75.0149C92.1557 75.0503 90.4346 78.8831 90.5165 80.5412Z" fill="#B2E7F1"/>
<path d="M103.708 63.2158H102.399V62.5962C102.399 61.4929 101.652 60.5292 100.583 60.2527C93.9217 58.5307 87.1809 59.4981 80.5402 63.1247C74.2453 59.8021 67.5478 58.8457 60.6234 60.2844C59.5071 60.5162 58.697 61.5126 58.697 62.6535V63.2158H57.3878C55.8219 63.2158 54.5479 64.4899 54.5479 66.0559V95.8923C54.5479 97.4581 55.8218 98.7322 57.3878 98.7322H74.3475C74.996 98.7322 75.5875 99.0271 75.9298 99.521C76.8179 100.802 78.5873 101.599 80.5478 101.599C82.5083 101.599 84.2778 100.802 85.1658 99.521C85.5082 99.027 86.0997 98.7321 86.7482 98.7321H103.708C105.274 98.7321 106.548 97.458 106.548 95.8922V66.0559C106.548 64.4898 105.274 63.2158 103.708 63.2158ZM100.071 62.232C100.152 62.2528 100.224 62.2998 100.275 62.3657C100.326 62.4317 100.354 62.5127 100.354 62.5962V91.3309C100.355 91.3857 100.343 91.4398 100.32 91.4893C100.296 91.5388 100.262 91.5825 100.22 91.6171C100.177 91.6532 100.126 91.6792 100.071 91.6931C100.017 91.707 99.9598 91.7085 99.9046 91.6974C93.4394 90.4653 87.4728 91.2446 81.6642 94.0795C81.6518 94.0855 81.631 94.0958 81.6 94.0765C81.5701 94.0578 81.5701 94.0363 81.5701 94.0221V64.8904C87.7247 61.5438 93.9467 60.6491 100.071 62.232ZM60.7414 62.6535C60.7415 62.5674 60.7712 62.484 60.8254 62.4171C60.8796 62.3502 60.9551 62.304 61.0393 62.2861C67.5555 60.9321 73.609 61.7867 79.5257 64.8997V93.912C79.5257 93.9272 79.5257 93.9482 79.4951 93.9665C79.4619 93.9862 79.4405 93.9743 79.4274 93.9673V93.9674C74.0126 91.0436 68.0479 90.2952 61.1929 91.6809C61.138 91.6924 61.0811 91.6914 61.0266 91.6779C60.9722 91.6645 60.9214 91.6389 60.8781 91.6032C60.8351 91.5685 60.8005 91.5246 60.7769 91.4746C60.7532 91.4247 60.7411 91.3701 60.7415 91.3149L60.7414 62.6535ZM104.504 95.8922C104.504 96.3308 104.147 96.6878 103.708 96.6878H86.7483C85.4295 96.6878 84.2098 97.3116 83.4856 98.3565C83.0725 98.9527 82.0039 99.5543 80.5478 99.5543C79.0919 99.5543 78.0232 98.9527 77.6101 98.3564C76.8859 97.3115 75.6662 96.6878 74.3474 96.6878H57.3878C56.9491 96.6878 56.5922 96.3309 56.5922 95.8922V66.0559C56.5922 65.6171 56.949 65.2602 57.3878 65.2602H58.6971V91.3148C58.6964 91.6729 58.7756 92.0266 58.929 92.3502C59.0823 92.6738 59.3058 92.9592 59.5834 93.1855C59.8609 93.4132 60.1857 93.5762 60.5341 93.6626C60.8826 93.749 61.2459 93.7565 61.5977 93.6847C67.9646 92.398 73.4791 93.0791 78.4561 95.7663V95.7664C78.7734 95.9376 79.1179 96.023 79.4615 96.023C79.8031 96.023 80.1436 95.9377 80.4564 95.7697C80.4765 95.7833 80.4962 95.7973 80.5168 95.8102C80.8513 96.0204 81.2382 96.1321 81.6333 96.1325C81.9547 96.132 82.2719 96.0583 82.5606 95.9169C87.958 93.2827 93.5062 92.5594 99.5218 93.7058C99.8726 93.7733 100.234 93.7623 100.58 93.6735C100.926 93.5847 101.248 93.4204 101.523 93.1924C101.797 92.9661 102.018 92.6818 102.17 92.36C102.321 92.0382 102.399 91.6868 102.399 91.3311V65.2602H103.708C104.147 65.2602 104.504 65.6171 104.504 66.0559V95.8922H104.504Z" fill="#440A29"/>
<path d="M65.8688 85.9897H65.8801C65.9112 85.9895 69.6099 85.973 70.6369 85.973C74.0355 85.973 76.8006 83.2081 76.8006 79.8093C76.8006 78.1311 76.1235 76.5469 74.9268 75.3876C75.3339 74.596 75.5461 73.7186 75.5457 72.8285C75.5457 69.731 73.0257 67.2109 69.9281 67.2109H65.8689C64.5443 67.2109 63.4668 68.2885 63.4668 69.613V83.5875C63.4668 84.2219 63.7246 84.8423 64.1742 85.2898C64.3965 85.5125 64.6607 85.6889 64.9516 85.809C65.2424 85.9292 65.5541 85.9905 65.8688 85.9897ZM64.6933 69.613C64.6933 68.9649 65.2207 68.4376 65.8689 68.4376H69.9281C72.3494 68.4376 74.3191 70.4074 74.3191 72.8285C74.3193 73.6633 74.0804 74.4807 73.6306 75.1839C73.5498 75.3105 73.5182 75.4623 73.5419 75.6106C73.5655 75.7589 73.6428 75.8934 73.759 75.9886C74.9125 76.933 75.5739 78.3256 75.5739 79.8093C75.5739 82.5316 73.3592 84.7463 70.6369 84.7463C69.6078 84.7463 65.9047 84.7628 65.8688 84.763C65.7148 84.7634 65.5623 84.7334 65.4199 84.6746C65.2776 84.6159 65.1483 84.5296 65.0395 84.4206C64.8187 84.1995 64.6942 83.9001 64.6933 83.5876V69.613Z" fill="#440A29"/>
<path d="M67.6573 74.8731C68.2917 74.8745 69.4964 74.8693 69.9278 74.8694C71.0525 74.8694 71.9677 73.9542 71.9677 72.8293C71.9677 71.7045 71.0525 70.7893 69.9278 70.7893H67.6573C67.4946 70.7893 67.3386 70.854 67.2236 70.969C67.1086 71.084 67.0439 71.24 67.0439 71.4027V74.2599C67.044 74.4226 67.1086 74.5785 67.2236 74.6935C67.3386 74.8085 67.4946 74.8731 67.6573 74.8731ZM68.2706 72.016H69.9278C70.3763 72.016 70.7411 72.3809 70.7411 72.8293C70.7411 73.2777 70.3762 73.6427 69.9278 73.6427C69.6179 73.6422 68.8572 73.6459 68.2706 73.6465V72.016ZM67.6573 82.4053C68.7695 82.4008 70.0898 82.3961 70.6365 82.3961C72.0625 82.3961 73.2225 81.2361 73.2225 79.8101C73.2225 78.3842 72.0626 77.2241 70.6365 77.2241C70.0615 77.2241 68.1974 77.2232 67.6549 77.2271C67.4927 77.2277 67.3373 77.2926 67.2228 77.4075C67.1082 77.5225 67.0439 77.6781 67.0439 77.8404V81.792C67.0439 81.8725 67.0598 81.9523 67.0906 82.0267C67.1214 82.1011 67.1666 82.1687 67.2236 82.2257C67.2805 82.2826 67.3481 82.3278 67.4225 82.3586C67.497 82.3894 67.5767 82.4053 67.6573 82.4053ZM68.2706 78.4515L70.6365 78.4508C71.3861 78.4508 71.9959 79.0606 71.9959 79.8101C71.9959 80.5597 71.386 81.1695 70.6365 81.1695C70.1874 81.1695 69.2191 81.1726 68.2706 81.1763V78.4515ZM84.7066 76.7937C83.9354 78.2418 83.9768 80.0223 84.8915 81.4538C84.872 81.5159 84.8464 81.589 84.8267 81.6456C84.6891 82.0402 84.5177 82.5311 84.8763 82.8896C85.2343 83.2478 85.7306 83.0876 86.1291 82.959C86.1921 82.9387 86.2749 82.9119 86.3416 82.8932C87.0774 83.3554 87.9287 83.6003 88.7976 83.5998C89.5457 83.5998 90.2903 83.4179 90.9627 83.0626C91.5489 83.664 92.3275 84.0303 93.1713 84.0303C93.2194 84.0303 93.2676 84.0291 93.3161 84.0267C94.1957 83.9833 94.9986 83.5559 95.577 82.8232C96.1358 82.1151 96.4177 81.2019 96.3707 80.2519C96.3219 79.2628 95.7364 77.9649 95.348 77.204C95.6422 77.043 95.912 76.841 96.1492 76.6039H96.1491C96.9749 75.7781 97.3041 74.6414 97.1379 73.5671L98.1376 73.1298C98.2856 73.0639 98.4016 72.9422 98.4602 72.7912C98.5188 72.6401 98.5152 72.472 98.4503 72.3236C98.3854 72.1752 98.2644 72.0585 98.1137 71.999C97.9631 71.9394 97.795 71.9419 97.6461 72.0059L96.7399 72.4023C96.5841 72.1207 96.3878 71.8557 96.1492 71.617C95.9105 71.3783 95.6455 71.182 95.3638 71.0262L95.7603 70.1199C95.7926 70.0462 95.81 69.9667 95.8116 69.8862C95.8131 69.8057 95.7988 69.7257 95.7695 69.6507C95.7401 69.5757 95.6963 69.5072 95.6405 69.4491C95.5847 69.3911 95.5179 69.3446 95.4441 69.3123C95.3704 69.28 95.2909 69.2626 95.2104 69.261C95.1299 69.2594 95.0498 69.2737 94.9748 69.3031C94.8998 69.3324 94.8313 69.3763 94.7732 69.4321C94.7152 69.4879 94.6687 69.5547 94.6364 69.6285L94.1991 70.6282C93.1248 70.4621 91.9881 70.7912 91.1623 71.617C90.9258 71.8534 90.7244 72.1223 90.5641 72.4157C89.8027 72.0255 88.5134 71.4417 87.5287 71.3905C86.5805 71.3413 85.6649 71.6209 84.9556 72.1779C84.2215 72.7545 83.7921 73.5564 83.7465 74.4357C83.6998 75.3359 84.0713 76.1724 84.7066 76.7937ZM89.9077 80.1943L87.5674 77.8539C88.7806 77.7842 90.319 77.1624 90.8239 76.945C90.6047 77.4509 89.9813 78.9833 89.9077 80.1943ZM86.8767 81.7773C86.7351 81.6802 86.5852 81.6444 86.4311 81.6444C86.3221 81.6444 86.2111 81.6624 86.0995 81.6892C86.1675 81.424 86.1803 81.162 86.0119 80.9227C85.3242 79.9456 85.2165 78.7191 85.6491 77.6704L90.0942 82.1156C89.0579 82.5411 87.8461 82.4426 86.8767 81.7773ZM94.6143 82.0631C94.2586 82.5136 93.7763 82.776 93.2558 82.8017C92.1512 82.8577 91.1945 81.8289 91.1292 80.5111V80.5112C91.0657 79.2246 92.2147 76.6186 92.8269 75.8121C92.8601 75.7838 92.8908 75.7564 92.92 75.7293C93.5772 76.3626 95.0799 78.9788 95.1458 80.3125C95.1781 80.9663 94.9893 81.5881 94.6143 82.0631ZM93.6557 71.8119C94.2446 71.8119 94.8335 72.036 95.2819 72.4844C96.1785 73.381 96.1785 74.8399 95.2819 75.7366H95.2818C95.1237 75.8947 94.9434 76.0289 94.7465 76.1348C94.0818 75.0636 93.6004 74.6514 93.2774 74.4949C93.1202 74.1707 92.7059 73.6875 91.6329 73.0196C91.738 72.8226 91.8717 72.6422 92.0297 72.4844C92.478 72.036 93.0669 71.8119 93.6557 71.8119ZM84.9715 74.4994C84.9985 73.979 85.2619 73.4972 85.7133 73.1427C86.1893 72.7687 86.8119 72.5822 87.4652 72.6156C88.7988 72.6849 91.4115 74.1941 92.043 74.8528C92.0161 74.8817 91.9888 74.9121 91.9608 74.945C91.1539 75.5551 88.5484 76.699 87.2566 76.6317H87.2567C85.9391 76.5632 84.914 75.6068 84.9715 74.4994ZM97.1187 84.7638C96.9561 84.7638 96.8001 84.8284 96.685 84.9434C96.57 85.0585 96.5054 85.2145 96.5054 85.3771V86.6139C96.5054 86.7766 96.57 86.9326 96.685 87.0476C96.8001 87.1626 96.9561 87.2273 97.1187 87.2273C97.2814 87.2273 97.4374 87.1626 97.5524 87.0476C97.6674 86.9326 97.732 86.7766 97.732 86.6139V85.3771C97.732 85.2145 97.6674 85.0585 97.5524 84.9434C97.4374 84.8284 97.2814 84.7638 97.1187 84.7638ZM92.9587 66.8521C93.0392 66.8521 93.119 66.8363 93.1934 66.8054C93.2678 66.7746 93.3354 66.7294 93.3924 66.6725C93.4493 66.6155 93.4945 66.5479 93.5253 66.4735C93.5562 66.3991 93.572 66.3194 93.572 66.2388V65.002C93.572 64.8393 93.5074 64.6833 93.3924 64.5683C93.2774 64.4533 93.1214 64.3887 92.9587 64.3887C92.796 64.3887 92.64 64.4533 92.525 64.5683C92.41 64.6833 92.3454 64.8393 92.3454 65.002V66.2388C92.3454 66.3194 92.3613 66.3991 92.3921 66.4735C92.4229 66.5479 92.4681 66.6155 92.525 66.6725C92.582 66.7294 92.6496 66.7746 92.724 66.8054C92.7984 66.8363 92.8782 66.8521 92.9587 66.8521ZM91.695 87.1641C91.5324 87.1641 91.3764 87.2287 91.2613 87.3437C91.1463 87.4587 91.0817 87.6147 91.0817 87.7774V89.0142C91.0817 89.1769 91.1463 89.3329 91.2613 89.4479C91.3764 89.5629 91.5324 89.6275 91.695 89.6275C91.8577 89.6275 92.0137 89.5629 92.1287 89.4479C92.2437 89.3329 92.3083 89.1769 92.3083 89.0142V87.7774C92.3083 87.6147 92.2437 87.4587 92.1287 87.3437C92.0137 87.2287 91.8577 87.1641 91.695 87.1641Z" fill="#440A29"/>
<path d="M58.9476 49.747L59.8159 52.1882C59.853 52.2928 59.9266 52.3756 60.0195 52.4175L62.1886 53.3946C62.495 53.5327 62.495 54.0209 62.1886 54.159L60.0195 55.1362C59.9267 55.178 59.8531 55.2609 59.8159 55.3654L58.9476 57.8067C58.825 58.1516 58.3912 58.1516 58.2685 57.8067L57.4004 55.3654C57.3632 55.2609 57.2896 55.178 57.1967 55.1362L55.0277 54.159C54.7212 54.0209 54.7212 53.5327 55.0277 53.3946L57.1967 52.4175C57.2896 52.3756 57.3631 52.2928 57.4004 52.1882L58.2685 49.747C58.3912 49.402 58.825 49.402 58.9476 49.747Z" fill="#BDF4E3"/>
<path d="M81.2234 55.6157C81.327 54.5738 80.5664 53.6452 79.5245 53.5415C78.4826 53.4379 77.554 54.1985 77.4503 55.2404C77.3467 56.2823 78.1073 57.211 79.1492 57.3146C80.1911 57.4182 81.1198 56.6576 81.2234 55.6157Z" fill="#78EAC4"/>
<path d="M72.7572 52.585C72.7584 52.6912 72.7385 52.7965 72.6987 52.895C72.6588 52.9934 72.5999 53.083 72.5252 53.1585C72.4505 53.2341 72.3616 53.294 72.2636 53.3349C72.1656 53.3758 72.0605 53.3969 71.9543 53.3969C71.848 53.3969 71.7429 53.3758 71.6449 53.3349C71.5469 53.294 71.458 53.234 71.3833 53.1585C71.3086 53.0829 71.2497 52.9934 71.2099 52.8949C71.1701 52.7964 71.1502 52.6911 71.1514 52.5849C71.1538 52.3735 71.2395 52.1716 71.3898 52.023C71.5401 51.8743 71.743 51.791 71.9544 51.791C72.1657 51.791 72.3686 51.8744 72.5189 52.023C72.6692 52.1717 72.7548 52.3736 72.7572 52.585Z" fill="#78EAC4"/>
<path d="M103.757 52.8218L104.401 54.6327C104.429 54.7103 104.483 54.7717 104.552 54.8027L106.161 55.5276C106.388 55.63 106.388 55.9922 106.161 56.0946L104.552 56.8195C104.483 56.8505 104.429 56.912 104.401 56.9894L103.757 58.8004C103.666 59.0563 103.344 59.0563 103.253 58.8004L102.609 56.9894C102.582 56.9119 102.527 56.8505 102.458 56.8195L100.849 56.0946C100.622 55.9922 100.622 55.63 100.849 55.5276L102.458 54.8027C102.527 54.7717 102.582 54.7102 102.609 54.6327L103.253 52.8218C103.344 52.5659 103.666 52.5659 103.757 52.8218Z" fill="#BDF4E3"/>
<defs>
<filter id="filter0_f_88_3724" x="0.149414" y="0.322266" width="154.135" height="154.135" filterUnits="userSpaceOnUse" color-interpolation-filters="sRGB">
<feFlood flood-opacity="0" result="BackgroundImageFix"/>
<feBlend mode="normal" in="SourceGraphic" in2="BackgroundImageFix" result="shape"/>
<feGaussianBlur stdDeviation="25" result="effect1_foregroundBlur_88_3724"/>
</filter>
<linearGradient id="paint0_linear_88_3724" x1="80.5479" y1="31.1748" x2="80.5479" y2="119.913" gradientUnits="userSpaceOnUse">
<stop stop-color="white" stop-opacity="0.2"/>
<stop offset="1" stop-color="white" stop-opacity="0.05"/>
</linearGradient>
<radialGradient id="paint1_radial_88_3724" cx="0" cy="0" r="1" gradientUnits="userSpaceOnUse" gradientTransform="translate(77.2167 77.3895) rotate(90) scale(27.0673)">
<stop stop-color="#EBDBDC"/>
<stop offset="1" stop-color="#F47D6C"/>
</radialGradient>
</defs>
</svg>
