<svg width="133" height="133" viewBox="0 0 133 133" fill="none" xmlns="http://www.w3.org/2000/svg">
<g filter="url(#filter0_f_80_3152)">
<circle cx="66.585" cy="66.6992" r="16" fill="url(#paint0_radial_80_3152)"/>
</g>
<path d="M86.3783 90.9568H51.098C49.8988 90.9568 48.9268 89.9847 48.9268 88.7856V58.8792C48.9268 57.6801 49.8988 56.708 51.098 56.708H86.3783C87.5774 56.708 88.5495 57.6801 88.5495 58.8792V88.7857C88.5495 89.9847 87.5774 90.9568 86.3783 90.9568Z" fill="url(#paint1_linear_80_3152)"/>
<path d="M48.9268 77.1338V88.7858C48.9268 89.9848 49.8988 90.9569 51.098 90.9569H86.3783C87.5774 90.9569 88.5495 89.9848 88.5495 88.7858V77.1338H48.9268Z" fill="url(#paint2_linear_80_3152)"/>
<path d="M86.3786 56.708H67.8965V90.9568H86.3786C87.5777 90.9568 88.5498 89.9847 88.5498 88.7857V58.8792C88.5498 57.6801 87.5777 56.708 86.3786 56.708Z" fill="url(#paint3_linear_80_3152)"/>
<path d="M86.3783 56.708H51.098C49.8988 56.708 48.9268 57.6801 48.9268 58.8792V71.3124H88.5495V58.8792C88.5495 57.6801 87.5774 56.708 86.3783 56.708Z" fill="url(#paint4_linear_80_3152)"/>
<path d="M78.2232 74.4131L59.3887 83.836L66.5099 90.9572H86.3788C87.5779 90.9572 88.55 89.9852 88.55 88.7861V84.7398L78.2232 74.4131Z" fill="url(#paint5_linear_80_3152)"/>
<path d="M85.3443 50.6992H52.1323C51.723 50.6992 51.3261 50.8395 51.0077 51.0966L50.1631 51.7787C49.4059 52.3902 48.7952 53.1634 48.3756 54.0415C47.956 54.9197 47.7383 55.8806 47.7383 56.8539V60.9268C47.7383 61.9153 48.5396 62.7166 49.5281 62.7166H87.9484C88.9368 62.7166 89.7382 61.9153 89.7382 60.9268V56.8539C89.7382 55.8806 89.5204 54.9197 89.1009 54.0415C88.6813 53.1633 88.0705 52.3902 87.3134 51.7787L86.4688 51.0966C86.1504 50.8394 85.7535 50.6992 85.3443 50.6992Z" fill="url(#paint6_linear_80_3152)"/>
<path d="M87.3136 51.7787L86.469 51.0966C86.1506 50.8394 85.7537 50.6992 85.3444 50.6992H64.2783V62.7166H87.9486C88.9371 62.7166 89.7384 61.9153 89.7384 60.9268V56.8538C89.7385 55.8805 89.5207 54.9196 89.1011 54.0414C88.6815 53.1633 88.0708 52.3901 87.3136 51.7787Z" fill="url(#paint7_linear_80_3152)"/>
<path d="M47.7383 57.998V60.9266C47.7383 61.915 48.5396 62.7164 49.5281 62.7164H87.9484C88.9368 62.7164 89.7382 61.915 89.7382 60.9266V57.998H47.7383Z" fill="url(#paint8_linear_80_3152)"/>
<path d="M73.7965 69.5032H63.6791C63.1066 69.5032 62.6426 69.039 62.6426 68.4665V65.9683C62.6426 65.3958 63.1067 64.9316 63.6791 64.9316H73.7965C74.369 64.9316 74.8332 65.3958 74.8332 65.9683V68.4665C74.8332 69.0391 74.369 69.5032 73.7965 69.5032Z" fill="url(#paint9_linear_80_3152)"/>
<path d="M73.7965 69.5032H63.6791C63.1066 69.5032 62.6426 69.039 62.6426 68.4665V65.9683C62.6426 65.3958 63.1067 64.9316 63.6791 64.9316H73.7965C74.369 64.9316 74.8332 65.3958 74.8332 65.9683V68.4665C74.8332 69.0391 74.369 69.5032 73.7965 69.5032Z" fill="url(#paint10_linear_80_3152)"/>
<path d="M68.1168 64.9316H63.6792C63.1067 64.9316 62.6426 65.3958 62.6426 65.9683V68.4665C62.6426 69.039 63.1067 69.5032 63.6792 69.5032H68.1168V64.9316Z" fill="url(#paint11_linear_80_3152)"/>
<path d="M60.583 73.8447H76.8938C77.9104 73.8447 78.7346 74.6689 78.7346 75.6855V82.4358C78.7346 83.4524 77.9104 84.2766 76.8938 84.2766H60.583C59.5664 84.2766 58.7422 83.4524 58.7422 82.4358V75.6855C58.7422 74.6689 59.5663 73.8447 60.583 73.8447Z" fill="url(#paint12_linear_80_3152)"/>
<path d="M60.583 73.8447H76.8938C77.9104 73.8447 78.7346 74.6689 78.7346 75.6855V82.4358C78.7346 83.4524 77.9104 84.2766 76.8938 84.2766H60.583C59.5664 84.2766 58.7422 83.4524 58.7422 82.4358V75.6855C58.7422 74.6689 59.5663 73.8447 60.583 73.8447Z" fill="url(#paint13_linear_80_3152)"/>
<path d="M64.125 84.2766H76.8937C77.9103 84.2766 78.7344 83.4524 78.7344 82.4358V75.6855C78.7344 74.6689 77.9103 73.8447 76.8937 73.8447H64.125V84.2766Z" fill="url(#paint14_linear_80_3152)"/>
<path d="M76.3608 77.6066H61.1168C60.9603 77.604 60.8112 77.5401 60.7015 77.4285C60.5918 77.317 60.5303 77.1668 60.5303 77.0103C60.5303 76.8539 60.5918 76.7037 60.7015 76.5922C60.8112 76.4806 60.9603 76.4167 61.1168 76.4141H76.3608C76.5172 76.4167 76.6664 76.4806 76.7761 76.5922C76.8858 76.7037 76.9473 76.8539 76.9473 77.0103C76.9473 77.1668 76.8858 77.317 76.7761 77.4285C76.6664 77.5401 76.5172 77.604 76.3608 77.6066Z" fill="url(#paint15_linear_80_3152)"/>
<path d="M76.3608 81.7062H61.1168C60.9603 81.7036 60.8112 81.6397 60.7015 81.5281C60.5918 81.4166 60.5303 81.2664 60.5303 81.11C60.5303 80.9535 60.5918 80.8033 60.7015 80.6918C60.8112 80.5802 60.9603 80.5163 61.1168 80.5137H76.3608C76.5172 80.5163 76.6664 80.5802 76.7761 80.6918C76.8858 80.8033 76.9473 80.9535 76.9473 81.11C76.9473 81.2664 76.8858 81.4166 76.7761 81.5281C76.6664 81.6397 76.5172 81.7036 76.3608 81.7062Z" fill="url(#paint16_linear_80_3152)"/>
<defs>
<filter id="filter0_f_80_3152" x="0.584961" y="0.699219" width="132" height="132" filterUnits="userSpaceOnUse" color-interpolation-filters="sRGB">
<feFlood flood-opacity="0" result="BackgroundImageFix"/>
<feBlend mode="normal" in="SourceGraphic" in2="BackgroundImageFix" result="shape"/>
<feGaussianBlur stdDeviation="25" result="effect1_foregroundBlur_80_3152"/>
</filter>
<radialGradient id="paint0_radial_80_3152" cx="0" cy="0" r="1" gradientUnits="userSpaceOnUse" gradientTransform="translate(66.585 66.6992) rotate(90) scale(16)">
<stop stop-color="#E67F68"/>
<stop offset="1" stop-color="#ED8871"/>
</radialGradient>
<linearGradient id="paint1_linear_80_3152" x1="59.8938" y1="58.3027" x2="76.7221" y2="87.8516" gradientUnits="userSpaceOnUse">
<stop stop-color="#F89580"/>
<stop offset="1" stop-color="#C4573A"/>
</linearGradient>
<linearGradient id="paint2_linear_80_3152" x1="68.7381" y1="85.9343" x2="68.7381" y2="90.574" gradientUnits="userSpaceOnUse">
<stop stop-color="#C4573A" stop-opacity="0"/>
<stop offset="0.235" stop-color="#BE5539" stop-opacity="0.235"/>
<stop offset="0.539" stop-color="#AE4E35" stop-opacity="0.539"/>
<stop offset="0.879" stop-color="#934330" stop-opacity="0.879"/>
<stop offset="1" stop-color="#883F2E"/>
</linearGradient>
<linearGradient id="paint3_linear_80_3152" x1="80.6172" y1="73.8324" x2="88.4529" y2="73.8324" gradientUnits="userSpaceOnUse">
<stop stop-color="#C4573A" stop-opacity="0"/>
<stop offset="0.235" stop-color="#BE5539" stop-opacity="0.235"/>
<stop offset="0.539" stop-color="#AE4E35" stop-opacity="0.539"/>
<stop offset="0.879" stop-color="#934330" stop-opacity="0.879"/>
<stop offset="1" stop-color="#883F2E"/>
</linearGradient>
<linearGradient id="paint4_linear_80_3152" x1="68.7381" y1="69.106" x2="68.7381" y2="62.2143" gradientUnits="userSpaceOnUse">
<stop stop-color="#C4573A" stop-opacity="0"/>
<stop offset="0.235" stop-color="#BE5539" stop-opacity="0.235"/>
<stop offset="0.539" stop-color="#AE4E35" stop-opacity="0.539"/>
<stop offset="0.879" stop-color="#934330" stop-opacity="0.879"/>
<stop offset="1" stop-color="#883F2E"/>
</linearGradient>
<linearGradient id="paint5_linear_80_3152" x1="75.6467" y1="87.4968" x2="71.0752" y2="78.7514" gradientUnits="userSpaceOnUse">
<stop stop-color="#C4573A" stop-opacity="0"/>
<stop offset="0.235" stop-color="#BE5539" stop-opacity="0.235"/>
<stop offset="0.539" stop-color="#AE4E35" stop-opacity="0.539"/>
<stop offset="0.879" stop-color="#934330" stop-opacity="0.879"/>
<stop offset="1" stop-color="#883F2E"/>
</linearGradient>
<linearGradient id="paint6_linear_80_3152" x1="68.7383" y1="52.0997" x2="68.7383" y2="56.2095" gradientUnits="userSpaceOnUse">
<stop stop-color="#F89580"/>
<stop offset="1" stop-color="#C4573A"/>
</linearGradient>
<linearGradient id="paint7_linear_80_3152" x1="80.7969" y1="56.7078" x2="89.538" y2="56.7078" gradientUnits="userSpaceOnUse">
<stop stop-color="#C4573A" stop-opacity="0"/>
<stop offset="0.235" stop-color="#BE5539" stop-opacity="0.235"/>
<stop offset="0.539" stop-color="#AE4E35" stop-opacity="0.539"/>
<stop offset="0.879" stop-color="#934330" stop-opacity="0.879"/>
<stop offset="1" stop-color="#883F2E"/>
</linearGradient>
<linearGradient id="paint8_linear_80_3152" x1="68.7383" y1="59.0559" x2="68.7383" y2="62.6342" gradientUnits="userSpaceOnUse">
<stop stop-color="#C4573A" stop-opacity="0"/>
<stop offset="0.235" stop-color="#BE5539" stop-opacity="0.235"/>
<stop offset="0.539" stop-color="#AE4E35" stop-opacity="0.539"/>
<stop offset="0.879" stop-color="#934330" stop-opacity="0.879"/>
<stop offset="1" stop-color="#883F2E"/>
</linearGradient>
<linearGradient id="paint9_linear_80_3152" x1="68.3624" y1="65.2774" x2="69.1574" y2="69.3851" gradientUnits="userSpaceOnUse">
<stop stop-color="#5A5A5A"/>
<stop offset="1" stop-color="#444444"/>
</linearGradient>
<linearGradient id="paint10_linear_80_3152" x1="68.7378" y1="67.4273" x2="68.7378" y2="65.1742" gradientUnits="userSpaceOnUse">
<stop stop-color="#433F43" stop-opacity="0"/>
<stop offset="1" stop-color="#1A1A1A"/>
</linearGradient>
<linearGradient id="paint11_linear_80_3152" x1="65.025" y1="67.2174" x2="62.4175" y2="67.2174" gradientUnits="userSpaceOnUse">
<stop stop-color="#433F43" stop-opacity="0"/>
<stop offset="1" stop-color="#1A1A1A"/>
</linearGradient>
<linearGradient id="paint12_linear_80_3152" x1="69.0353" y1="83.9119" x2="68.4566" y2="74.4586" gradientUnits="userSpaceOnUse">
<stop stop-color="#F5FBFF"/>
<stop offset="1" stop-color="#DBD5EF"/>
</linearGradient>
<linearGradient id="paint13_linear_80_3152" x1="68.7383" y1="78.1928" x2="68.7383" y2="84.5313" gradientUnits="userSpaceOnUse">
<stop stop-color="#DBD5EF" stop-opacity="0"/>
<stop offset="0.285" stop-color="#D9D2EE" stop-opacity="0.285"/>
<stop offset="0.474" stop-color="#D4C9E9" stop-opacity="0.474"/>
<stop offset="0.635" stop-color="#CBBAE2" stop-opacity="0.635"/>
<stop offset="0.779" stop-color="#BFA5D7" stop-opacity="0.78"/>
<stop offset="0.913" stop-color="#AF8ACA" stop-opacity="0.913"/>
<stop offset="1" stop-color="#A274BF"/>
</linearGradient>
<linearGradient id="paint14_linear_80_3152" x1="71.6742" y1="79.0605" x2="79.0792" y2="79.0605" gradientUnits="userSpaceOnUse">
<stop stop-color="#DBD5EF" stop-opacity="0"/>
<stop offset="0.285" stop-color="#D9D2EE" stop-opacity="0.285"/>
<stop offset="0.474" stop-color="#D4C9E9" stop-opacity="0.474"/>
<stop offset="0.635" stop-color="#CBBAE2" stop-opacity="0.635"/>
<stop offset="0.779" stop-color="#BFA5D7" stop-opacity="0.78"/>
<stop offset="0.913" stop-color="#AF8ACA" stop-opacity="0.913"/>
<stop offset="1" stop-color="#A274BF"/>
</linearGradient>
<linearGradient id="paint15_linear_80_3152" x1="68.6338" y1="61.5289" x2="68.7663" y2="81.0737" gradientUnits="userSpaceOnUse">
<stop stop-color="#DBD5EF" stop-opacity="0"/>
<stop offset="0.285" stop-color="#D9D2EE" stop-opacity="0.285"/>
<stop offset="0.474" stop-color="#D4C9E9" stop-opacity="0.474"/>
<stop offset="0.635" stop-color="#CBBAE2" stop-opacity="0.635"/>
<stop offset="0.779" stop-color="#BFA5D7" stop-opacity="0.78"/>
<stop offset="0.913" stop-color="#AF8ACA" stop-opacity="0.913"/>
<stop offset="1" stop-color="#A274BF"/>
</linearGradient>
<linearGradient id="paint16_linear_80_3152" x1="68.6338" y1="65.6286" x2="68.7663" y2="85.1733" gradientUnits="userSpaceOnUse">
<stop stop-color="#DBD5EF" stop-opacity="0"/>
<stop offset="0.285" stop-color="#D9D2EE" stop-opacity="0.285"/>
<stop offset="0.474" stop-color="#D4C9E9" stop-opacity="0.474"/>
<stop offset="0.635" stop-color="#CBBAE2" stop-opacity="0.635"/>
<stop offset="0.779" stop-color="#BFA5D7" stop-opacity="0.78"/>
<stop offset="0.913" stop-color="#AF8ACA" stop-opacity="0.913"/>
<stop offset="1" stop-color="#A274BF"/>
</linearGradient>
</defs>
</svg>
