<svg width="149" height="149" viewBox="0 0 149 149" fill="none" xmlns="http://www.w3.org/2000/svg">
<g filter="url(#filter0_f_107_3749)">
<ellipse cx="74.0172" cy="74.7597" rx="24.0171" ry="24.0175" fill="url(#paint0_radial_107_3749)"/>
</g>
<path fill-rule="evenodd" clip-rule="evenodd" d="M89.6047 58.1862C90.9442 58.4891 92.2221 59.0191 93.3828 59.7533L95.5018 57.6342C96.9903 58.6656 98.2811 59.9564 99.3126 61.4449L97.1935 63.564C97.9271 64.724 98.457 66.0007 98.7605 67.3392H101.758C102.078 69.1225 102.078 70.9486 101.758 72.732H98.7605C98.4518 74.0912 97.9176 75.3645 97.1935 76.5071L99.3126 78.6262C98.2827 80.1161 96.9887 81.4072 95.5018 82.44L93.3828 80.3209C92.2372 81.042 90.9669 81.5792 89.6047 81.8879V84.8825C88.7321 85.0427 87.8299 85.1229 86.9098 85.1229C85.9898 85.1229 85.0906 85.0427 84.215 84.8825V81.888C82.8556 81.5793 81.5825 81.0421 80.4369 80.321L78.3208 82.4401C76.8313 81.4076 75.5395 80.1158 74.5071 78.6263L76.6262 76.5102C75.905 75.3646 75.3678 74.0914 75.0591 72.7321H72.0646C71.9044 71.8566 71.8242 70.9572 71.8242 70.0372C71.8242 69.1171 71.9044 68.2149 72.0646 67.3393H75.0591C75.3678 65.98 75.905 64.7097 76.6262 63.5641L74.5071 61.445C75.5399 59.9581 76.831 58.6641 78.3208 57.6343L80.4369 59.7534C81.5979 59.0197 82.8756 58.4898 84.215 58.1863V55.1886C85.0905 55.0313 85.9898 54.9482 86.9098 54.9482C87.8299 54.9482 88.7321 55.0313 89.6047 55.1886V58.1862ZM86.9098 62.8696C90.869 62.8696 94.0772 66.0779 94.0772 70.0371C94.0772 73.9933 90.8689 77.2017 86.9098 77.2017C82.9537 77.2017 79.7453 73.9933 79.7453 70.0371C79.7454 66.0779 82.9537 62.8696 86.9098 62.8696Z" fill="#6C90B8"/>
<path fill-rule="evenodd" clip-rule="evenodd" d="M57.6367 67.1973H73.6216V83.1854H57.6367V67.1973Z" fill="#FFC06C"/>
<path fill-rule="evenodd" clip-rule="evenodd" d="M68.0016 74.0413V67.1973H63.25V74.0413L65.6273 72.2279L68.0016 74.0413Z" fill="#FF4C4C"/>
<path fill-rule="evenodd" clip-rule="evenodd" d="M68.0013 74.0413V67.1973H65.627V72.2279L68.0013 74.0413Z" fill="#D11E1E"/>
<path fill-rule="evenodd" clip-rule="evenodd" d="M73.6201 67.1973H89.605V83.1854H73.6201V67.1973Z" fill="#FFC06C"/>
<path fill-rule="evenodd" clip-rule="evenodd" d="M83.9918 74.0413V67.1973H79.2402V74.0413L81.6145 72.2279L83.9918 74.0413Z" fill="#FF4C4C"/>
<path fill-rule="evenodd" clip-rule="evenodd" d="M71.6855 67.1973H73.6206V83.1854H71.6855V67.1973Z" fill="#EDA558"/>
<path fill-rule="evenodd" clip-rule="evenodd" d="M83.9896 74.0413V67.1973H81.6123V72.2279L83.9896 74.0413Z" fill="#D11E1E"/>
<path fill-rule="evenodd" clip-rule="evenodd" d="M87.6719 67.1973H89.604V83.1854H87.6719V67.1973Z" fill="#EDA558"/>
<path fill-rule="evenodd" clip-rule="evenodd" d="M57.0719 83.1836H90.1695C93.5351 83.1836 96.2892 85.9348 96.2892 89.3005C96.2892 92.6661 93.5351 95.4203 90.1695 95.4203H57.0719C53.7063 95.4203 50.9521 92.6661 50.9521 89.3005C50.9521 85.9349 53.7063 83.1836 57.0719 83.1836Z" fill="#4A5470"/>
<path fill-rule="evenodd" clip-rule="evenodd" d="M56.2473 84.5578H89.345C89.7367 84.5578 90.1195 84.5934 90.4935 84.6647C93.316 85.2049 95.4647 87.7009 95.4647 90.6747C95.4647 91.5325 95.2866 92.3516 94.9631 93.0935C95.7941 92.0488 96.2897 90.7311 96.2897 89.3005C96.2897 86.0447 93.7106 83.3588 90.4934 83.1896C90.3865 83.1836 90.2798 83.1836 90.1699 83.1836H57.0723C54.5645 83.1836 52.395 84.712 51.4541 86.8846C52.576 85.469 54.3093 84.5578 56.2473 84.5578Z" fill="#3E4864"/>
<path fill-rule="evenodd" clip-rule="evenodd" d="M67.3558 86.5371C68.8842 86.5371 70.1248 87.7747 70.1248 89.3032C70.1248 90.8316 68.8842 92.0722 67.3558 92.0722C65.8274 92.0722 64.5898 90.8316 64.5898 89.3032C64.5898 87.7747 65.8273 86.5371 67.3558 86.5371ZM78.4259 86.5371C79.9543 86.5371 81.1949 87.7747 81.1949 89.3032C81.1949 90.8316 79.9543 92.0722 78.4259 92.0722C76.8975 92.0722 75.6599 90.8316 75.6599 89.3032C75.6599 87.7747 76.8975 86.5371 78.4259 86.5371ZM56.7397 92.0722C58.2652 92.0722 59.5087 90.8286 59.5087 89.3032C59.5087 87.7777 58.2652 86.5371 56.7397 86.5371C55.2143 86.5371 53.9707 87.7777 53.9707 89.3032C53.9707 90.8286 55.2142 92.0722 56.7397 92.0722ZM88.9322 92.0722C90.4548 92.0722 91.6982 90.8286 91.6982 89.3032C91.6982 87.7777 90.4547 86.5371 88.9322 86.5371C87.4068 86.5371 86.1632 87.7777 86.1632 89.3032C86.1632 90.8286 87.4067 92.0722 88.9322 92.0722Z" fill="#252F4B"/>
<path fill-rule="evenodd" clip-rule="evenodd" d="M68.1419 86.5371C69.6704 86.5371 70.908 87.7747 70.908 89.3032C70.908 90.8316 69.6704 92.0722 68.1419 92.0722C66.6135 92.0722 65.3729 90.8316 65.3729 89.3032C65.3729 87.7747 66.6135 86.5371 68.1419 86.5371ZM79.2121 86.5371C80.7406 86.5371 81.9812 87.7747 81.9812 89.3032C81.9812 90.8316 80.7406 92.0722 79.2121 92.0722C77.6837 92.0722 76.4431 90.8316 76.4431 89.3032C76.4431 87.7747 77.6836 86.5371 79.2121 86.5371ZM57.5259 92.0722C59.0484 92.0722 60.2919 90.8286 60.2919 89.3032C60.2919 87.7777 59.0483 86.5371 57.5259 86.5371C56.0004 86.5371 54.7568 87.7777 54.7568 89.3032C54.7568 90.8286 56.0003 92.0722 57.5259 92.0722ZM89.7154 92.0722C91.2409 92.0722 92.4845 90.8286 92.4845 89.3032C92.4845 87.7777 91.2409 86.5371 89.7154 86.5371C88.1929 86.5371 86.9494 87.7777 86.9494 89.3032C86.9494 90.8286 88.1929 92.0722 89.7154 92.0722Z" fill="#F0F0FC"/>
<path fill-rule="evenodd" clip-rule="evenodd" d="M57.5256 86.5371C59.054 86.5371 60.2916 87.7747 60.2916 89.3032C60.2916 90.8316 59.054 92.0723 57.5256 92.0723C57.3934 92.0728 57.2614 92.0629 57.1309 92.0425C58.4753 91.8526 59.5082 90.698 59.5082 89.3032C59.5082 87.9083 58.4753 86.7538 57.1309 86.5638C57.2617 86.546 57.3936 86.537 57.5256 86.5371ZM89.7152 86.5371C91.2436 86.5371 92.4842 87.7747 92.4842 89.3032C92.4842 90.8316 91.2436 92.0723 89.7152 92.0723C89.5816 92.0723 89.4511 92.0634 89.3234 92.0425C90.6649 91.8526 91.6977 90.698 91.6977 89.3032C91.6977 87.9083 90.6679 86.7538 89.3234 86.5638C89.4532 86.5458 89.5841 86.5369 89.7152 86.5371ZM68.1416 86.5371C69.6701 86.5371 70.9077 87.7747 70.9077 89.3032C70.9077 90.8316 69.6701 92.0723 68.1416 92.0723C68.008 92.0723 67.8775 92.0634 67.7499 92.0425C69.0914 91.8526 70.1242 90.698 70.1242 89.3032C70.1242 87.9083 69.0914 86.7538 67.7499 86.5638C67.8797 86.5459 68.0106 86.5369 68.1416 86.5371ZM79.2119 86.5371C80.7403 86.5371 81.9809 87.7747 81.9809 89.3032C81.9809 90.8316 80.7403 92.0723 79.2119 92.0723C79.0783 92.0723 78.9477 92.0634 78.8201 92.0425C80.1616 91.8526 81.1944 90.698 81.1944 89.3032C81.1944 87.9083 80.1616 86.7538 78.8201 86.5638C78.9499 86.5458 79.0808 86.5369 79.2119 86.5371Z" fill="#D7D7E3"/>
<path fill-rule="evenodd" clip-rule="evenodd" d="M98.7622 72.7322H97.4089C97.1046 74.0704 96.5747 75.3471 95.8418 76.5074L97.9609 78.6265C97.1121 79.8492 96.0882 80.9415 94.9248 81.8615L95.5036 82.4403C96.9905 81.4075 98.2844 80.1164 99.3143 78.6266L97.1952 76.5075C97.9193 75.3648 98.4535 74.0916 98.7622 72.7322ZM88.2529 58.1865C89.5923 58.4899 90.87 59.0199 92.031 59.7535L92.5237 59.2579C91.6125 58.783 90.6361 58.418 89.6063 58.1865V55.1889C89.1641 55.1087 88.71 55.0494 88.2529 55.0078V58.1865ZM97.9609 61.4453L95.8418 63.5644C96.563 64.71 97.1002 65.9803 97.4089 67.3395H98.7622C98.4587 66.0011 97.9288 64.7243 97.1952 63.5644L99.3143 61.4453C98.2828 59.9568 96.992 58.666 95.5036 57.6345L94.9248 58.2103C96.0898 59.1341 97.1128 60.2241 97.9609 61.4453ZM101.76 67.3395H100.403C100.564 68.215 100.644 69.1174 100.644 70.0374C100.644 70.9575 100.564 71.8567 100.403 72.7323H101.76C102.08 70.949 102.08 69.1229 101.76 67.3395Z" fill="#587AA1"/>
<defs>
<filter id="filter0_f_107_3749" x="0" y="0.742188" width="148.034" height="148.035" filterUnits="userSpaceOnUse" color-interpolation-filters="sRGB">
<feFlood flood-opacity="0" result="BackgroundImageFix"/>
<feBlend mode="normal" in="SourceGraphic" in2="BackgroundImageFix" result="shape"/>
<feGaussianBlur stdDeviation="25" result="effect1_foregroundBlur_107_3749"/>
</filter>
<radialGradient id="paint0_radial_107_3749" cx="0" cy="0" r="1" gradientUnits="userSpaceOnUse" gradientTransform="translate(74.0171 74.7597) rotate(90) scale(24.0175 24.0171)">
<stop stop-color="#E67F68"/>
<stop offset="1" stop-color="#1755AC"/>
</radialGradient>
</defs>
</svg>
