<svg width="155" height="155" viewBox="0 0 155 155" fill="none" xmlns="http://www.w3.org/2000/svg">
<rect x="26.0215" y="31.5508" width="109.941" height="88.738" rx="9" fill="url(#paint0_linear_794_647)"/>
<g filter="url(#filter0_f_794_647)">
<circle cx="77.661" cy="77.1688" r="27.0673" fill="url(#paint1_radial_794_647)"/>
</g>
<path d="M59.4316 68.0117H66.6186V93.9704H59.4316V68.0117Z" fill="#FFBD86"/>
<path d="M63.8711 68.0117H66.6191V93.9704H63.8711V68.0117Z" fill="#F6A96C"/>
<path d="M95.3652 68.0117H102.552V93.9704H95.3652V68.0117Z" fill="#FFBD86"/>
<path d="M99.8047 68.0117H102.553V93.9704H99.8047V68.0117Z" fill="#F6A96C"/>
<path d="M67.041 70.2103H59.0085C58.3081 70.2103 57.7402 69.6424 57.7402 68.9419V64.7969H68.3093V68.9419C68.3093 69.6424 67.7415 70.2103 67.041 70.2103Z" fill="#FED2A4"/>
<path d="M65.3503 64.7969V68.9419C65.3503 69.6424 64.7825 70.2103 64.082 70.2103H67.0414C67.7418 70.2103 68.3097 69.6424 68.3097 68.9419V64.7969H65.3503Z" fill="#FFBD86"/>
<path d="M102.977 70.2103H94.9441C94.2436 70.2103 93.6758 69.6424 93.6758 68.9419V65.8125H104.245V68.9419C104.245 69.6424 103.677 70.2103 102.977 70.2103Z" fill="#FED2A4"/>
<path d="M101.284 65.8125V68.9419C101.284 69.6424 100.716 70.2103 100.016 70.2103H102.975C103.675 70.2103 104.243 69.6424 104.243 68.9419V65.8125H101.284Z" fill="#FFBD86"/>
<path d="M106.992 65.5603V63.3788C106.992 62.9015 106.724 62.4646 106.299 62.2483L82.9912 50.3971C82.3719 50.0821 81.687 49.918 80.9922 49.918C80.2974 49.918 79.6124 50.0821 78.9931 50.3971L55.6857 62.2483C55.477 62.3544 55.3018 62.5162 55.1794 62.7157C55.057 62.9153 54.9922 63.1448 54.9922 63.3789V65.5604C54.9922 66.2608 55.56 66.8287 56.2605 66.8287H105.724C106.424 66.8286 106.992 66.2607 106.992 65.5603Z" fill="#FED2A4"/>
<path d="M106.299 62.2471L103.931 61.043C104.133 61.2738 104.245 61.5701 104.245 61.8769V65.559C104.245 66.2595 103.677 66.8274 102.977 66.8274H105.725C106.425 66.8274 106.993 66.2595 106.993 65.559V63.3776C106.993 63.1435 106.928 62.914 106.806 62.7145C106.683 62.5149 106.508 62.3532 106.299 62.2471Z" fill="#FFBD86"/>
<path d="M63.1504 62.2478L80.5265 53.4125C80.6708 53.3391 80.8305 53.3008 80.9924 53.3008C81.1544 53.3008 81.314 53.3391 81.4584 53.4125L98.8344 62.2477C99.4289 62.55 99.2139 63.4472 98.547 63.4472H63.4379C62.771 63.4472 62.556 62.5501 63.1504 62.2478Z" fill="#F6A96C"/>
<path d="M68.3093 96.1712H57.7402V93.0418C57.7402 92.3413 58.3081 91.7734 59.0085 91.7734H67.041C67.7415 91.7734 68.3093 92.3413 68.3093 93.0418V96.1712Z" fill="#FED2A4"/>
<path d="M65.3503 96.1712V93.0418C65.3503 92.3413 64.7825 91.7734 64.082 91.7734H67.0414C67.7418 91.7734 68.3097 92.3413 68.3097 93.0418V96.1712H65.3503Z" fill="#FFBD86"/>
<path d="M104.245 96.1712H93.6758V93.0418C93.6758 92.3413 94.2436 91.7734 94.9441 91.7734H102.977C103.677 91.7734 104.245 92.3413 104.245 93.0418V96.1712Z" fill="#FED2A4"/>
<path d="M101.284 96.1712V93.0418C101.284 92.3413 100.716 91.7734 100.016 91.7734H102.975C103.675 91.7734 104.243 92.3413 104.243 93.0418V96.1712H101.284Z" fill="#FFBD86"/>
<path d="M89.2366 91.7719H72.7488C72.0483 91.7719 71.4805 91.2041 71.4805 90.5036V71.4793C71.4805 70.7788 72.0483 70.2109 72.7488 70.2109H89.2365C89.937 70.2109 90.5049 70.7788 90.5049 71.4793V90.5036C90.505 91.2041 89.9371 91.7719 89.2366 91.7719Z" fill="#D77F4A"/>
<path d="M89.2356 70.2109H85.8535C86.554 70.2109 87.1218 70.7788 87.1218 71.4793V90.5036C87.1218 91.2041 86.554 91.7719 85.8535 91.7719H89.2356C89.9361 91.7719 90.504 91.2041 90.504 90.5036V71.4793C90.504 70.7788 89.9361 70.2109 89.2356 70.2109Z" fill="#C86D36"/>
<path d="M86.6987 73.5938H75.2841C75.172 73.5938 75.0645 73.6383 74.9852 73.7176C74.9059 73.7969 74.8613 73.9044 74.8613 74.0166V80.9922L78.5605 86.1257L82.2598 88.3905H86.6987C86.7543 88.3905 86.8092 88.3796 86.8605 88.3583C86.9118 88.3371 86.9584 88.3059 86.9977 88.2667C87.037 88.2274 87.0681 88.1808 87.0894 88.1295C87.1106 88.0782 87.1215 88.0232 87.1215 87.9677V74.0165C87.1215 73.9609 87.1106 73.906 87.0894 73.8547C87.0681 73.8034 87.037 73.7568 86.9977 73.7175C86.9584 73.6783 86.9118 73.6471 86.8605 73.6259C86.8092 73.6047 86.7543 73.5937 86.6987 73.5938Z" fill="#8AC9FE"/>
<path d="M74.8613 80.9922V87.9678C74.8613 88.0799 74.9059 88.1875 74.9852 88.2668C75.0645 88.3461 75.172 88.3906 75.2841 88.3906H82.2598C82.2598 84.3045 78.9474 80.9922 74.8613 80.9922Z" fill="#FFE177"/>
<path d="M83.0341 83.885H78.9501C78.4585 83.885 78.1178 83.3949 78.2889 82.9341L80.3309 77.4363C80.5586 76.8233 81.4257 76.8233 81.6533 77.4363L83.6953 82.9341C83.8664 83.3949 83.5257 83.885 83.0341 83.885Z" fill="#FD8087"/>
<path d="M105.935 99.5501H56.0488V96.4207C56.0488 95.7202 56.6167 95.1523 57.3171 95.1523H104.667C105.367 95.1523 105.935 95.7202 105.935 96.4207V99.5501Z" fill="#FFBD86"/>
<path d="M104.666 95.1523H101.707C102.408 95.1523 102.975 95.7202 102.975 96.4207V99.5501H105.935V96.4207C105.935 95.7202 105.367 95.1523 104.666 95.1523Z" fill="#F6A96C"/>
<path d="M106.147 101.917H55.8377C55.6135 101.917 55.3984 101.828 55.2398 101.67C55.0813 101.511 54.9922 101.296 54.9922 101.072V99.3807C54.9922 99.1564 55.0813 98.9414 55.2398 98.7828C55.3984 98.6242 55.6135 98.5352 55.8377 98.5352H106.147C106.371 98.5352 106.586 98.6242 106.745 98.7828C106.903 98.9414 106.992 99.1564 106.992 99.3807V101.072C106.992 101.296 106.903 101.511 106.745 101.67C106.586 101.828 106.371 101.917 106.147 101.917Z" fill="#FED2A4"/>
<path d="M106.147 98.5352H103.293C103.517 98.5352 103.732 98.6242 103.891 98.7828C104.049 98.9414 104.138 99.1564 104.138 99.3807V101.072C104.138 101.296 104.049 101.511 103.891 101.67C103.732 101.828 103.517 101.917 103.293 101.917H106.147C106.371 101.917 106.586 101.828 106.745 101.67C106.903 101.511 106.992 101.296 106.992 101.072V99.3807C106.992 99.1564 106.903 98.9414 106.745 98.7828C106.586 98.6242 106.371 98.5352 106.147 98.5352Z" fill="#FFBD86"/>
<defs>
<filter id="filter0_f_794_647" x="0.59375" y="0.101562" width="154.135" height="154.133" filterUnits="userSpaceOnUse" color-interpolation-filters="sRGB">
<feFlood flood-opacity="0" result="BackgroundImageFix"/>
<feBlend mode="normal" in="SourceGraphic" in2="BackgroundImageFix" result="shape"/>
<feGaussianBlur stdDeviation="25" result="effect1_foregroundBlur_794_647"/>
</filter>
<linearGradient id="paint0_linear_794_647" x1="80.9922" y1="31.5508" x2="80.9922" y2="120.289" gradientUnits="userSpaceOnUse">
<stop stop-color="white" stop-opacity="0.2"/>
<stop offset="1" stop-color="white" stop-opacity="0.05"/>
</linearGradient>
<radialGradient id="paint1_radial_794_647" cx="0" cy="0" r="1" gradientUnits="userSpaceOnUse" gradientTransform="translate(77.661 77.1688) rotate(90) scale(27.0673)">
<stop stop-color="#EBDBDC"/>
<stop offset="1" stop-color="#FED2A4"/>
</radialGradient>
</defs>
</svg>
