<svg width="42" height="24" viewBox="0 0 42 24" fill="none" xmlns="http://www.w3.org/2000/svg">
<path d="M41.2784 10.8107C41.1936 10.7033 39.1586 8.15042 35.6698 5.58728C31.0077 2.16205 25.9349 0.351562 20.9999 0.351562C16.065 0.351562 10.9922 2.16205 6.32995 5.58728C2.84119 8.15033 0.806173 10.7033 0.721308 10.8107L0 11.7229L0.7214 12.6353C0.806265 12.7427 2.84128 15.2957 6.33004 17.8588C10.9923 21.2839 16.0651 23.0944 21 23.0944C25.9349 23.0944 31.0077 21.2839 35.6698 17.8588C39.1586 15.2957 41.1936 12.7427 41.2784 12.6353L42 11.7229L41.2784 10.8107ZM20.9999 19.6892C16.6073 19.6892 13.0336 16.1156 13.0336 11.7229C13.0336 11.0347 13.1213 10.3667 13.2861 9.72921L11.4674 9.42313C11.2858 10.1762 11.1942 10.9482 11.1947 11.7229C11.1947 14.5604 12.4067 17.1197 14.3396 18.9118C11.8514 17.9928 9.73568 16.7031 8.13888 15.5366C6.16059 14.0917 4.67798 12.6304 3.83273 11.7229C4.67834 10.8153 6.16077 9.35408 8.13888 7.90925C9.73568 6.74284 11.8515 5.45313 14.3396 4.53395L15.5597 5.90927C16.9846 4.57496 18.8984 3.75665 20.9999 3.75665C25.3924 3.75665 28.9661 7.33028 28.9661 11.7229C28.9661 16.1156 25.3924 19.6892 20.9999 19.6892ZM33.8608 15.5366C32.2639 16.7031 30.1482 17.9928 27.6602 18.9118C29.5929 17.1198 30.805 14.5605 30.805 11.7229C30.805 8.88525 29.5929 6.32596 27.6602 4.53386C30.1483 5.45304 32.2639 6.74275 33.8608 7.90916C35.8391 9.35408 37.3217 10.8155 38.167 11.7228C37.3214 12.6306 35.839 14.0919 33.8608 15.5366Z" fill="#1824E4"/>
<path d="M15.9307 10.1746C15.7776 10.6765 15.6999 11.1985 15.7002 11.7232C15.7002 14.6502 18.073 17.0231 21.0001 17.0231C23.9271 17.0231 26.2999 14.6503 26.2999 11.7232C26.2999 8.79616 23.9271 6.42334 21.0001 6.42334C19.5744 6.42334 18.2812 6.98733 17.3285 7.9031L19.9427 10.8498L15.9307 10.1746Z" fill="#1824E4"/>
</svg>
