<svg width="155" height="155" viewBox="0 0 155 155" fill="none" xmlns="http://www.w3.org/2000/svg">
<rect x="23" y="34.668" width="109.941" height="88.738" rx="9" fill="url(#paint0_linear_791_2824)"/>
<g filter="url(#filter0_f_791_2824)">
<circle cx="77.8622" cy="77.2391" r="27.0673" fill="url(#paint1_radial_791_2824)"/>
</g>
<path fill-rule="evenodd" clip-rule="evenodd" d="M98.8729 98.9212H105.011C105.411 98.9212 105.738 98.5943 105.738 98.1948V74.3319C105.738 73.9324 105.411 73.6055 105.011 73.6055H98.8729C98.4734 73.6055 98.1465 73.9324 98.1465 74.3319V98.1948C98.1465 98.5943 98.4734 98.9212 98.8729 98.9212Z" fill="#38A0EA"/>
<path fill-rule="evenodd" clip-rule="evenodd" d="M90.119 98.922H98.8724C99.2719 98.922 99.5988 98.5952 99.5988 98.1956V68.9935C99.5988 68.7393 99.4898 68.5213 99.3082 68.3761C99.0903 68.2671 98.836 68.2308 98.6181 68.3034L89.8648 71.8266C89.5742 71.9355 89.3926 72.1898 89.3926 72.4803V98.1956C89.3926 98.5952 89.7195 98.922 90.119 98.922Z" fill="#5EB3EE"/>
<path fill-rule="evenodd" clip-rule="evenodd" d="M99.5996 97.4681V68.9925C99.5996 68.7382 99.4906 68.5203 99.309 68.375L91.5 97.4681H98.1467H99.5996Z" fill="#6EBBF0"/>
<path fill-rule="evenodd" clip-rule="evenodd" d="M105.738 97.4712V74.3347C105.738 74.2257 105.738 74.1168 105.665 74.0078L99.7812 97.4712H105.738Z" fill="#4CAAEC"/>
<path fill-rule="evenodd" clip-rule="evenodd" d="M57.0326 98.9212H50.8944C50.4949 98.9212 50.168 98.5943 50.168 98.1948V74.3319C50.168 73.9324 50.4949 73.6055 50.8944 73.6055H57.0326C57.4322 73.6055 57.7591 73.9324 57.7591 74.3319V98.1948C57.7591 98.5943 57.4322 98.9212 57.0326 98.9212Z" fill="#38A0EA"/>
<path fill-rule="evenodd" clip-rule="evenodd" d="M65.7845 98.922H57.0311C56.6316 98.922 56.3047 98.5952 56.3047 98.1956V68.9935C56.3047 68.7393 56.45 68.5213 56.6316 68.3761C56.8495 68.2671 57.1038 68.2308 57.3217 68.3034L66.075 71.8266C66.3293 71.9355 66.5109 72.1898 66.5109 72.4803V98.1956C66.5109 98.5952 66.184 98.922 65.7845 98.922Z" fill="#5EB3EE"/>
<path fill-rule="evenodd" clip-rule="evenodd" d="M56.3047 97.4681V68.9925C56.3047 68.7382 56.45 68.5203 56.6316 68.375L64.4406 97.4681H57.7575H56.3047Z" fill="#6EBBF0"/>
<path fill-rule="evenodd" clip-rule="evenodd" d="M50.168 97.4712V74.3347C50.168 74.2257 50.2043 74.1168 50.2406 74.0078L56.1246 97.4712H50.168Z" fill="#4CAAEC"/>
<path fill-rule="evenodd" clip-rule="evenodd" d="M89.7933 98.9239H66.1483C65.7488 98.9239 65.4219 98.597 65.4219 98.1975V65.3269C65.4219 61.8764 70.9427 59.1523 77.9526 59.1523C84.9989 59.1523 90.5197 61.8764 90.5197 65.3269V98.1975C90.5197 98.597 90.1928 98.9239 89.7933 98.9239Z" fill="#CCCCCC"/>
<path fill-rule="evenodd" clip-rule="evenodd" d="M65.4219 68.4836V65.5053C67.2742 63.7982 71.8507 62.418 77.9526 62.418C84.0546 62.418 88.631 63.7982 90.5197 65.4689V68.4836C87.7956 66.8855 83.2192 65.8685 77.9526 65.8685C72.6861 65.8685 68.146 66.8855 65.4219 68.4836ZM65.4219 78.4355V75.3483C67.2742 73.6775 71.8507 72.261 77.9526 72.261C84.0546 72.261 88.631 73.6775 90.5197 75.3483V78.3992C87.7956 76.8011 83.2192 75.7841 77.9526 75.7841C72.6861 75.7841 68.146 76.8011 65.4219 78.4355Z" fill="#38A0EA"/>
<path fill-rule="evenodd" clip-rule="evenodd" d="M65.4219 83.3765V80.3256C67.2742 78.6548 71.8507 77.2383 77.9526 77.2383C84.0546 77.2383 88.631 78.6185 90.5197 80.3256V83.3765C87.7956 81.7784 83.2192 80.7251 77.9526 80.7251C72.6861 80.7251 68.146 81.7784 65.4219 83.3765Z" fill="#38A0EA"/>
<path fill-rule="evenodd" clip-rule="evenodd" d="M65.4219 88.3502V85.2629C67.2742 83.5921 71.8507 82.1756 77.9526 82.1756C84.0546 82.1756 88.631 83.5921 90.5197 85.2629V88.3502C87.7956 86.7157 83.2192 85.6988 77.9526 85.6988C72.6861 85.6988 68.146 86.7157 65.4219 88.3502ZM65.4219 73.4949V70.4076C67.2742 68.7368 71.8507 67.3203 77.9526 67.3203C84.0546 67.3203 88.631 68.7368 90.5197 70.4076V73.4586C87.7956 71.8604 83.2192 70.8435 77.9526 70.8435C72.6861 70.8435 68.146 71.8604 65.4219 73.4949Z" fill="#38A0EA"/>
<path fill-rule="evenodd" clip-rule="evenodd" d="M82.1652 62.6367C82.6011 62.7094 83.0369 62.7457 83.4728 62.8183L81.6204 66.0146C81.1845 65.9783 80.7124 65.9419 80.2765 65.9056L82.1652 62.6367ZM76.6081 72.2981C77.0439 72.2618 77.5161 72.2618 77.952 72.2618H78.0246L75.9543 75.8213C75.4458 75.8576 74.9736 75.8939 74.5015 75.9302L76.6081 72.2981ZM73.5934 77.492C74.0656 77.4194 74.5741 77.3831 75.0826 77.3467L72.9397 81.0878C72.3948 81.1604 71.8864 81.2331 71.3779 81.3421L73.5934 77.492ZM70.3972 83.0128C70.9057 82.9039 71.4505 82.7949 71.9953 82.6859L69.7071 86.6449C69.0896 86.8265 68.5448 86.9718 68 87.1534L70.3972 83.0128ZM79.4411 67.3585C79.9133 67.3948 80.3492 67.3948 80.785 67.4311L78.8237 70.8453H77.4435L79.4411 67.3585ZM85.1798 63.1452C86.1242 63.3631 86.9596 63.6174 87.7223 63.908L86.0879 66.7773C85.2525 66.5594 84.3445 66.3778 83.4001 66.2325L85.1798 63.1452ZM79.9133 72.3344C80.894 72.3708 81.8383 72.4434 82.71 72.5887L80.8213 75.8939C79.9133 75.8213 78.9326 75.7849 77.952 75.7849H77.9156L79.9133 72.3344ZM77.0803 77.2378H77.952C78.6784 77.2378 79.3322 77.2378 80.0223 77.2741L78.0246 80.7246H77.952C76.935 80.7246 75.9543 80.7609 74.9736 80.8699L77.0803 77.2378ZM74.1019 82.3954C75.0463 82.2864 76.0996 82.2138 77.1529 82.2138L75.0826 85.8095C73.9566 85.8822 72.9033 86.0275 71.8864 86.2091L74.1019 82.3954ZM82.6374 67.6127C83.5817 67.758 84.4897 67.9033 85.2888 68.1212L83.5091 71.2448C82.6011 71.0995 81.6567 70.9906 80.7124 70.9542L82.6374 67.6127Z" fill="#5EB3EE"/>
<path fill-rule="evenodd" clip-rule="evenodd" d="M82.6016 98.9219H73.3397C72.9038 98.9219 72.6133 98.595 72.6133 98.1955V89.66C72.6133 89.2605 72.9038 88.9336 73.3397 88.9336H82.6016C83.0011 88.9336 83.328 89.2605 83.328 89.66V98.1955C83.328 98.595 83.0011 98.9219 82.6016 98.9219Z" fill="#6EBBF0"/>
<path fill-rule="evenodd" clip-rule="evenodd" d="M77.953 98.9219C77.5535 98.9219 77.2266 98.595 77.2266 98.1955V89.66C77.2266 89.2605 77.5535 88.9336 77.953 88.9336C78.3525 88.9336 78.6794 89.2605 78.6794 89.66V98.1955C78.6794 98.595 78.3525 98.9219 77.953 98.9219Z" fill="#1593BC"/>
<path fill-rule="evenodd" clip-rule="evenodd" d="M84.7441 90.3864H71.16C70.7605 90.3864 70.4336 90.0595 70.4336 89.66C70.4336 89.2605 70.7605 88.9336 71.16 88.9336H84.7441C85.1436 88.9336 85.4705 89.2605 85.4705 89.66C85.4705 90.0595 85.1436 90.3864 84.7441 90.3864Z" fill="#1593BC"/>
<path fill-rule="evenodd" clip-rule="evenodd" d="M108.244 98.9216H47.6971C47.2976 98.9216 46.9707 98.5947 46.9707 98.1952C46.9707 97.7956 47.2976 97.4688 47.6971 97.4688H108.244C108.644 97.4688 108.971 97.7956 108.971 98.1952C108.971 98.5947 108.644 98.9216 108.244 98.9216Z" fill="#B8B8B8"/>
<path fill-rule="evenodd" clip-rule="evenodd" d="M83.328 97.4693V90.3867L78.6789 97.4693H83.328ZM72.6133 97.4693V90.3867L77.2261 97.4693H72.6133Z" fill="#5EB3EE"/>
<defs>
<filter id="filter0_f_791_2824" x="0.794922" y="0.171875" width="154.135" height="154.133" filterUnits="userSpaceOnUse" color-interpolation-filters="sRGB">
<feFlood flood-opacity="0" result="BackgroundImageFix"/>
<feBlend mode="normal" in="SourceGraphic" in2="BackgroundImageFix" result="shape"/>
<feGaussianBlur stdDeviation="25" result="effect1_foregroundBlur_791_2824"/>
</filter>
<linearGradient id="paint0_linear_791_2824" x1="77.9707" y1="34.668" x2="77.9707" y2="123.406" gradientUnits="userSpaceOnUse">
<stop stop-color="white" stop-opacity="0.2"/>
<stop offset="1" stop-color="white" stop-opacity="0.05"/>
</linearGradient>
<radialGradient id="paint1_radial_791_2824" cx="0" cy="0" r="1" gradientUnits="userSpaceOnUse" gradientTransform="translate(77.8622 77.2391) rotate(90) scale(27.0673)">
<stop stop-color="#EBDBDC"/>
<stop offset="1" stop-color="#1B57C9"/>
</radialGradient>
</defs>
</svg>
