<svg width="141" height="141" viewBox="0 0 141 141" fill="none" xmlns="http://www.w3.org/2000/svg">
<g filter="url(#filter0_f_103_3728)">
<circle cx="70.4298" cy="70.5441" r="19.8448" fill="url(#paint0_radial_103_3728)"/>
</g>
<path d="M85.5213 60.1871H77.6348V49.7578C77.6348 49.1666 78.114 48.6875 78.705 48.6875H84.4509C85.042 48.6875 85.5212 49.1667 85.5212 49.7578V60.1871H85.5213Z" fill="url(#paint1_linear_103_3728)"/>
<path d="M85.5213 60.1871H77.6348V49.7578C77.6348 49.1666 78.114 48.6875 78.705 48.6875H84.4509C85.042 48.6875 85.5212 49.1667 85.5212 49.7578V60.1871H85.5213Z" fill="url(#paint2_linear_103_3728)"/>
<path d="M85.5211 49.7575V60.1865H80.6631V48.6875H84.451C85.0414 48.6875 85.5211 49.1662 85.5211 49.7575Z" fill="url(#paint3_linear_103_3728)"/>
<path d="M85.7486 62.705V83.0843C85.7486 84.1939 84.8492 85.0934 83.7396 85.0934H57.2297C56.1202 85.0934 55.2207 84.1939 55.2207 83.0843V62.705L66.2175 54.5654H74.7519L85.7486 62.705Z" fill="url(#paint4_linear_103_3728)"/>
<path d="M55.2207 71.6611V83.0845C55.2207 84.194 56.1202 85.0935 57.2297 85.0935H83.7396C84.8492 85.0935 85.7486 84.194 85.7486 83.0845V71.6611H55.2207Z" fill="url(#paint5_linear_103_3728)"/>
<path d="M85.7483 62.7051V71.6609H55.2197V62.7051L66.2172 54.5654H74.7508L85.7483 62.7051Z" fill="url(#paint6_linear_103_3728)"/>
<path d="M55.2197 62.7051V71.6609H85.7483V62.7051L74.7508 54.5654H66.2172L55.2197 62.7051Z" fill="url(#paint7_linear_103_3728)"/>
<path d="M70.4844 54.5654V85.0934H83.7393C84.8489 85.0934 85.7483 84.1939 85.7483 83.0843V62.705L74.7516 54.5654H70.4844Z" fill="url(#paint8_linear_103_3728)"/>
<path d="M71.3217 55.2251L87.0952 66.9002C88.3847 67.8548 90.214 67.5082 91.0651 66.1482C91.8271 64.9303 91.5242 63.3312 90.3695 62.4765L72.7495 49.4346C71.4037 48.4385 69.5651 48.4385 68.2192 49.4346L50.5993 62.4765C49.4445 63.3311 49.1416 64.9303 49.9037 66.1482C50.7548 67.5082 52.5841 67.8548 53.8736 66.9002L69.6471 55.2251C69.8894 55.0458 70.1829 54.949 70.4844 54.949C70.7859 54.949 71.0794 55.0458 71.3217 55.2251Z" fill="url(#paint9_linear_103_3728)"/>
<path d="M71.3217 55.2251L87.0952 66.9002C88.3847 67.8548 90.214 67.5082 91.0651 66.1482C91.8271 64.9303 91.5242 63.3312 90.3695 62.4765L72.7495 49.4346C71.4037 48.4385 69.5651 48.4385 68.2192 49.4346L50.5993 62.4765C49.4445 63.3311 49.1416 64.9303 49.9037 66.1482C50.7548 67.5082 52.5841 67.8548 53.8736 66.9002L69.6471 55.2251C69.8894 55.0458 70.1829 54.949 70.4844 54.949C70.7859 54.949 71.0794 55.0458 71.3217 55.2251Z" fill="url(#paint10_linear_103_3728)"/>
<path d="M91.0544 66.1648L72.7498 52.6162C71.404 51.6201 69.5654 51.6201 68.2195 52.6162L49.915 66.1648C50.7706 67.5107 52.5898 67.8507 53.874 66.9002L69.6474 55.2251C69.8897 55.0458 70.1832 54.949 70.4847 54.949C70.7862 54.949 71.0797 55.0458 71.322 55.2251L87.0955 66.9002C88.3797 67.8507 90.1988 67.5106 91.0544 66.1648Z" fill="url(#paint11_linear_103_3728)"/>
<path d="M77.6348 59.8978L87.0952 66.9002C88.3847 67.8547 90.214 67.5081 91.0651 66.1481C91.8272 64.9303 91.5242 63.3312 90.3695 62.4764L81.5696 55.9629L77.6348 59.8978Z" fill="url(#paint12_linear_103_3728)"/>
<path d="M63.3341 59.8978L53.8736 66.9002C52.5841 67.8547 50.7548 67.5081 49.9037 66.1481C49.1416 64.9303 49.4446 63.3312 50.5992 62.4764L59.3991 55.9629L63.3341 59.8978Z" fill="url(#paint13_linear_103_3728)"/>
<path d="M68.539 70.7049H64.2538C63.7458 70.7049 63.334 70.2931 63.334 69.7851V65.4999C63.334 64.9919 63.7458 64.5801 64.2538 64.5801H68.539C69.0471 64.5801 69.4588 64.9919 69.4588 65.4999V69.7851C69.4588 70.2931 69.0471 70.7049 68.539 70.7049Z" fill="url(#paint14_linear_103_3728)"/>
<path d="M68.539 70.7049H64.2538C63.7458 70.7049 63.334 70.2931 63.334 69.7851V65.4999C63.334 64.9919 63.7458 64.5801 64.2538 64.5801H68.539C69.0471 64.5801 69.4588 64.9919 69.4588 65.4999V69.7851C69.4588 70.2931 69.0471 70.7049 68.539 70.7049Z" fill="url(#paint15_linear_103_3728)"/>
<path d="M68.539 70.7049H64.2538C63.7458 70.7049 63.334 70.2931 63.334 69.7851V65.4999C63.334 64.9919 63.7458 64.5801 64.2538 64.5801H68.539C69.0471 64.5801 69.4588 64.9919 69.4588 65.4999V69.7851C69.4588 70.2931 69.0471 70.7049 68.539 70.7049Z" fill="url(#paint16_linear_103_3728)"/>
<path d="M76.7148 70.7049H72.4296C71.9216 70.7049 71.5098 70.2931 71.5098 69.7851V65.4999C71.5098 64.9919 71.9216 64.5801 72.4296 64.5801H76.7148C77.2228 64.5801 77.6346 64.9919 77.6346 65.4999V69.7851C77.6346 70.2931 77.2228 70.7049 76.7148 70.7049Z" fill="url(#paint17_linear_103_3728)"/>
<path d="M76.7148 70.7049H72.4296C71.9216 70.7049 71.5098 70.2931 71.5098 69.7851V65.4999C71.5098 64.9919 71.9216 64.5801 72.4296 64.5801H76.7148C77.2228 64.5801 77.6346 64.9919 77.6346 65.4999V69.7851C77.6346 70.2931 77.2228 70.7049 76.7148 70.7049Z" fill="url(#paint18_linear_103_3728)"/>
<path d="M76.7148 70.7049H72.4296C71.9216 70.7049 71.5098 70.2931 71.5098 69.7851V65.4999C71.5098 64.9919 71.9216 64.5801 72.4296 64.5801H76.7148C77.2228 64.5801 77.6346 64.9919 77.6346 65.4999V69.7851C77.6346 70.2931 77.2228 70.7049 76.7148 70.7049Z" fill="url(#paint19_linear_103_3728)"/>
<path d="M68.539 78.7411H64.2538C63.7458 78.7411 63.334 78.3293 63.334 77.8213V73.536C63.334 73.028 63.7458 72.6162 64.2538 72.6162H68.539C69.0471 72.6162 69.4588 73.028 69.4588 73.536V77.8213C69.4588 78.3293 69.0471 78.7411 68.539 78.7411Z" fill="url(#paint20_linear_103_3728)"/>
<path d="M68.539 78.7411H64.2538C63.7458 78.7411 63.334 78.3293 63.334 77.8213V73.536C63.334 73.028 63.7458 72.6162 64.2538 72.6162H68.539C69.0471 72.6162 69.4588 73.028 69.4588 73.536V77.8213C69.4588 78.3293 69.0471 78.7411 68.539 78.7411Z" fill="url(#paint21_linear_103_3728)"/>
<path d="M68.539 78.7411H64.2538C63.7458 78.7411 63.334 78.3293 63.334 77.8213V73.536C63.334 73.028 63.7458 72.6162 64.2538 72.6162H68.539C69.0471 72.6162 69.4588 73.028 69.4588 73.536V77.8213C69.4588 78.3293 69.0471 78.7411 68.539 78.7411Z" fill="url(#paint22_linear_103_3728)"/>
<path d="M76.7148 78.7411H72.4296C71.9216 78.7411 71.5098 78.3293 71.5098 77.8213V73.536C71.5098 73.028 71.9216 72.6162 72.4296 72.6162H76.7148C77.2228 72.6162 77.6346 73.028 77.6346 73.536V77.8213C77.6346 78.3293 77.2228 78.7411 76.7148 78.7411Z" fill="url(#paint23_linear_103_3728)"/>
<path d="M76.7148 78.7411H72.4296C71.9216 78.7411 71.5098 78.3293 71.5098 77.8213V73.536C71.5098 73.028 71.9216 72.6162 72.4296 72.6162H76.7148C77.2228 72.6162 77.6346 73.028 77.6346 73.536V77.8213C77.6346 78.3293 77.2228 78.7411 76.7148 78.7411Z" fill="url(#paint24_linear_103_3728)"/>
<path d="M76.7148 78.7411H72.4296C71.9216 78.7411 71.5098 78.3293 71.5098 77.8213V73.536C71.5098 73.028 71.9216 72.6162 72.4296 72.6162H76.7148C77.2228 72.6162 77.6346 73.028 77.6346 73.536V77.8213C77.6346 78.3293 77.2228 78.7411 76.7148 78.7411Z" fill="url(#paint25_linear_103_3728)"/>
<defs>
<filter id="filter0_f_103_3728" x="0.584961" y="0.699219" width="139.689" height="139.689" filterUnits="userSpaceOnUse" color-interpolation-filters="sRGB">
<feFlood flood-opacity="0" result="BackgroundImageFix"/>
<feBlend mode="normal" in="SourceGraphic" in2="BackgroundImageFix" result="shape"/>
<feGaussianBlur stdDeviation="25" result="effect1_foregroundBlur_103_3728"/>
</filter>
<radialGradient id="paint0_radial_103_3728" cx="0" cy="0" r="1" gradientUnits="userSpaceOnUse" gradientTransform="translate(70.4298 70.5441) rotate(90) scale(19.8448)">
<stop stop-color="#EBDBDC"/>
<stop offset="1" stop-color="#1B57C9"/>
</radialGradient>
<linearGradient id="paint1_linear_103_3728" x1="78.518" y1="54.4372" x2="85.5719" y2="54.4372" gradientUnits="userSpaceOnUse">
<stop stop-color="#FFA1AE"/>
<stop offset="1" stop-color="#FF4565"/>
</linearGradient>
<linearGradient id="paint2_linear_103_3728" x1="83.2724" y1="52.3158" x2="80.9186" y2="55.7773" gradientUnits="userSpaceOnUse">
<stop stop-color="#FE0364" stop-opacity="0"/>
<stop offset="0.234" stop-color="#F90362" stop-opacity="0.234"/>
<stop offset="0.517" stop-color="#EA035B" stop-opacity="0.517"/>
<stop offset="0.824" stop-color="#D20250" stop-opacity="0.824"/>
<stop offset="1" stop-color="#C00148"/>
</linearGradient>
<linearGradient id="paint3_linear_103_3728" x1="82.9973" y1="54.437" x2="85.5987" y2="54.437" gradientUnits="userSpaceOnUse">
<stop stop-color="#FE0364" stop-opacity="0"/>
<stop offset="0.234" stop-color="#F90362" stop-opacity="0.234"/>
<stop offset="0.517" stop-color="#EA035B" stop-opacity="0.517"/>
<stop offset="0.824" stop-color="#D20250" stop-opacity="0.824"/>
<stop offset="1" stop-color="#C00148"/>
</linearGradient>
<linearGradient id="paint4_linear_103_3728" x1="58.5199" y1="61.3461" x2="76.7874" y2="79.6135" gradientUnits="userSpaceOnUse">
<stop stop-color="#F5FBFF"/>
<stop offset="1" stop-color="#DBD5EF"/>
</linearGradient>
<linearGradient id="paint5_linear_103_3728" x1="70.4847" y1="77.8" x2="70.4847" y2="85.5655" gradientUnits="userSpaceOnUse">
<stop stop-color="#DBD5EF" stop-opacity="0"/>
<stop offset="0.285" stop-color="#D9D2EE" stop-opacity="0.285"/>
<stop offset="0.474" stop-color="#D4C9E9" stop-opacity="0.474"/>
<stop offset="0.635" stop-color="#CBBAE2" stop-opacity="0.635"/>
<stop offset="0.779" stop-color="#BFA5D7" stop-opacity="0.78"/>
<stop offset="0.913" stop-color="#AF8ACA" stop-opacity="0.913"/>
<stop offset="1" stop-color="#A274BF"/>
</linearGradient>
<linearGradient id="paint6_linear_103_3728" x1="68.4686" y1="64.2103" x2="64.6831" y2="58.6266" gradientUnits="userSpaceOnUse">
<stop stop-color="#DBD5EF" stop-opacity="0"/>
<stop offset="0.285" stop-color="#D9D2EE" stop-opacity="0.285"/>
<stop offset="0.474" stop-color="#D4C9E9" stop-opacity="0.474"/>
<stop offset="0.635" stop-color="#CBBAE2" stop-opacity="0.635"/>
<stop offset="0.779" stop-color="#BFA5D7" stop-opacity="0.78"/>
<stop offset="0.913" stop-color="#AF8ACA" stop-opacity="0.913"/>
<stop offset="1" stop-color="#A274BF"/>
</linearGradient>
<linearGradient id="paint7_linear_103_3728" x1="72.4995" y1="64.2103" x2="76.2849" y2="58.6266" gradientUnits="userSpaceOnUse">
<stop stop-color="#DBD5EF" stop-opacity="0"/>
<stop offset="0.285" stop-color="#D9D2EE" stop-opacity="0.285"/>
<stop offset="0.474" stop-color="#D4C9E9" stop-opacity="0.474"/>
<stop offset="0.635" stop-color="#CBBAE2" stop-opacity="0.635"/>
<stop offset="0.779" stop-color="#BFA5D7" stop-opacity="0.78"/>
<stop offset="0.913" stop-color="#AF8ACA" stop-opacity="0.913"/>
<stop offset="1" stop-color="#A274BF"/>
</linearGradient>
<linearGradient id="paint8_linear_103_3728" x1="75.3959" y1="69.8294" x2="86.1967" y2="69.8294" gradientUnits="userSpaceOnUse">
<stop stop-color="#DBD5EF" stop-opacity="0"/>
<stop offset="0.285" stop-color="#D9D2EE" stop-opacity="0.285"/>
<stop offset="0.474" stop-color="#D4C9E9" stop-opacity="0.474"/>
<stop offset="0.635" stop-color="#CBBAE2" stop-opacity="0.635"/>
<stop offset="0.779" stop-color="#BFA5D7" stop-opacity="0.78"/>
<stop offset="0.913" stop-color="#AF8ACA" stop-opacity="0.913"/>
<stop offset="1" stop-color="#A274BF"/>
</linearGradient>
<linearGradient id="paint9_linear_103_3728" x1="67.1972" y1="48.825" x2="71.5505" y2="69.8347" gradientUnits="userSpaceOnUse">
<stop stop-color="#B3DAFE"/>
<stop offset="1" stop-color="#0182FC"/>
</linearGradient>
<linearGradient id="paint10_linear_103_3728" x1="67.1972" y1="48.825" x2="71.5505" y2="69.8347" gradientUnits="userSpaceOnUse">
<stop stop-color="#B3DAFE"/>
<stop offset="1" stop-color="#0182FC"/>
</linearGradient>
<linearGradient id="paint11_linear_103_3728" x1="70.4847" y1="61.5538" x2="70.4847" y2="48.4256" gradientUnits="userSpaceOnUse">
<stop stop-color="#314DC9" stop-opacity="0"/>
<stop offset="0.276" stop-color="#304BC4" stop-opacity="0.276"/>
<stop offset="0.563" stop-color="#2B45B8" stop-opacity="0.563"/>
<stop offset="0.854" stop-color="#243BA3" stop-opacity="0.854"/>
<stop offset="1" stop-color="#1F3596"/>
</linearGradient>
<linearGradient id="paint12_linear_103_3728" x1="85.8396" y1="63.0031" x2="90.6097" y2="67.7731" gradientUnits="userSpaceOnUse">
<stop stop-color="#314DC9" stop-opacity="0"/>
<stop offset="0.276" stop-color="#304BC4" stop-opacity="0.276"/>
<stop offset="0.563" stop-color="#2B45B8" stop-opacity="0.563"/>
<stop offset="0.854" stop-color="#243BA3" stop-opacity="0.854"/>
<stop offset="1" stop-color="#1F3596"/>
</linearGradient>
<linearGradient id="paint13_linear_103_3728" x1="55.1292" y1="63.003" x2="50.3592" y2="67.773" gradientUnits="userSpaceOnUse">
<stop stop-color="#314DC9" stop-opacity="0"/>
<stop offset="0.276" stop-color="#304BC4" stop-opacity="0.276"/>
<stop offset="0.563" stop-color="#2B45B8" stop-opacity="0.563"/>
<stop offset="0.854" stop-color="#243BA3" stop-opacity="0.854"/>
<stop offset="1" stop-color="#1F3596"/>
</linearGradient>
<linearGradient id="paint14_linear_103_3728" x1="64.6796" y1="65.9257" x2="69.3568" y2="70.6029" gradientUnits="userSpaceOnUse">
<stop stop-color="#B3DAFE"/>
<stop offset="1" stop-color="#0182FC"/>
</linearGradient>
<linearGradient id="paint15_linear_103_3728" x1="66.3964" y1="66.2191" x2="66.3964" y2="64.0637" gradientUnits="userSpaceOnUse">
<stop stop-color="#314DC9" stop-opacity="0"/>
<stop offset="0.276" stop-color="#304BC4" stop-opacity="0.276"/>
<stop offset="0.563" stop-color="#2B45B8" stop-opacity="0.563"/>
<stop offset="0.854" stop-color="#243BA3" stop-opacity="0.854"/>
<stop offset="1" stop-color="#1F3596"/>
</linearGradient>
<linearGradient id="paint16_linear_103_3728" x1="65.3431" y1="67.6425" x2="63.1135" y2="67.6425" gradientUnits="userSpaceOnUse">
<stop stop-color="#314DC9" stop-opacity="0"/>
<stop offset="0.276" stop-color="#304BC4" stop-opacity="0.276"/>
<stop offset="0.563" stop-color="#2B45B8" stop-opacity="0.563"/>
<stop offset="0.854" stop-color="#243BA3" stop-opacity="0.854"/>
<stop offset="1" stop-color="#1F3596"/>
</linearGradient>
<linearGradient id="paint17_linear_103_3728" x1="72.8555" y1="65.9257" x2="77.5326" y2="70.6029" gradientUnits="userSpaceOnUse">
<stop stop-color="#B3DAFE"/>
<stop offset="1" stop-color="#0182FC"/>
</linearGradient>
<linearGradient id="paint18_linear_103_3728" x1="74.5722" y1="66.2191" x2="74.5722" y2="64.0637" gradientUnits="userSpaceOnUse">
<stop stop-color="#314DC9" stop-opacity="0"/>
<stop offset="0.276" stop-color="#304BC4" stop-opacity="0.276"/>
<stop offset="0.563" stop-color="#2B45B8" stop-opacity="0.563"/>
<stop offset="0.854" stop-color="#243BA3" stop-opacity="0.854"/>
<stop offset="1" stop-color="#1F3596"/>
</linearGradient>
<linearGradient id="paint19_linear_103_3728" x1="73.5189" y1="67.6425" x2="71.2893" y2="67.6425" gradientUnits="userSpaceOnUse">
<stop stop-color="#314DC9" stop-opacity="0"/>
<stop offset="0.276" stop-color="#304BC4" stop-opacity="0.276"/>
<stop offset="0.563" stop-color="#2B45B8" stop-opacity="0.563"/>
<stop offset="0.854" stop-color="#243BA3" stop-opacity="0.854"/>
<stop offset="1" stop-color="#1F3596"/>
</linearGradient>
<linearGradient id="paint20_linear_103_3728" x1="64.6796" y1="73.9619" x2="69.3568" y2="78.639" gradientUnits="userSpaceOnUse">
<stop stop-color="#B3DAFE"/>
<stop offset="1" stop-color="#0182FC"/>
</linearGradient>
<linearGradient id="paint21_linear_103_3728" x1="66.3964" y1="74.2554" x2="66.3964" y2="72.0999" gradientUnits="userSpaceOnUse">
<stop stop-color="#314DC9" stop-opacity="0"/>
<stop offset="0.276" stop-color="#304BC4" stop-opacity="0.276"/>
<stop offset="0.563" stop-color="#2B45B8" stop-opacity="0.563"/>
<stop offset="0.854" stop-color="#243BA3" stop-opacity="0.854"/>
<stop offset="1" stop-color="#1F3596"/>
</linearGradient>
<linearGradient id="paint22_linear_103_3728" x1="65.3431" y1="75.6787" x2="63.1135" y2="75.6787" gradientUnits="userSpaceOnUse">
<stop stop-color="#314DC9" stop-opacity="0"/>
<stop offset="0.276" stop-color="#304BC4" stop-opacity="0.276"/>
<stop offset="0.563" stop-color="#2B45B8" stop-opacity="0.563"/>
<stop offset="0.854" stop-color="#243BA3" stop-opacity="0.854"/>
<stop offset="1" stop-color="#1F3596"/>
</linearGradient>
<linearGradient id="paint23_linear_103_3728" x1="72.8555" y1="73.9619" x2="77.5326" y2="78.639" gradientUnits="userSpaceOnUse">
<stop stop-color="#B3DAFE"/>
<stop offset="1" stop-color="#0182FC"/>
</linearGradient>
<linearGradient id="paint24_linear_103_3728" x1="74.5722" y1="74.2554" x2="74.5722" y2="72.0999" gradientUnits="userSpaceOnUse">
<stop stop-color="#314DC9" stop-opacity="0"/>
<stop offset="0.276" stop-color="#304BC4" stop-opacity="0.276"/>
<stop offset="0.563" stop-color="#2B45B8" stop-opacity="0.563"/>
<stop offset="0.854" stop-color="#243BA3" stop-opacity="0.854"/>
<stop offset="1" stop-color="#1F3596"/>
</linearGradient>
<linearGradient id="paint25_linear_103_3728" x1="73.5189" y1="75.6787" x2="71.2893" y2="75.6787" gradientUnits="userSpaceOnUse">
<stop stop-color="#314DC9" stop-opacity="0"/>
<stop offset="0.276" stop-color="#304BC4" stop-opacity="0.276"/>
<stop offset="0.563" stop-color="#2B45B8" stop-opacity="0.563"/>
<stop offset="0.854" stop-color="#243BA3" stop-opacity="0.854"/>
<stop offset="1" stop-color="#1F3596"/>
</linearGradient>
</defs>
</svg>
