<svg width="133" height="133" viewBox="0 0 133 133" fill="none" xmlns="http://www.w3.org/2000/svg">
<path d="M52.3633 66.793H83.8633V91.2631H52.3633V66.793Z" fill="#C4E2FF"/>
<path d="M66.0625 85.9883C65.2935 85.9883 64.668 85.3627 64.668 84.5938V75.2422C64.668 74.4732 65.2935 73.8477 66.0625 73.8477H80.6641C81.433 73.8477 82.0586 74.4732 82.0586 75.2422V84.5938C82.0586 85.3627 81.433 85.9883 80.6641 85.9883H66.0625Z" fill="#B3DAFE"/>
<path d="M81.2383 57.1381H54.9883V51.6172C54.9883 51.4649 55.0488 51.3188 55.1565 51.2112C55.2642 51.1035 55.4102 51.043 55.5625 51.043H80.6641C80.8164 51.043 80.9624 51.1035 81.0701 51.2112C81.1778 51.3188 81.2383 51.4649 81.2383 51.6172V57.1381Z" fill="#FFE177"/>
<path d="M54.9883 51.6172V57.1381H58.3686V51.043H55.5625C55.4102 51.043 55.2642 51.1035 55.1565 51.2112C55.0488 51.3188 54.9883 51.4649 54.9883 51.6172Z" fill="#FFD15B"/>
<path d="M75.9879 54.3018L60.2379 54.3017C60.0716 54.2991 59.913 54.2311 59.7963 54.1125C59.6796 53.994 59.6143 53.8343 59.6143 53.668C59.6143 53.5016 59.6796 53.3419 59.7963 53.2234C59.913 53.1048 60.0716 53.0369 60.2379 53.0342L75.9879 53.0343C76.156 53.0343 76.3172 53.101 76.4361 53.2199C76.5549 53.3387 76.6217 53.4999 76.6217 53.668C76.6217 53.8361 76.5549 53.9973 76.4361 54.1162C76.3172 54.235 76.156 54.3018 75.9879 54.3018Z" fill="#EAF6FF"/>
<path d="M83.8633 59.7631H52.3633V56.8672C52.3633 56.7149 52.4238 56.5688 52.5315 56.4612C52.6392 56.3535 52.7852 56.293 52.9375 56.293H83.2891C83.4414 56.293 83.5874 56.3535 83.6951 56.4612C83.8028 56.5688 83.8633 56.7149 83.8633 56.8672V59.7631Z" fill="#C4E2FF"/>
<path d="M52.3633 56.8672V59.7631H54.8985V56.293H52.9375C52.7852 56.293 52.6392 56.3535 52.5315 56.4612C52.4238 56.5688 52.3633 56.7149 52.3633 56.8672ZM52.3633 66.7929V91.2631H54.9883V70.2156C55.7161 70.775 56.6264 71.108 57.6133 71.108C58.6001 71.108 59.5106 70.775 60.2383 70.2156C60.9661 70.775 61.8765 71.108 62.8633 71.108C63.85 71.108 64.7605 70.775 65.4882 70.2156C66.216 70.775 67.1264 71.108 68.1132 71.108C69.1 71.108 70.0105 70.775 70.7382 70.2156C71.466 70.775 72.3764 71.108 73.3632 71.108C74.35 71.108 75.2604 70.775 75.9881 70.2156C76.7159 70.775 77.6264 71.108 78.6131 71.108C79.5999 71.108 80.5104 70.775 81.2381 70.2156C81.9658 70.775 82.8763 71.108 83.8631 71.108V66.7928L52.3633 66.7929Z" fill="#B3DAFE"/>
<path d="M54.9883 64.168H49.7383L52.3633 58.918H56.8633L54.9883 64.168Z" fill="#EA433F"/>
<path d="M60.2383 64.168H54.9883L56.8633 58.918H61.3633L60.2383 64.168Z" fill="#EAF6FF"/>
<path d="M65.4883 64.168H60.2383L61.3633 58.918H65.8632L65.4883 64.168ZM75.9883 64.168H70.7383L70.3633 58.918H74.8633L75.9883 64.168ZM86.4883 64.168H81.2383L79.3633 58.918H83.8633L86.4883 64.168Z" fill="#EA433F"/>
<path d="M52.3633 69.418C50.9135 69.418 49.7383 68.2427 49.7383 66.793V64.168H54.9883V66.793C54.9883 68.2427 53.813 69.418 52.3633 69.418Z" fill="#D32F2F"/>
<path d="M57.6133 69.418C56.1635 69.418 54.9883 68.2427 54.9883 66.793V64.168H60.2383V66.793C60.2383 68.2427 59.063 69.418 57.6133 69.418Z" fill="#D8ECFE"/>
<path d="M62.8633 69.418C61.4135 69.418 60.2383 68.2427 60.2383 66.793V64.168H65.4883V66.793C65.4883 68.2427 64.313 69.418 62.8633 69.418Z" fill="#D32F2F"/>
<path d="M68.1133 69.418C66.6635 69.418 65.4883 68.2427 65.4883 66.793V64.168H70.7383V66.793C70.7383 68.2427 69.563 69.418 68.1133 69.418Z" fill="#D8ECFE"/>
<path d="M73.3633 69.418C71.9135 69.418 70.7383 68.2427 70.7383 66.793V64.168H75.9883V66.793C75.9883 68.2427 74.813 69.418 73.3633 69.418Z" fill="#D32F2F"/>
<path d="M78.6133 69.418C77.1635 69.418 75.9883 68.2427 75.9883 66.793V64.168H81.2383V66.793C81.2383 68.2427 80.063 69.418 78.6133 69.418Z" fill="#D8ECFE"/>
<path d="M83.8633 69.418C82.4135 69.418 81.2383 68.2427 81.2383 66.793V64.168H86.4883V66.793C86.4883 68.2427 85.313 69.418 83.8633 69.418Z" fill="#D32F2F"/>
<path d="M60.2383 64.168H54.9883L56.8633 58.918H61.3633L60.2383 64.168ZM70.7383 64.168H65.4883L65.8632 58.918H70.3633L70.7383 64.168ZM81.2383 64.168H75.9883L74.8633 58.918H79.3633L81.2383 64.168Z" fill="#EAF6FF"/>
<path d="M54.168 91.2384V75.2422C54.168 74.4732 54.7935 73.8477 55.5625 73.8477H62.2891C63.058 73.8477 63.6836 74.4732 63.6836 75.2422V91.2384H54.168Z" fill="#B3DAFE"/>
<path d="M62.8633 90.4181H54.9883V75.2422C54.9883 75.0899 55.0488 74.9438 55.1565 74.8362C55.2642 74.7285 55.4102 74.668 55.5625 74.668H62.2891C62.4414 74.668 62.5874 74.7285 62.6951 74.8362C62.8028 74.9438 62.8633 75.0899 62.8633 75.2422V90.4181Z" fill="#528FD8"/>
<path d="M54.9883 75.2422V90.418H57.5235V74.668H55.5625C55.4102 74.668 55.2642 74.7285 55.1565 74.8362C55.0488 74.9438 54.9883 75.0899 54.9883 75.2422Z" fill="#0573CE"/>
<path d="M60.2383 84.4893C60.155 84.4893 60.0726 84.4729 59.9957 84.4411C59.9188 84.4093 59.8489 84.3626 59.7901 84.3037C59.7312 84.2449 59.6846 84.175 59.6527 84.0981C59.6209 84.0212 59.6045 83.9388 59.6045 83.8556V82.5431C59.6045 82.4598 59.6209 82.3774 59.6527 82.3005C59.6846 82.2236 59.7313 82.1538 59.7901 82.0949C59.849 82.0361 59.9188 81.9894 59.9957 81.9575C60.0726 81.9257 60.155 81.9093 60.2383 81.9093C60.3215 81.9093 60.4039 81.9257 60.4808 81.9575C60.5577 81.9894 60.6276 82.0361 60.6864 82.0949C60.7453 82.1538 60.7919 82.2236 60.8238 82.3005C60.8556 82.3774 60.872 82.4598 60.872 82.5431V83.8556C60.872 83.9388 60.8557 84.0212 60.8238 84.0981C60.792 84.175 60.7453 84.2449 60.6864 84.3037C60.6276 84.3626 60.5577 84.4093 60.4808 84.4411C60.4039 84.4729 60.3215 84.4893 60.2383 84.4893ZM81.2383 82.5431L80.069 83.3881H66.8976L65.4883 82.5431V75.2422C65.4883 75.0899 65.5488 74.9438 65.6564 74.8362C65.7641 74.7285 65.9102 74.668 66.0625 74.668H80.664C80.8163 74.668 80.9624 74.7285 81.0701 74.8362C81.1778 74.9438 81.2383 75.0899 81.2383 75.2422V82.5431Z" fill="#EAF6FF"/>
<path d="M65.4883 75.2422V82.543L66.7559 83.3881H68.0235V74.668H66.0625C65.9102 74.668 65.7642 74.7285 65.6565 74.8362C65.5488 74.9438 65.4883 75.0899 65.4883 75.2422Z" fill="#D8ECFE"/>
<path d="M81.2383 82.543H65.4883V84.5937C65.4883 84.746 65.5488 84.892 65.6565 84.9997C65.7642 85.1074 65.9102 85.1679 66.0625 85.1679H80.6641C80.8164 85.1679 80.9624 85.1074 81.0701 84.9997C81.1778 84.892 81.2383 84.746 81.2383 84.5937V82.543Z" fill="#528FD8"/>
<path d="M65.4883 82.543V84.5938C65.4883 84.746 65.5488 84.8921 65.6565 84.9998C65.7642 85.1075 65.9102 85.168 66.0625 85.168H68.0235V82.543H65.4883Z" fill="#0573CE"/>
<path d="M86.4883 93.043H49.7383V91.6856C49.7383 90.9855 50.3058 90.418 51.0059 90.418H85.2207C85.9207 90.418 86.4883 90.9855 86.4883 91.6856V93.043Z" fill="#FFE177"/>
<path d="M53.5412 90.418H51.0059C50.3058 90.418 49.7383 90.9855 49.7383 91.6856V93.043H52.2735V91.6856C52.2735 90.9855 52.841 90.418 53.5412 90.418Z" fill="#FFD15B"/>
<g filter="url(#filter0_f_80_3178)">
<circle cx="66.585" cy="66.6992" r="16" fill="url(#paint0_radial_80_3178)"/>
</g>
<defs>
<filter id="filter0_f_80_3178" x="0.584961" y="0.699219" width="132" height="132" filterUnits="userSpaceOnUse" color-interpolation-filters="sRGB">
<feFlood flood-opacity="0" result="BackgroundImageFix"/>
<feBlend mode="normal" in="SourceGraphic" in2="BackgroundImageFix" result="shape"/>
<feGaussianBlur stdDeviation="25" result="effect1_foregroundBlur_80_3178"/>
</filter>
<radialGradient id="paint0_radial_80_3178" cx="0" cy="0" r="1" gradientUnits="userSpaceOnUse" gradientTransform="translate(66.585 66.6992) rotate(90) scale(16)">
<stop stop-color="#EBDBDC"/>
<stop offset="1" stop-color="#6B98D5"/>
</radialGradient>
</defs>
</svg>
