<svg width="155" height="155" viewBox="0 0 155 155" fill="none" xmlns="http://www.w3.org/2000/svg">
<g filter="url(#filter0_f_794_645)">
<circle cx="77.5809" cy="77.8837" r="27.0673" fill="url(#paint0_radial_794_645)"/>
</g>
<rect x="25.9414" y="31.668" width="109.941" height="88.738" rx="9" fill="url(#paint1_linear_794_645)"/>
<path d="M57.5938 74.332H104.15V102.038H57.5938V74.332Z" fill="#DBDFE0"/>
<path d="M57.5938 100.82H104.15V102.039H57.5938V100.82Z" fill="#677E89"/>
<path d="M104.231 61.8203H57.5934L54.9121 74.3328H106.912L104.231 61.8203Z" fill="#D45947"/>
<path d="M93.4254 102.038H68.4004V61.0875L80.9129 51.9062L93.4254 61.0875V102.038Z" fill="#EFF3F5"/>
<path d="M97.9746 62.0641L80.9121 50.0391L63.8496 62.0641C63.0371 62.6328 63.0371 63.7703 63.8496 64.3391C64.3371 64.6641 64.9871 64.6641 65.4746 64.3391L80.9121 53.4516L96.3496 64.3391C96.8371 64.6641 97.4871 64.6641 97.9746 64.3391C98.7871 63.8516 98.7871 62.6328 97.9746 62.0641Z" fill="#F1786B"/>
<path d="M70.6754 74.7383H74.0879V78.1508H70.6754V74.7383ZM76.3629 74.7383H79.7754V78.1508H76.3629V74.7383ZM82.0504 74.7383H85.4629V78.1508H82.0504V74.7383ZM87.7379 74.7383H91.1504V78.1508H87.7379V74.7383ZM70.6754 69.457H74.0879V72.8695H70.6754V69.457ZM76.3629 69.457H79.7754V72.8695H76.3629V69.457ZM82.0504 69.457H85.4629V72.8695H82.0504V69.457ZM87.7379 69.457H91.1504V72.8695H87.7379V69.457ZM70.6754 79.9383H74.0879V83.3508H70.6754V79.9383ZM76.3629 79.9383H79.7754V83.3508H76.3629V79.9383ZM82.0504 79.9383H85.4629V83.3508H82.0504V79.9383ZM87.7379 79.9383H91.1504V83.3508H87.7379V79.9383ZM70.6754 85.1383H74.0879V88.5508H70.6754V85.1383ZM76.3629 85.1383H79.7754V88.5508H76.3629V85.1383ZM82.0504 85.1383H85.4629V88.5508H82.0504V85.1383ZM87.7379 85.1383H91.1504V88.5508H87.7379V85.1383ZM70.6754 90.257H74.0879V93.6695H70.6754V90.257ZM61.4941 77.257H64.9066V80.832H61.4941V77.257ZM61.4941 82.7008H64.9066V86.2758H61.4941V82.7008ZM61.4941 88.2258H64.9066V91.8008H61.4941V88.2258ZM61.4941 93.7508H64.9066V97.3258H61.4941V93.7508ZM96.9191 77.257H100.332V80.832H96.9191V77.257ZM96.9191 82.7008H100.332V86.2758H96.9191V82.7008ZM96.9191 88.2258H100.332V91.8008H96.9191V88.2258ZM96.9191 93.7508H100.332V97.3258H96.9191V93.7508ZM76.3629 90.257H79.7754V93.6695H76.3629V90.257ZM82.0504 90.257H85.4629V93.6695H82.0504V90.257ZM87.7379 90.257H91.1504V93.6695H87.7379V90.257Z" fill="#41B3E2"/>
<path d="M68.4004 100.414H93.4254V102.039H68.4004V100.414Z" fill="#788D9A"/>
<path d="M76.3613 95.8633H85.4613V102.038H76.3613V95.8633Z" fill="#445C6C"/>
<path d="M80.9125 66.532C83.4703 66.532 85.5438 64.4586 85.5438 61.9008C85.5438 59.343 83.4703 57.2695 80.9125 57.2695C78.3547 57.2695 76.2812 59.343 76.2812 61.9008C76.2812 64.4586 78.3547 66.532 80.9125 66.532Z" fill="#E39A61"/>
<path d="M80.9113 65.2328C82.7511 65.2328 84.2426 63.7414 84.2426 61.9016C84.2426 60.0618 82.7511 58.5703 80.9113 58.5703C79.0715 58.5703 77.5801 60.0618 77.5801 61.9016C77.5801 63.7414 79.0715 65.2328 80.9113 65.2328Z" fill="white"/>
<path d="M81.1555 62.4719H79.4492V61.9031H80.668V59.5469H81.1555V62.4719Z" fill="#788D9A"/>
<defs>
<filter id="filter0_f_794_645" x="0.513672" y="0.816406" width="154.135" height="154.133" filterUnits="userSpaceOnUse" color-interpolation-filters="sRGB">
<feFlood flood-opacity="0" result="BackgroundImageFix"/>
<feBlend mode="normal" in="SourceGraphic" in2="BackgroundImageFix" result="shape"/>
<feGaussianBlur stdDeviation="25" result="effect1_foregroundBlur_794_645"/>
</filter>
<radialGradient id="paint0_radial_794_645" cx="0" cy="0" r="1" gradientUnits="userSpaceOnUse" gradientTransform="translate(77.5809 77.8837) rotate(90) scale(27.0673)">
<stop stop-color="#EBDBDC"/>
<stop offset="1" stop-color="#F47D6C"/>
</radialGradient>
<linearGradient id="paint1_linear_794_645" x1="80.9121" y1="31.668" x2="80.9121" y2="120.406" gradientUnits="userSpaceOnUse">
<stop stop-color="white" stop-opacity="0.2"/>
<stop offset="1" stop-color="white" stop-opacity="0.05"/>
</linearGradient>
</defs>
</svg>
